G04 #@! TF.GenerationSoftware,KiCad,Pcbnew,9.0.0-9.0.0-2~ubuntu24.04.1*
G04 #@! TF.CreationDate,2025-02-26T22:28:53+01:00*
G04 #@! TF.ProjectId,ITX-Llama,4954582d-4c6c-4616-9d61-2e6b69636164,K*
G04 #@! TF.SameCoordinates,Original*
G04 #@! TF.FileFunction,Legend,Bot*
G04 #@! TF.FilePolarity,Positive*
%FSLAX46Y46*%
G04 Gerber Fmt 4.6, Leading zero omitted, Abs format (unit mm)*
G04 Created by KiCad (PCBNEW 9.0.0-9.0.0-2~ubuntu24.04.1) date 2025-02-26 22:28:53*
%MOMM*%
%LPD*%
G01*
G04 APERTURE LIST*
G04 Aperture macros list*
%AMRoundRect*
0 Rectangle with rounded corners*
0 $1 Rounding radius*
0 $2 $3 $4 $5 $6 $7 $8 $9 X,Y pos of 4 corners*
0 Add a 4 corners polygon primitive as box body*
4,1,4,$2,$3,$4,$5,$6,$7,$8,$9,$2,$3,0*
0 Add four circle primitives for the rounded corners*
1,1,$1+$1,$2,$3*
1,1,$1+$1,$4,$5*
1,1,$1+$1,$6,$7*
1,1,$1+$1,$8,$9*
0 Add four rect primitives between the rounded corners*
20,1,$1+$1,$2,$3,$4,$5,0*
20,1,$1+$1,$4,$5,$6,$7,0*
20,1,$1+$1,$6,$7,$8,$9,0*
20,1,$1+$1,$8,$9,$2,$3,0*%
G04 Aperture macros list end*
%ADD10C,0.200000*%
%ADD11C,0.152400*%
%ADD12C,0.120000*%
%ADD13RoundRect,0.200000X-0.200000X-0.275000X0.200000X-0.275000X0.200000X0.275000X-0.200000X0.275000X0*%
%ADD14RoundRect,0.200000X0.200000X0.275000X-0.200000X0.275000X-0.200000X-0.275000X0.200000X-0.275000X0*%
%ADD15RoundRect,0.200000X0.335876X0.053033X0.053033X0.335876X-0.335876X-0.053033X-0.053033X-0.335876X0*%
%ADD16RoundRect,0.200000X-0.335876X-0.053033X-0.053033X-0.335876X0.335876X0.053033X0.053033X0.335876X0*%
%ADD17RoundRect,0.200000X0.275000X-0.200000X0.275000X0.200000X-0.275000X0.200000X-0.275000X-0.200000X0*%
%ADD18RoundRect,0.200000X-0.275000X0.200000X-0.275000X-0.200000X0.275000X-0.200000X0.275000X0.200000X0*%
%ADD19RoundRect,0.225000X0.250000X-0.225000X0.250000X0.225000X-0.250000X0.225000X-0.250000X-0.225000X0*%
%ADD20RoundRect,0.225000X0.335876X0.017678X0.017678X0.335876X-0.335876X-0.017678X-0.017678X-0.335876X0*%
%ADD21RoundRect,0.225000X-0.225000X-0.250000X0.225000X-0.250000X0.225000X0.250000X-0.225000X0.250000X0*%
%ADD22RoundRect,0.225000X-0.335876X-0.017678X-0.017678X-0.335876X0.335876X0.017678X0.017678X0.335876X0*%
%ADD23RoundRect,0.225000X-0.017678X0.335876X-0.335876X0.017678X0.017678X-0.335876X0.335876X-0.017678X0*%
%ADD24R,1.755000X1.755000*%
%ADD25C,1.755000*%
%ADD26C,1.397000*%
%ADD27C,0.400000*%
%ADD28C,7.000000*%
%ADD29RoundRect,0.225000X-0.250000X0.225000X-0.250000X-0.225000X0.250000X-0.225000X0.250000X0.225000X0*%
%ADD30C,2.440000*%
%ADD31R,1.200000X1.200000*%
%ADD32C,1.200000*%
%ADD33C,1.300000*%
%ADD34R,1.530000X1.530000*%
%ADD35C,1.550000*%
%ADD36C,1.600000*%
%ADD37C,1.000000*%
%ADD38C,1.700000*%
%ADD39R,1.397000X1.397000*%
%ADD40C,3.600000*%
%ADD41C,1.800000*%
%ADD42R,1.070000X1.800000*%
%ADD43O,1.070000X1.800000*%
%ADD44C,1.500000*%
%ADD45C,3.000000*%
%ADD46C,2.250000*%
%ADD47C,1.250000*%
%ADD48C,1.016000*%
%ADD49C,1.248000*%
%ADD50C,5.000000*%
%ADD51C,3.200000*%
%ADD52R,1.600000X1.600000*%
%ADD53O,1.600000X1.600000*%
%ADD54C,1.400000*%
%ADD55C,2.200000*%
%ADD56C,4.000000*%
G04 APERTURE END LIST*
D10*
X17654136Y-4367219D02*
X18130326Y-4367219D01*
X18130326Y-4367219D02*
X18130326Y-3367219D01*
X17177945Y-4367219D02*
X17273183Y-4319600D01*
X17273183Y-4319600D02*
X17320802Y-4224361D01*
X17320802Y-4224361D02*
X17320802Y-3367219D01*
X16368421Y-4367219D02*
X16368421Y-3843409D01*
X16368421Y-3843409D02*
X16416040Y-3748171D01*
X16416040Y-3748171D02*
X16511278Y-3700552D01*
X16511278Y-3700552D02*
X16701754Y-3700552D01*
X16701754Y-3700552D02*
X16796992Y-3748171D01*
X16368421Y-4319600D02*
X16463659Y-4367219D01*
X16463659Y-4367219D02*
X16701754Y-4367219D01*
X16701754Y-4367219D02*
X16796992Y-4319600D01*
X16796992Y-4319600D02*
X16844611Y-4224361D01*
X16844611Y-4224361D02*
X16844611Y-4129123D01*
X16844611Y-4129123D02*
X16796992Y-4033885D01*
X16796992Y-4033885D02*
X16701754Y-3986266D01*
X16701754Y-3986266D02*
X16463659Y-3986266D01*
X16463659Y-3986266D02*
X16368421Y-3938647D01*
X15892230Y-4367219D02*
X15892230Y-3700552D01*
X15892230Y-3795790D02*
X15844611Y-3748171D01*
X15844611Y-3748171D02*
X15749373Y-3700552D01*
X15749373Y-3700552D02*
X15606516Y-3700552D01*
X15606516Y-3700552D02*
X15511278Y-3748171D01*
X15511278Y-3748171D02*
X15463659Y-3843409D01*
X15463659Y-3843409D02*
X15463659Y-4367219D01*
X15463659Y-3843409D02*
X15416040Y-3748171D01*
X15416040Y-3748171D02*
X15320802Y-3700552D01*
X15320802Y-3700552D02*
X15177945Y-3700552D01*
X15177945Y-3700552D02*
X15082706Y-3748171D01*
X15082706Y-3748171D02*
X15035087Y-3843409D01*
X15035087Y-3843409D02*
X15035087Y-4367219D01*
X14130326Y-4367219D02*
X14130326Y-3843409D01*
X14130326Y-3843409D02*
X14177945Y-3748171D01*
X14177945Y-3748171D02*
X14273183Y-3700552D01*
X14273183Y-3700552D02*
X14463659Y-3700552D01*
X14463659Y-3700552D02*
X14558897Y-3748171D01*
X14130326Y-4319600D02*
X14225564Y-4367219D01*
X14225564Y-4367219D02*
X14463659Y-4367219D01*
X14463659Y-4367219D02*
X14558897Y-4319600D01*
X14558897Y-4319600D02*
X14606516Y-4224361D01*
X14606516Y-4224361D02*
X14606516Y-4129123D01*
X14606516Y-4129123D02*
X14558897Y-4033885D01*
X14558897Y-4033885D02*
X14463659Y-3986266D01*
X14463659Y-3986266D02*
X14225564Y-3986266D01*
X14225564Y-3986266D02*
X14130326Y-3938647D01*
X13701754Y-4319600D02*
X13606516Y-4367219D01*
X13606516Y-4367219D02*
X13416040Y-4367219D01*
X13416040Y-4367219D02*
X13320802Y-4319600D01*
X13320802Y-4319600D02*
X13273183Y-4224361D01*
X13273183Y-4224361D02*
X13273183Y-4176742D01*
X13273183Y-4176742D02*
X13320802Y-4081504D01*
X13320802Y-4081504D02*
X13416040Y-4033885D01*
X13416040Y-4033885D02*
X13558897Y-4033885D01*
X13558897Y-4033885D02*
X13654135Y-3986266D01*
X13654135Y-3986266D02*
X13701754Y-3891028D01*
X13701754Y-3891028D02*
X13701754Y-3843409D01*
X13701754Y-3843409D02*
X13654135Y-3748171D01*
X13654135Y-3748171D02*
X13558897Y-3700552D01*
X13558897Y-3700552D02*
X13416040Y-3700552D01*
X13416040Y-3700552D02*
X13320802Y-3748171D01*
X12082706Y-4367219D02*
X12082706Y-3700552D01*
X12082706Y-3891028D02*
X12035087Y-3795790D01*
X12035087Y-3795790D02*
X11987468Y-3748171D01*
X11987468Y-3748171D02*
X11892230Y-3700552D01*
X11892230Y-3700552D02*
X11796992Y-3700552D01*
X11035087Y-3700552D02*
X11035087Y-4367219D01*
X11463658Y-3700552D02*
X11463658Y-4224361D01*
X11463658Y-4224361D02*
X11416039Y-4319600D01*
X11416039Y-4319600D02*
X11320801Y-4367219D01*
X11320801Y-4367219D02*
X11177944Y-4367219D01*
X11177944Y-4367219D02*
X11082706Y-4319600D01*
X11082706Y-4319600D02*
X11035087Y-4271980D01*
X10416039Y-4367219D02*
X10511277Y-4319600D01*
X10511277Y-4319600D02*
X10558896Y-4224361D01*
X10558896Y-4224361D02*
X10558896Y-3367219D01*
X9654134Y-4319600D02*
X9749372Y-4367219D01*
X9749372Y-4367219D02*
X9939848Y-4367219D01*
X9939848Y-4367219D02*
X10035086Y-4319600D01*
X10035086Y-4319600D02*
X10082705Y-4224361D01*
X10082705Y-4224361D02*
X10082705Y-3843409D01*
X10082705Y-3843409D02*
X10035086Y-3748171D01*
X10035086Y-3748171D02*
X9939848Y-3700552D01*
X9939848Y-3700552D02*
X9749372Y-3700552D01*
X9749372Y-3700552D02*
X9654134Y-3748171D01*
X9654134Y-3748171D02*
X9606515Y-3843409D01*
X9606515Y-3843409D02*
X9606515Y-3938647D01*
X9606515Y-3938647D02*
X10082705Y-4033885D01*
X9177943Y-4271980D02*
X9130324Y-4319600D01*
X9130324Y-4319600D02*
X9177943Y-4367219D01*
X9177943Y-4367219D02*
X9225562Y-4319600D01*
X9225562Y-4319600D02*
X9177943Y-4271980D01*
X9177943Y-4271980D02*
X9177943Y-4367219D01*
D11*
X4071256Y113414409D02*
X4325256Y113777266D01*
X4506685Y113414409D02*
X4506685Y114176409D01*
X4506685Y114176409D02*
X4216399Y114176409D01*
X4216399Y114176409D02*
X4143828Y114140123D01*
X4143828Y114140123D02*
X4107542Y114103837D01*
X4107542Y114103837D02*
X4071256Y114031266D01*
X4071256Y114031266D02*
X4071256Y113922409D01*
X4071256Y113922409D02*
X4107542Y113849837D01*
X4107542Y113849837D02*
X4143828Y113813552D01*
X4143828Y113813552D02*
X4216399Y113777266D01*
X4216399Y113777266D02*
X4506685Y113777266D01*
X3708399Y113414409D02*
X3563256Y113414409D01*
X3563256Y113414409D02*
X3490685Y113450695D01*
X3490685Y113450695D02*
X3454399Y113486980D01*
X3454399Y113486980D02*
X3381828Y113595837D01*
X3381828Y113595837D02*
X3345542Y113740980D01*
X3345542Y113740980D02*
X3345542Y114031266D01*
X3345542Y114031266D02*
X3381828Y114103837D01*
X3381828Y114103837D02*
X3418114Y114140123D01*
X3418114Y114140123D02*
X3490685Y114176409D01*
X3490685Y114176409D02*
X3635828Y114176409D01*
X3635828Y114176409D02*
X3708399Y114140123D01*
X3708399Y114140123D02*
X3744685Y114103837D01*
X3744685Y114103837D02*
X3780971Y114031266D01*
X3780971Y114031266D02*
X3780971Y113849837D01*
X3780971Y113849837D02*
X3744685Y113777266D01*
X3744685Y113777266D02*
X3708399Y113740980D01*
X3708399Y113740980D02*
X3635828Y113704695D01*
X3635828Y113704695D02*
X3490685Y113704695D01*
X3490685Y113704695D02*
X3418114Y113740980D01*
X3418114Y113740980D02*
X3381828Y113777266D01*
X3381828Y113777266D02*
X3345542Y113849837D01*
X3091542Y114176409D02*
X2619828Y114176409D01*
X2619828Y114176409D02*
X2873828Y113886123D01*
X2873828Y113886123D02*
X2764971Y113886123D01*
X2764971Y113886123D02*
X2692400Y113849837D01*
X2692400Y113849837D02*
X2656114Y113813552D01*
X2656114Y113813552D02*
X2619828Y113740980D01*
X2619828Y113740980D02*
X2619828Y113559552D01*
X2619828Y113559552D02*
X2656114Y113486980D01*
X2656114Y113486980D02*
X2692400Y113450695D01*
X2692400Y113450695D02*
X2764971Y113414409D01*
X2764971Y113414409D02*
X2982685Y113414409D01*
X2982685Y113414409D02*
X3055257Y113450695D01*
X3055257Y113450695D02*
X3091542Y113486980D01*
X3969656Y110112409D02*
X4223656Y110475266D01*
X4405085Y110112409D02*
X4405085Y110874409D01*
X4405085Y110874409D02*
X4114799Y110874409D01*
X4114799Y110874409D02*
X4042228Y110838123D01*
X4042228Y110838123D02*
X4005942Y110801837D01*
X4005942Y110801837D02*
X3969656Y110729266D01*
X3969656Y110729266D02*
X3969656Y110620409D01*
X3969656Y110620409D02*
X4005942Y110547837D01*
X4005942Y110547837D02*
X4042228Y110511552D01*
X4042228Y110511552D02*
X4114799Y110475266D01*
X4114799Y110475266D02*
X4405085Y110475266D01*
X3606799Y110112409D02*
X3461656Y110112409D01*
X3461656Y110112409D02*
X3389085Y110148695D01*
X3389085Y110148695D02*
X3352799Y110184980D01*
X3352799Y110184980D02*
X3280228Y110293837D01*
X3280228Y110293837D02*
X3243942Y110438980D01*
X3243942Y110438980D02*
X3243942Y110729266D01*
X3243942Y110729266D02*
X3280228Y110801837D01*
X3280228Y110801837D02*
X3316514Y110838123D01*
X3316514Y110838123D02*
X3389085Y110874409D01*
X3389085Y110874409D02*
X3534228Y110874409D01*
X3534228Y110874409D02*
X3606799Y110838123D01*
X3606799Y110838123D02*
X3643085Y110801837D01*
X3643085Y110801837D02*
X3679371Y110729266D01*
X3679371Y110729266D02*
X3679371Y110547837D01*
X3679371Y110547837D02*
X3643085Y110475266D01*
X3643085Y110475266D02*
X3606799Y110438980D01*
X3606799Y110438980D02*
X3534228Y110402695D01*
X3534228Y110402695D02*
X3389085Y110402695D01*
X3389085Y110402695D02*
X3316514Y110438980D01*
X3316514Y110438980D02*
X3280228Y110475266D01*
X3280228Y110475266D02*
X3243942Y110547837D01*
X2953657Y110801837D02*
X2917371Y110838123D01*
X2917371Y110838123D02*
X2844800Y110874409D01*
X2844800Y110874409D02*
X2663371Y110874409D01*
X2663371Y110874409D02*
X2590800Y110838123D01*
X2590800Y110838123D02*
X2554514Y110801837D01*
X2554514Y110801837D02*
X2518228Y110729266D01*
X2518228Y110729266D02*
X2518228Y110656695D01*
X2518228Y110656695D02*
X2554514Y110547837D01*
X2554514Y110547837D02*
X2989942Y110112409D01*
X2989942Y110112409D02*
X2518228Y110112409D01*
X3995056Y107046609D02*
X4249056Y107409466D01*
X4430485Y107046609D02*
X4430485Y107808609D01*
X4430485Y107808609D02*
X4140199Y107808609D01*
X4140199Y107808609D02*
X4067628Y107772323D01*
X4067628Y107772323D02*
X4031342Y107736037D01*
X4031342Y107736037D02*
X3995056Y107663466D01*
X3995056Y107663466D02*
X3995056Y107554609D01*
X3995056Y107554609D02*
X4031342Y107482037D01*
X4031342Y107482037D02*
X4067628Y107445752D01*
X4067628Y107445752D02*
X4140199Y107409466D01*
X4140199Y107409466D02*
X4430485Y107409466D01*
X3632199Y107046609D02*
X3487056Y107046609D01*
X3487056Y107046609D02*
X3414485Y107082895D01*
X3414485Y107082895D02*
X3378199Y107119180D01*
X3378199Y107119180D02*
X3305628Y107228037D01*
X3305628Y107228037D02*
X3269342Y107373180D01*
X3269342Y107373180D02*
X3269342Y107663466D01*
X3269342Y107663466D02*
X3305628Y107736037D01*
X3305628Y107736037D02*
X3341914Y107772323D01*
X3341914Y107772323D02*
X3414485Y107808609D01*
X3414485Y107808609D02*
X3559628Y107808609D01*
X3559628Y107808609D02*
X3632199Y107772323D01*
X3632199Y107772323D02*
X3668485Y107736037D01*
X3668485Y107736037D02*
X3704771Y107663466D01*
X3704771Y107663466D02*
X3704771Y107482037D01*
X3704771Y107482037D02*
X3668485Y107409466D01*
X3668485Y107409466D02*
X3632199Y107373180D01*
X3632199Y107373180D02*
X3559628Y107336895D01*
X3559628Y107336895D02*
X3414485Y107336895D01*
X3414485Y107336895D02*
X3341914Y107373180D01*
X3341914Y107373180D02*
X3305628Y107409466D01*
X3305628Y107409466D02*
X3269342Y107482037D01*
X2543628Y107046609D02*
X2979057Y107046609D01*
X2761342Y107046609D02*
X2761342Y107808609D01*
X2761342Y107808609D02*
X2833914Y107699752D01*
X2833914Y107699752D02*
X2906485Y107627180D01*
X2906485Y107627180D02*
X2979057Y107590895D01*
X4071256Y120686409D02*
X4325256Y121049266D01*
X4506685Y120686409D02*
X4506685Y121448409D01*
X4506685Y121448409D02*
X4216399Y121448409D01*
X4216399Y121448409D02*
X4143828Y121412123D01*
X4143828Y121412123D02*
X4107542Y121375837D01*
X4107542Y121375837D02*
X4071256Y121303266D01*
X4071256Y121303266D02*
X4071256Y121194409D01*
X4071256Y121194409D02*
X4107542Y121121837D01*
X4107542Y121121837D02*
X4143828Y121085552D01*
X4143828Y121085552D02*
X4216399Y121049266D01*
X4216399Y121049266D02*
X4506685Y121049266D01*
X3708399Y120686409D02*
X3563256Y120686409D01*
X3563256Y120686409D02*
X3490685Y120722695D01*
X3490685Y120722695D02*
X3454399Y120758980D01*
X3454399Y120758980D02*
X3381828Y120867837D01*
X3381828Y120867837D02*
X3345542Y121012980D01*
X3345542Y121012980D02*
X3345542Y121303266D01*
X3345542Y121303266D02*
X3381828Y121375837D01*
X3381828Y121375837D02*
X3418114Y121412123D01*
X3418114Y121412123D02*
X3490685Y121448409D01*
X3490685Y121448409D02*
X3635828Y121448409D01*
X3635828Y121448409D02*
X3708399Y121412123D01*
X3708399Y121412123D02*
X3744685Y121375837D01*
X3744685Y121375837D02*
X3780971Y121303266D01*
X3780971Y121303266D02*
X3780971Y121121837D01*
X3780971Y121121837D02*
X3744685Y121049266D01*
X3744685Y121049266D02*
X3708399Y121012980D01*
X3708399Y121012980D02*
X3635828Y120976695D01*
X3635828Y120976695D02*
X3490685Y120976695D01*
X3490685Y120976695D02*
X3418114Y121012980D01*
X3418114Y121012980D02*
X3381828Y121049266D01*
X3381828Y121049266D02*
X3345542Y121121837D01*
X2873828Y121448409D02*
X2801257Y121448409D01*
X2801257Y121448409D02*
X2728685Y121412123D01*
X2728685Y121412123D02*
X2692400Y121375837D01*
X2692400Y121375837D02*
X2656114Y121303266D01*
X2656114Y121303266D02*
X2619828Y121158123D01*
X2619828Y121158123D02*
X2619828Y120976695D01*
X2619828Y120976695D02*
X2656114Y120831552D01*
X2656114Y120831552D02*
X2692400Y120758980D01*
X2692400Y120758980D02*
X2728685Y120722695D01*
X2728685Y120722695D02*
X2801257Y120686409D01*
X2801257Y120686409D02*
X2873828Y120686409D01*
X2873828Y120686409D02*
X2946400Y120722695D01*
X2946400Y120722695D02*
X2982685Y120758980D01*
X2982685Y120758980D02*
X3018971Y120831552D01*
X3018971Y120831552D02*
X3055257Y120976695D01*
X3055257Y120976695D02*
X3055257Y121158123D01*
X3055257Y121158123D02*
X3018971Y121303266D01*
X3018971Y121303266D02*
X2982685Y121375837D01*
X2982685Y121375837D02*
X2946400Y121412123D01*
X2946400Y121412123D02*
X2873828Y121448409D01*
X72721318Y11398756D02*
X73157502Y11475730D01*
X73029213Y11090861D02*
X73568028Y11629677D01*
X73568028Y11629677D02*
X73362765Y11834940D01*
X73362765Y11834940D02*
X73285791Y11860598D01*
X73285791Y11860598D02*
X73234476Y11860598D01*
X73234476Y11860598D02*
X73157502Y11834940D01*
X73157502Y11834940D02*
X73080528Y11757966D01*
X73080528Y11757966D02*
X73054871Y11680993D01*
X73054871Y11680993D02*
X73054871Y11629677D01*
X73054871Y11629677D02*
X73080528Y11552703D01*
X73080528Y11552703D02*
X73285791Y11347440D01*
X73080528Y12117176D02*
X72721318Y12476387D01*
X72721318Y12476387D02*
X72413424Y11706650D01*
X72208161Y12527702D02*
X72285135Y12502044D01*
X72285135Y12502044D02*
X72336450Y12502044D01*
X72336450Y12502044D02*
X72413424Y12527702D01*
X72413424Y12527702D02*
X72439082Y12553360D01*
X72439082Y12553360D02*
X72464740Y12630334D01*
X72464740Y12630334D02*
X72464740Y12681649D01*
X72464740Y12681649D02*
X72439082Y12758623D01*
X72439082Y12758623D02*
X72336450Y12861255D01*
X72336450Y12861255D02*
X72259477Y12886912D01*
X72259477Y12886912D02*
X72208161Y12886912D01*
X72208161Y12886912D02*
X72131187Y12861255D01*
X72131187Y12861255D02*
X72105529Y12835597D01*
X72105529Y12835597D02*
X72079872Y12758623D01*
X72079872Y12758623D02*
X72079872Y12707307D01*
X72079872Y12707307D02*
X72105529Y12630334D01*
X72105529Y12630334D02*
X72208161Y12527702D01*
X72208161Y12527702D02*
X72233819Y12450729D01*
X72233819Y12450729D02*
X72233819Y12399413D01*
X72233819Y12399413D02*
X72208161Y12322439D01*
X72208161Y12322439D02*
X72105529Y12219808D01*
X72105529Y12219808D02*
X72028556Y12194150D01*
X72028556Y12194150D02*
X71977240Y12194150D01*
X71977240Y12194150D02*
X71900266Y12219808D01*
X71900266Y12219808D02*
X71797635Y12322439D01*
X71797635Y12322439D02*
X71771977Y12399413D01*
X71771977Y12399413D02*
X71771977Y12450729D01*
X71771977Y12450729D02*
X71797635Y12527702D01*
X71797635Y12527702D02*
X71900266Y12630334D01*
X71900266Y12630334D02*
X71977240Y12655992D01*
X71977240Y12655992D02*
X72028556Y12655992D01*
X72028556Y12655992D02*
X72105529Y12630334D01*
X75062955Y9117593D02*
X75499139Y9194567D01*
X75370850Y8809698D02*
X75909665Y9348514D01*
X75909665Y9348514D02*
X75704402Y9553777D01*
X75704402Y9553777D02*
X75627428Y9579435D01*
X75627428Y9579435D02*
X75576113Y9579435D01*
X75576113Y9579435D02*
X75499139Y9553777D01*
X75499139Y9553777D02*
X75422165Y9476803D01*
X75422165Y9476803D02*
X75396508Y9399830D01*
X75396508Y9399830D02*
X75396508Y9348514D01*
X75396508Y9348514D02*
X75422165Y9271540D01*
X75422165Y9271540D02*
X75627428Y9066277D01*
X75422165Y9836013D02*
X75088613Y10169566D01*
X75088613Y10169566D02*
X75062955Y9784698D01*
X75062955Y9784698D02*
X74985982Y9861671D01*
X74985982Y9861671D02*
X74909008Y9887329D01*
X74909008Y9887329D02*
X74857692Y9887329D01*
X74857692Y9887329D02*
X74780719Y9861671D01*
X74780719Y9861671D02*
X74652429Y9733382D01*
X74652429Y9733382D02*
X74626771Y9656408D01*
X74626771Y9656408D02*
X74626771Y9605093D01*
X74626771Y9605093D02*
X74652429Y9528119D01*
X74652429Y9528119D02*
X74806376Y9374172D01*
X74806376Y9374172D02*
X74883350Y9348514D01*
X74883350Y9348514D02*
X74934666Y9348514D01*
X74626772Y10631407D02*
X74729403Y10528776D01*
X74729403Y10528776D02*
X74755061Y10451802D01*
X74755061Y10451802D02*
X74755061Y10400486D01*
X74755061Y10400486D02*
X74729403Y10272197D01*
X74729403Y10272197D02*
X74652429Y10143908D01*
X74652429Y10143908D02*
X74447166Y9938645D01*
X74447166Y9938645D02*
X74370193Y9912987D01*
X74370193Y9912987D02*
X74318877Y9912987D01*
X74318877Y9912987D02*
X74241903Y9938645D01*
X74241903Y9938645D02*
X74139272Y10041276D01*
X74139272Y10041276D02*
X74113614Y10118250D01*
X74113614Y10118250D02*
X74113614Y10169566D01*
X74113614Y10169566D02*
X74139272Y10246539D01*
X74139272Y10246539D02*
X74267561Y10374829D01*
X74267561Y10374829D02*
X74344535Y10400486D01*
X74344535Y10400486D02*
X74395851Y10400486D01*
X74395851Y10400486D02*
X74472824Y10374829D01*
X74472824Y10374829D02*
X74575456Y10272197D01*
X74575456Y10272197D02*
X74601114Y10195223D01*
X74601114Y10195223D02*
X74601114Y10143908D01*
X74601114Y10143908D02*
X74575456Y10066934D01*
X86780790Y-3650343D02*
X86417933Y-3396343D01*
X86780790Y-3214914D02*
X86018790Y-3214914D01*
X86018790Y-3214914D02*
X86018790Y-3505200D01*
X86018790Y-3505200D02*
X86055076Y-3577771D01*
X86055076Y-3577771D02*
X86091362Y-3614057D01*
X86091362Y-3614057D02*
X86163933Y-3650343D01*
X86163933Y-3650343D02*
X86272790Y-3650343D01*
X86272790Y-3650343D02*
X86345362Y-3614057D01*
X86345362Y-3614057D02*
X86381647Y-3577771D01*
X86381647Y-3577771D02*
X86417933Y-3505200D01*
X86417933Y-3505200D02*
X86417933Y-3214914D01*
X86091362Y-3940628D02*
X86055076Y-3976914D01*
X86055076Y-3976914D02*
X86018790Y-4049486D01*
X86018790Y-4049486D02*
X86018790Y-4230914D01*
X86018790Y-4230914D02*
X86055076Y-4303486D01*
X86055076Y-4303486D02*
X86091362Y-4339771D01*
X86091362Y-4339771D02*
X86163933Y-4376057D01*
X86163933Y-4376057D02*
X86236505Y-4376057D01*
X86236505Y-4376057D02*
X86345362Y-4339771D01*
X86345362Y-4339771D02*
X86780790Y-3904343D01*
X86780790Y-3904343D02*
X86780790Y-4376057D01*
X86780790Y-4738914D02*
X86780790Y-4884057D01*
X86780790Y-4884057D02*
X86744505Y-4956628D01*
X86744505Y-4956628D02*
X86708219Y-4992914D01*
X86708219Y-4992914D02*
X86599362Y-5065485D01*
X86599362Y-5065485D02*
X86454219Y-5101771D01*
X86454219Y-5101771D02*
X86163933Y-5101771D01*
X86163933Y-5101771D02*
X86091362Y-5065485D01*
X86091362Y-5065485D02*
X86055076Y-5029200D01*
X86055076Y-5029200D02*
X86018790Y-4956628D01*
X86018790Y-4956628D02*
X86018790Y-4811485D01*
X86018790Y-4811485D02*
X86055076Y-4738914D01*
X86055076Y-4738914D02*
X86091362Y-4702628D01*
X86091362Y-4702628D02*
X86163933Y-4666342D01*
X86163933Y-4666342D02*
X86345362Y-4666342D01*
X86345362Y-4666342D02*
X86417933Y-4702628D01*
X86417933Y-4702628D02*
X86454219Y-4738914D01*
X86454219Y-4738914D02*
X86490505Y-4811485D01*
X86490505Y-4811485D02*
X86490505Y-4956628D01*
X86490505Y-4956628D02*
X86454219Y-5029200D01*
X86454219Y-5029200D02*
X86417933Y-5065485D01*
X86417933Y-5065485D02*
X86345362Y-5101771D01*
X118098990Y-3472543D02*
X117736133Y-3218543D01*
X118098990Y-3037114D02*
X117336990Y-3037114D01*
X117336990Y-3037114D02*
X117336990Y-3327400D01*
X117336990Y-3327400D02*
X117373276Y-3399971D01*
X117373276Y-3399971D02*
X117409562Y-3436257D01*
X117409562Y-3436257D02*
X117482133Y-3472543D01*
X117482133Y-3472543D02*
X117590990Y-3472543D01*
X117590990Y-3472543D02*
X117663562Y-3436257D01*
X117663562Y-3436257D02*
X117699847Y-3399971D01*
X117699847Y-3399971D02*
X117736133Y-3327400D01*
X117736133Y-3327400D02*
X117736133Y-3037114D01*
X117409562Y-3762828D02*
X117373276Y-3799114D01*
X117373276Y-3799114D02*
X117336990Y-3871686D01*
X117336990Y-3871686D02*
X117336990Y-4053114D01*
X117336990Y-4053114D02*
X117373276Y-4125686D01*
X117373276Y-4125686D02*
X117409562Y-4161971D01*
X117409562Y-4161971D02*
X117482133Y-4198257D01*
X117482133Y-4198257D02*
X117554705Y-4198257D01*
X117554705Y-4198257D02*
X117663562Y-4161971D01*
X117663562Y-4161971D02*
X118098990Y-3726543D01*
X118098990Y-3726543D02*
X118098990Y-4198257D01*
X117336990Y-4851400D02*
X117336990Y-4706257D01*
X117336990Y-4706257D02*
X117373276Y-4633685D01*
X117373276Y-4633685D02*
X117409562Y-4597400D01*
X117409562Y-4597400D02*
X117518419Y-4524828D01*
X117518419Y-4524828D02*
X117663562Y-4488542D01*
X117663562Y-4488542D02*
X117953847Y-4488542D01*
X117953847Y-4488542D02*
X118026419Y-4524828D01*
X118026419Y-4524828D02*
X118062705Y-4561114D01*
X118062705Y-4561114D02*
X118098990Y-4633685D01*
X118098990Y-4633685D02*
X118098990Y-4778828D01*
X118098990Y-4778828D02*
X118062705Y-4851400D01*
X118062705Y-4851400D02*
X118026419Y-4887685D01*
X118026419Y-4887685D02*
X117953847Y-4923971D01*
X117953847Y-4923971D02*
X117772419Y-4923971D01*
X117772419Y-4923971D02*
X117699847Y-4887685D01*
X117699847Y-4887685D02*
X117663562Y-4851400D01*
X117663562Y-4851400D02*
X117627276Y-4778828D01*
X117627276Y-4778828D02*
X117627276Y-4633685D01*
X117627276Y-4633685D02*
X117663562Y-4561114D01*
X117663562Y-4561114D02*
X117699847Y-4524828D01*
X117699847Y-4524828D02*
X117772419Y-4488542D01*
X47486990Y14477999D02*
X47124133Y14731999D01*
X47486990Y14913428D02*
X46724990Y14913428D01*
X46724990Y14913428D02*
X46724990Y14623142D01*
X46724990Y14623142D02*
X46761276Y14550571D01*
X46761276Y14550571D02*
X46797562Y14514285D01*
X46797562Y14514285D02*
X46870133Y14477999D01*
X46870133Y14477999D02*
X46978990Y14477999D01*
X46978990Y14477999D02*
X47051562Y14514285D01*
X47051562Y14514285D02*
X47087847Y14550571D01*
X47087847Y14550571D02*
X47124133Y14623142D01*
X47124133Y14623142D02*
X47124133Y14913428D01*
X46724990Y13824857D02*
X46724990Y13969999D01*
X46724990Y13969999D02*
X46761276Y14042571D01*
X46761276Y14042571D02*
X46797562Y14078857D01*
X46797562Y14078857D02*
X46906419Y14151428D01*
X46906419Y14151428D02*
X47051562Y14187714D01*
X47051562Y14187714D02*
X47341847Y14187714D01*
X47341847Y14187714D02*
X47414419Y14151428D01*
X47414419Y14151428D02*
X47450705Y14115142D01*
X47450705Y14115142D02*
X47486990Y14042571D01*
X47486990Y14042571D02*
X47486990Y13897428D01*
X47486990Y13897428D02*
X47450705Y13824857D01*
X47450705Y13824857D02*
X47414419Y13788571D01*
X47414419Y13788571D02*
X47341847Y13752285D01*
X47341847Y13752285D02*
X47160419Y13752285D01*
X47160419Y13752285D02*
X47087847Y13788571D01*
X47087847Y13788571D02*
X47051562Y13824857D01*
X47051562Y13824857D02*
X47015276Y13897428D01*
X47015276Y13897428D02*
X47015276Y14042571D01*
X47015276Y14042571D02*
X47051562Y14115142D01*
X47051562Y14115142D02*
X47087847Y14151428D01*
X47087847Y14151428D02*
X47160419Y14187714D01*
X45226390Y14503399D02*
X44863533Y14757399D01*
X45226390Y14938828D02*
X44464390Y14938828D01*
X44464390Y14938828D02*
X44464390Y14648542D01*
X44464390Y14648542D02*
X44500676Y14575971D01*
X44500676Y14575971D02*
X44536962Y14539685D01*
X44536962Y14539685D02*
X44609533Y14503399D01*
X44609533Y14503399D02*
X44718390Y14503399D01*
X44718390Y14503399D02*
X44790962Y14539685D01*
X44790962Y14539685D02*
X44827247Y14575971D01*
X44827247Y14575971D02*
X44863533Y14648542D01*
X44863533Y14648542D02*
X44863533Y14938828D01*
X44464390Y13813971D02*
X44464390Y14176828D01*
X44464390Y14176828D02*
X44827247Y14213114D01*
X44827247Y14213114D02*
X44790962Y14176828D01*
X44790962Y14176828D02*
X44754676Y14104257D01*
X44754676Y14104257D02*
X44754676Y13922828D01*
X44754676Y13922828D02*
X44790962Y13850257D01*
X44790962Y13850257D02*
X44827247Y13813971D01*
X44827247Y13813971D02*
X44899819Y13777685D01*
X44899819Y13777685D02*
X45081247Y13777685D01*
X45081247Y13777685D02*
X45153819Y13813971D01*
X45153819Y13813971D02*
X45190105Y13850257D01*
X45190105Y13850257D02*
X45226390Y13922828D01*
X45226390Y13922828D02*
X45226390Y14104257D01*
X45226390Y14104257D02*
X45190105Y14176828D01*
X45190105Y14176828D02*
X45153819Y14213114D01*
X43092790Y14528799D02*
X42729933Y14782799D01*
X43092790Y14964228D02*
X42330790Y14964228D01*
X42330790Y14964228D02*
X42330790Y14673942D01*
X42330790Y14673942D02*
X42367076Y14601371D01*
X42367076Y14601371D02*
X42403362Y14565085D01*
X42403362Y14565085D02*
X42475933Y14528799D01*
X42475933Y14528799D02*
X42584790Y14528799D01*
X42584790Y14528799D02*
X42657362Y14565085D01*
X42657362Y14565085D02*
X42693647Y14601371D01*
X42693647Y14601371D02*
X42729933Y14673942D01*
X42729933Y14673942D02*
X42729933Y14964228D01*
X42584790Y13875657D02*
X43092790Y13875657D01*
X42294505Y14057085D02*
X42838790Y14238514D01*
X42838790Y14238514D02*
X42838790Y13766799D01*
X38698590Y14579599D02*
X38335733Y14833599D01*
X38698590Y15015028D02*
X37936590Y15015028D01*
X37936590Y15015028D02*
X37936590Y14724742D01*
X37936590Y14724742D02*
X37972876Y14652171D01*
X37972876Y14652171D02*
X38009162Y14615885D01*
X38009162Y14615885D02*
X38081733Y14579599D01*
X38081733Y14579599D02*
X38190590Y14579599D01*
X38190590Y14579599D02*
X38263162Y14615885D01*
X38263162Y14615885D02*
X38299447Y14652171D01*
X38299447Y14652171D02*
X38335733Y14724742D01*
X38335733Y14724742D02*
X38335733Y15015028D01*
X37936590Y14325599D02*
X37936590Y13853885D01*
X37936590Y13853885D02*
X38226876Y14107885D01*
X38226876Y14107885D02*
X38226876Y13999028D01*
X38226876Y13999028D02*
X38263162Y13926457D01*
X38263162Y13926457D02*
X38299447Y13890171D01*
X38299447Y13890171D02*
X38372019Y13853885D01*
X38372019Y13853885D02*
X38553447Y13853885D01*
X38553447Y13853885D02*
X38626019Y13890171D01*
X38626019Y13890171D02*
X38662305Y13926457D01*
X38662305Y13926457D02*
X38698590Y13999028D01*
X38698590Y13999028D02*
X38698590Y14216742D01*
X38698590Y14216742D02*
X38662305Y14289314D01*
X38662305Y14289314D02*
X38626019Y14325599D01*
X36463390Y14554199D02*
X36100533Y14808199D01*
X36463390Y14989628D02*
X35701390Y14989628D01*
X35701390Y14989628D02*
X35701390Y14699342D01*
X35701390Y14699342D02*
X35737676Y14626771D01*
X35737676Y14626771D02*
X35773962Y14590485D01*
X35773962Y14590485D02*
X35846533Y14554199D01*
X35846533Y14554199D02*
X35955390Y14554199D01*
X35955390Y14554199D02*
X36027962Y14590485D01*
X36027962Y14590485D02*
X36064247Y14626771D01*
X36064247Y14626771D02*
X36100533Y14699342D01*
X36100533Y14699342D02*
X36100533Y14989628D01*
X35773962Y14263914D02*
X35737676Y14227628D01*
X35737676Y14227628D02*
X35701390Y14155057D01*
X35701390Y14155057D02*
X35701390Y13973628D01*
X35701390Y13973628D02*
X35737676Y13901057D01*
X35737676Y13901057D02*
X35773962Y13864771D01*
X35773962Y13864771D02*
X35846533Y13828485D01*
X35846533Y13828485D02*
X35919105Y13828485D01*
X35919105Y13828485D02*
X36027962Y13864771D01*
X36027962Y13864771D02*
X36463390Y14300199D01*
X36463390Y14300199D02*
X36463390Y13828485D01*
X34304390Y14528799D02*
X33941533Y14782799D01*
X34304390Y14964228D02*
X33542390Y14964228D01*
X33542390Y14964228D02*
X33542390Y14673942D01*
X33542390Y14673942D02*
X33578676Y14601371D01*
X33578676Y14601371D02*
X33614962Y14565085D01*
X33614962Y14565085D02*
X33687533Y14528799D01*
X33687533Y14528799D02*
X33796390Y14528799D01*
X33796390Y14528799D02*
X33868962Y14565085D01*
X33868962Y14565085D02*
X33905247Y14601371D01*
X33905247Y14601371D02*
X33941533Y14673942D01*
X33941533Y14673942D02*
X33941533Y14964228D01*
X34304390Y13803085D02*
X34304390Y14238514D01*
X34304390Y14020799D02*
X33542390Y14020799D01*
X33542390Y14020799D02*
X33651247Y14093371D01*
X33651247Y14093371D02*
X33723819Y14165942D01*
X33723819Y14165942D02*
X33760105Y14238514D01*
X101397019Y-3185886D02*
X101433305Y-3149600D01*
X101433305Y-3149600D02*
X101469590Y-3040743D01*
X101469590Y-3040743D02*
X101469590Y-2968171D01*
X101469590Y-2968171D02*
X101433305Y-2859314D01*
X101433305Y-2859314D02*
X101360733Y-2786743D01*
X101360733Y-2786743D02*
X101288162Y-2750457D01*
X101288162Y-2750457D02*
X101143019Y-2714171D01*
X101143019Y-2714171D02*
X101034162Y-2714171D01*
X101034162Y-2714171D02*
X100889019Y-2750457D01*
X100889019Y-2750457D02*
X100816447Y-2786743D01*
X100816447Y-2786743D02*
X100743876Y-2859314D01*
X100743876Y-2859314D02*
X100707590Y-2968171D01*
X100707590Y-2968171D02*
X100707590Y-3040743D01*
X100707590Y-3040743D02*
X100743876Y-3149600D01*
X100743876Y-3149600D02*
X100780162Y-3185886D01*
X101469590Y-3911600D02*
X101469590Y-3476171D01*
X101469590Y-3693886D02*
X100707590Y-3693886D01*
X100707590Y-3693886D02*
X100816447Y-3621314D01*
X100816447Y-3621314D02*
X100889019Y-3548743D01*
X100889019Y-3548743D02*
X100925305Y-3476171D01*
X100707590Y-4564743D02*
X100707590Y-4419600D01*
X100707590Y-4419600D02*
X100743876Y-4347028D01*
X100743876Y-4347028D02*
X100780162Y-4310743D01*
X100780162Y-4310743D02*
X100889019Y-4238171D01*
X100889019Y-4238171D02*
X101034162Y-4201885D01*
X101034162Y-4201885D02*
X101324447Y-4201885D01*
X101324447Y-4201885D02*
X101397019Y-4238171D01*
X101397019Y-4238171D02*
X101433305Y-4274457D01*
X101433305Y-4274457D02*
X101469590Y-4347028D01*
X101469590Y-4347028D02*
X101469590Y-4492171D01*
X101469590Y-4492171D02*
X101433305Y-4564743D01*
X101433305Y-4564743D02*
X101397019Y-4601028D01*
X101397019Y-4601028D02*
X101324447Y-4637314D01*
X101324447Y-4637314D02*
X101143019Y-4637314D01*
X101143019Y-4637314D02*
X101070447Y-4601028D01*
X101070447Y-4601028D02*
X101034162Y-4564743D01*
X101034162Y-4564743D02*
X100997876Y-4492171D01*
X100997876Y-4492171D02*
X100997876Y-4347028D01*
X100997876Y-4347028D02*
X101034162Y-4274457D01*
X101034162Y-4274457D02*
X101070447Y-4238171D01*
X101070447Y-4238171D02*
X101143019Y-4201885D01*
X100707590Y-5290457D02*
X100707590Y-5145314D01*
X100707590Y-5145314D02*
X100743876Y-5072742D01*
X100743876Y-5072742D02*
X100780162Y-5036457D01*
X100780162Y-5036457D02*
X100889019Y-4963885D01*
X100889019Y-4963885D02*
X101034162Y-4927599D01*
X101034162Y-4927599D02*
X101324447Y-4927599D01*
X101324447Y-4927599D02*
X101397019Y-4963885D01*
X101397019Y-4963885D02*
X101433305Y-5000171D01*
X101433305Y-5000171D02*
X101469590Y-5072742D01*
X101469590Y-5072742D02*
X101469590Y-5217885D01*
X101469590Y-5217885D02*
X101433305Y-5290457D01*
X101433305Y-5290457D02*
X101397019Y-5326742D01*
X101397019Y-5326742D02*
X101324447Y-5363028D01*
X101324447Y-5363028D02*
X101143019Y-5363028D01*
X101143019Y-5363028D02*
X101070447Y-5326742D01*
X101070447Y-5326742D02*
X101034162Y-5290457D01*
X101034162Y-5290457D02*
X100997876Y-5217885D01*
X100997876Y-5217885D02*
X100997876Y-5072742D01*
X100997876Y-5072742D02*
X101034162Y-5000171D01*
X101034162Y-5000171D02*
X101070447Y-4963885D01*
X101070447Y-4963885D02*
X101143019Y-4927599D01*
X85496619Y-3389086D02*
X85532905Y-3352800D01*
X85532905Y-3352800D02*
X85569190Y-3243943D01*
X85569190Y-3243943D02*
X85569190Y-3171371D01*
X85569190Y-3171371D02*
X85532905Y-3062514D01*
X85532905Y-3062514D02*
X85460333Y-2989943D01*
X85460333Y-2989943D02*
X85387762Y-2953657D01*
X85387762Y-2953657D02*
X85242619Y-2917371D01*
X85242619Y-2917371D02*
X85133762Y-2917371D01*
X85133762Y-2917371D02*
X84988619Y-2953657D01*
X84988619Y-2953657D02*
X84916047Y-2989943D01*
X84916047Y-2989943D02*
X84843476Y-3062514D01*
X84843476Y-3062514D02*
X84807190Y-3171371D01*
X84807190Y-3171371D02*
X84807190Y-3243943D01*
X84807190Y-3243943D02*
X84843476Y-3352800D01*
X84843476Y-3352800D02*
X84879762Y-3389086D01*
X85569190Y-4114800D02*
X85569190Y-3679371D01*
X85569190Y-3897086D02*
X84807190Y-3897086D01*
X84807190Y-3897086D02*
X84916047Y-3824514D01*
X84916047Y-3824514D02*
X84988619Y-3751943D01*
X84988619Y-3751943D02*
X85024905Y-3679371D01*
X84807190Y-4767943D02*
X84807190Y-4622800D01*
X84807190Y-4622800D02*
X84843476Y-4550228D01*
X84843476Y-4550228D02*
X84879762Y-4513943D01*
X84879762Y-4513943D02*
X84988619Y-4441371D01*
X84988619Y-4441371D02*
X85133762Y-4405085D01*
X85133762Y-4405085D02*
X85424047Y-4405085D01*
X85424047Y-4405085D02*
X85496619Y-4441371D01*
X85496619Y-4441371D02*
X85532905Y-4477657D01*
X85532905Y-4477657D02*
X85569190Y-4550228D01*
X85569190Y-4550228D02*
X85569190Y-4695371D01*
X85569190Y-4695371D02*
X85532905Y-4767943D01*
X85532905Y-4767943D02*
X85496619Y-4804228D01*
X85496619Y-4804228D02*
X85424047Y-4840514D01*
X85424047Y-4840514D02*
X85242619Y-4840514D01*
X85242619Y-4840514D02*
X85170047Y-4804228D01*
X85170047Y-4804228D02*
X85133762Y-4767943D01*
X85133762Y-4767943D02*
X85097476Y-4695371D01*
X85097476Y-4695371D02*
X85097476Y-4550228D01*
X85097476Y-4550228D02*
X85133762Y-4477657D01*
X85133762Y-4477657D02*
X85170047Y-4441371D01*
X85170047Y-4441371D02*
X85242619Y-4405085D01*
X85061190Y-5493657D02*
X85569190Y-5493657D01*
X84770905Y-5312228D02*
X85315190Y-5130799D01*
X85315190Y-5130799D02*
X85315190Y-5602514D01*
X75336619Y-3363686D02*
X75372905Y-3327400D01*
X75372905Y-3327400D02*
X75409190Y-3218543D01*
X75409190Y-3218543D02*
X75409190Y-3145971D01*
X75409190Y-3145971D02*
X75372905Y-3037114D01*
X75372905Y-3037114D02*
X75300333Y-2964543D01*
X75300333Y-2964543D02*
X75227762Y-2928257D01*
X75227762Y-2928257D02*
X75082619Y-2891971D01*
X75082619Y-2891971D02*
X74973762Y-2891971D01*
X74973762Y-2891971D02*
X74828619Y-2928257D01*
X74828619Y-2928257D02*
X74756047Y-2964543D01*
X74756047Y-2964543D02*
X74683476Y-3037114D01*
X74683476Y-3037114D02*
X74647190Y-3145971D01*
X74647190Y-3145971D02*
X74647190Y-3218543D01*
X74647190Y-3218543D02*
X74683476Y-3327400D01*
X74683476Y-3327400D02*
X74719762Y-3363686D01*
X75409190Y-4089400D02*
X75409190Y-3653971D01*
X75409190Y-3871686D02*
X74647190Y-3871686D01*
X74647190Y-3871686D02*
X74756047Y-3799114D01*
X74756047Y-3799114D02*
X74828619Y-3726543D01*
X74828619Y-3726543D02*
X74864905Y-3653971D01*
X74647190Y-4742543D02*
X74647190Y-4597400D01*
X74647190Y-4597400D02*
X74683476Y-4524828D01*
X74683476Y-4524828D02*
X74719762Y-4488543D01*
X74719762Y-4488543D02*
X74828619Y-4415971D01*
X74828619Y-4415971D02*
X74973762Y-4379685D01*
X74973762Y-4379685D02*
X75264047Y-4379685D01*
X75264047Y-4379685D02*
X75336619Y-4415971D01*
X75336619Y-4415971D02*
X75372905Y-4452257D01*
X75372905Y-4452257D02*
X75409190Y-4524828D01*
X75409190Y-4524828D02*
X75409190Y-4669971D01*
X75409190Y-4669971D02*
X75372905Y-4742543D01*
X75372905Y-4742543D02*
X75336619Y-4778828D01*
X75336619Y-4778828D02*
X75264047Y-4815114D01*
X75264047Y-4815114D02*
X75082619Y-4815114D01*
X75082619Y-4815114D02*
X75010047Y-4778828D01*
X75010047Y-4778828D02*
X74973762Y-4742543D01*
X74973762Y-4742543D02*
X74937476Y-4669971D01*
X74937476Y-4669971D02*
X74937476Y-4524828D01*
X74937476Y-4524828D02*
X74973762Y-4452257D01*
X74973762Y-4452257D02*
X75010047Y-4415971D01*
X75010047Y-4415971D02*
X75082619Y-4379685D01*
X74719762Y-5105399D02*
X74683476Y-5141685D01*
X74683476Y-5141685D02*
X74647190Y-5214257D01*
X74647190Y-5214257D02*
X74647190Y-5395685D01*
X74647190Y-5395685D02*
X74683476Y-5468257D01*
X74683476Y-5468257D02*
X74719762Y-5504542D01*
X74719762Y-5504542D02*
X74792333Y-5540828D01*
X74792333Y-5540828D02*
X74864905Y-5540828D01*
X74864905Y-5540828D02*
X74973762Y-5504542D01*
X74973762Y-5504542D02*
X75409190Y-5069114D01*
X75409190Y-5069114D02*
X75409190Y-5540828D01*
X73787219Y-3363686D02*
X73823505Y-3327400D01*
X73823505Y-3327400D02*
X73859790Y-3218543D01*
X73859790Y-3218543D02*
X73859790Y-3145971D01*
X73859790Y-3145971D02*
X73823505Y-3037114D01*
X73823505Y-3037114D02*
X73750933Y-2964543D01*
X73750933Y-2964543D02*
X73678362Y-2928257D01*
X73678362Y-2928257D02*
X73533219Y-2891971D01*
X73533219Y-2891971D02*
X73424362Y-2891971D01*
X73424362Y-2891971D02*
X73279219Y-2928257D01*
X73279219Y-2928257D02*
X73206647Y-2964543D01*
X73206647Y-2964543D02*
X73134076Y-3037114D01*
X73134076Y-3037114D02*
X73097790Y-3145971D01*
X73097790Y-3145971D02*
X73097790Y-3218543D01*
X73097790Y-3218543D02*
X73134076Y-3327400D01*
X73134076Y-3327400D02*
X73170362Y-3363686D01*
X73859790Y-4089400D02*
X73859790Y-3653971D01*
X73859790Y-3871686D02*
X73097790Y-3871686D01*
X73097790Y-3871686D02*
X73206647Y-3799114D01*
X73206647Y-3799114D02*
X73279219Y-3726543D01*
X73279219Y-3726543D02*
X73315505Y-3653971D01*
X73097790Y-4343400D02*
X73097790Y-4815114D01*
X73097790Y-4815114D02*
X73388076Y-4561114D01*
X73388076Y-4561114D02*
X73388076Y-4669971D01*
X73388076Y-4669971D02*
X73424362Y-4742543D01*
X73424362Y-4742543D02*
X73460647Y-4778828D01*
X73460647Y-4778828D02*
X73533219Y-4815114D01*
X73533219Y-4815114D02*
X73714647Y-4815114D01*
X73714647Y-4815114D02*
X73787219Y-4778828D01*
X73787219Y-4778828D02*
X73823505Y-4742543D01*
X73823505Y-4742543D02*
X73859790Y-4669971D01*
X73859790Y-4669971D02*
X73859790Y-4452257D01*
X73859790Y-4452257D02*
X73823505Y-4379685D01*
X73823505Y-4379685D02*
X73787219Y-4343400D01*
X73859790Y-5540828D02*
X73859790Y-5105399D01*
X73859790Y-5323114D02*
X73097790Y-5323114D01*
X73097790Y-5323114D02*
X73206647Y-5250542D01*
X73206647Y-5250542D02*
X73279219Y-5177971D01*
X73279219Y-5177971D02*
X73315505Y-5105399D01*
X67785219Y-3389086D02*
X67821505Y-3352800D01*
X67821505Y-3352800D02*
X67857790Y-3243943D01*
X67857790Y-3243943D02*
X67857790Y-3171371D01*
X67857790Y-3171371D02*
X67821505Y-3062514D01*
X67821505Y-3062514D02*
X67748933Y-2989943D01*
X67748933Y-2989943D02*
X67676362Y-2953657D01*
X67676362Y-2953657D02*
X67531219Y-2917371D01*
X67531219Y-2917371D02*
X67422362Y-2917371D01*
X67422362Y-2917371D02*
X67277219Y-2953657D01*
X67277219Y-2953657D02*
X67204647Y-2989943D01*
X67204647Y-2989943D02*
X67132076Y-3062514D01*
X67132076Y-3062514D02*
X67095790Y-3171371D01*
X67095790Y-3171371D02*
X67095790Y-3243943D01*
X67095790Y-3243943D02*
X67132076Y-3352800D01*
X67132076Y-3352800D02*
X67168362Y-3389086D01*
X67857790Y-4114800D02*
X67857790Y-3679371D01*
X67857790Y-3897086D02*
X67095790Y-3897086D01*
X67095790Y-3897086D02*
X67204647Y-3824514D01*
X67204647Y-3824514D02*
X67277219Y-3751943D01*
X67277219Y-3751943D02*
X67313505Y-3679371D01*
X67095790Y-4368800D02*
X67095790Y-4840514D01*
X67095790Y-4840514D02*
X67386076Y-4586514D01*
X67386076Y-4586514D02*
X67386076Y-4695371D01*
X67386076Y-4695371D02*
X67422362Y-4767943D01*
X67422362Y-4767943D02*
X67458647Y-4804228D01*
X67458647Y-4804228D02*
X67531219Y-4840514D01*
X67531219Y-4840514D02*
X67712647Y-4840514D01*
X67712647Y-4840514D02*
X67785219Y-4804228D01*
X67785219Y-4804228D02*
X67821505Y-4767943D01*
X67821505Y-4767943D02*
X67857790Y-4695371D01*
X67857790Y-4695371D02*
X67857790Y-4477657D01*
X67857790Y-4477657D02*
X67821505Y-4405085D01*
X67821505Y-4405085D02*
X67785219Y-4368800D01*
X67095790Y-5312228D02*
X67095790Y-5384799D01*
X67095790Y-5384799D02*
X67132076Y-5457371D01*
X67132076Y-5457371D02*
X67168362Y-5493657D01*
X67168362Y-5493657D02*
X67240933Y-5529942D01*
X67240933Y-5529942D02*
X67386076Y-5566228D01*
X67386076Y-5566228D02*
X67567505Y-5566228D01*
X67567505Y-5566228D02*
X67712647Y-5529942D01*
X67712647Y-5529942D02*
X67785219Y-5493657D01*
X67785219Y-5493657D02*
X67821505Y-5457371D01*
X67821505Y-5457371D02*
X67857790Y-5384799D01*
X67857790Y-5384799D02*
X67857790Y-5312228D01*
X67857790Y-5312228D02*
X67821505Y-5239657D01*
X67821505Y-5239657D02*
X67785219Y-5203371D01*
X67785219Y-5203371D02*
X67712647Y-5167085D01*
X67712647Y-5167085D02*
X67567505Y-5130799D01*
X67567505Y-5130799D02*
X67386076Y-5130799D01*
X67386076Y-5130799D02*
X67240933Y-5167085D01*
X67240933Y-5167085D02*
X67168362Y-5203371D01*
X67168362Y-5203371D02*
X67132076Y-5239657D01*
X67132076Y-5239657D02*
X67095790Y-5312228D01*
X66769219Y-3363686D02*
X66805505Y-3327400D01*
X66805505Y-3327400D02*
X66841790Y-3218543D01*
X66841790Y-3218543D02*
X66841790Y-3145971D01*
X66841790Y-3145971D02*
X66805505Y-3037114D01*
X66805505Y-3037114D02*
X66732933Y-2964543D01*
X66732933Y-2964543D02*
X66660362Y-2928257D01*
X66660362Y-2928257D02*
X66515219Y-2891971D01*
X66515219Y-2891971D02*
X66406362Y-2891971D01*
X66406362Y-2891971D02*
X66261219Y-2928257D01*
X66261219Y-2928257D02*
X66188647Y-2964543D01*
X66188647Y-2964543D02*
X66116076Y-3037114D01*
X66116076Y-3037114D02*
X66079790Y-3145971D01*
X66079790Y-3145971D02*
X66079790Y-3218543D01*
X66079790Y-3218543D02*
X66116076Y-3327400D01*
X66116076Y-3327400D02*
X66152362Y-3363686D01*
X66841790Y-4089400D02*
X66841790Y-3653971D01*
X66841790Y-3871686D02*
X66079790Y-3871686D01*
X66079790Y-3871686D02*
X66188647Y-3799114D01*
X66188647Y-3799114D02*
X66261219Y-3726543D01*
X66261219Y-3726543D02*
X66297505Y-3653971D01*
X66152362Y-4379685D02*
X66116076Y-4415971D01*
X66116076Y-4415971D02*
X66079790Y-4488543D01*
X66079790Y-4488543D02*
X66079790Y-4669971D01*
X66079790Y-4669971D02*
X66116076Y-4742543D01*
X66116076Y-4742543D02*
X66152362Y-4778828D01*
X66152362Y-4778828D02*
X66224933Y-4815114D01*
X66224933Y-4815114D02*
X66297505Y-4815114D01*
X66297505Y-4815114D02*
X66406362Y-4778828D01*
X66406362Y-4778828D02*
X66841790Y-4343400D01*
X66841790Y-4343400D02*
X66841790Y-4815114D01*
X66841790Y-5177971D02*
X66841790Y-5323114D01*
X66841790Y-5323114D02*
X66805505Y-5395685D01*
X66805505Y-5395685D02*
X66769219Y-5431971D01*
X66769219Y-5431971D02*
X66660362Y-5504542D01*
X66660362Y-5504542D02*
X66515219Y-5540828D01*
X66515219Y-5540828D02*
X66224933Y-5540828D01*
X66224933Y-5540828D02*
X66152362Y-5504542D01*
X66152362Y-5504542D02*
X66116076Y-5468257D01*
X66116076Y-5468257D02*
X66079790Y-5395685D01*
X66079790Y-5395685D02*
X66079790Y-5250542D01*
X66079790Y-5250542D02*
X66116076Y-5177971D01*
X66116076Y-5177971D02*
X66152362Y-5141685D01*
X66152362Y-5141685D02*
X66224933Y-5105399D01*
X66224933Y-5105399D02*
X66406362Y-5105399D01*
X66406362Y-5105399D02*
X66478933Y-5141685D01*
X66478933Y-5141685D02*
X66515219Y-5177971D01*
X66515219Y-5177971D02*
X66551505Y-5250542D01*
X66551505Y-5250542D02*
X66551505Y-5395685D01*
X66551505Y-5395685D02*
X66515219Y-5468257D01*
X66515219Y-5468257D02*
X66478933Y-5504542D01*
X66478933Y-5504542D02*
X66406362Y-5540828D01*
X91515576Y18808656D02*
X91515576Y18757340D01*
X91515576Y18757340D02*
X91566891Y18654709D01*
X91566891Y18654709D02*
X91618207Y18603393D01*
X91618207Y18603393D02*
X91720839Y18552077D01*
X91720839Y18552077D02*
X91823470Y18552077D01*
X91823470Y18552077D02*
X91900444Y18577735D01*
X91900444Y18577735D02*
X92028733Y18654709D01*
X92028733Y18654709D02*
X92105707Y18731682D01*
X92105707Y18731682D02*
X92182680Y18859972D01*
X92182680Y18859972D02*
X92208338Y18936945D01*
X92208338Y18936945D02*
X92208338Y19039577D01*
X92208338Y19039577D02*
X92157022Y19142208D01*
X92157022Y19142208D02*
X92105707Y19193524D01*
X92105707Y19193524D02*
X92003075Y19244840D01*
X92003075Y19244840D02*
X91951759Y19244840D01*
X90951102Y19270498D02*
X91258997Y18962603D01*
X91105050Y19116551D02*
X91643865Y19655366D01*
X91643865Y19655366D02*
X91618207Y19527077D01*
X91618207Y19527077D02*
X91618207Y19424445D01*
X91618207Y19424445D02*
X91643865Y19347471D01*
X91156366Y20142865D02*
X91105050Y20194181D01*
X91105050Y20194181D02*
X91028076Y20219839D01*
X91028076Y20219839D02*
X90976760Y20219839D01*
X90976760Y20219839D02*
X90899787Y20194181D01*
X90899787Y20194181D02*
X90771497Y20117207D01*
X90771497Y20117207D02*
X90643208Y19988918D01*
X90643208Y19988918D02*
X90566234Y19860629D01*
X90566234Y19860629D02*
X90540577Y19783655D01*
X90540577Y19783655D02*
X90540577Y19732339D01*
X90540577Y19732339D02*
X90566234Y19655366D01*
X90566234Y19655366D02*
X90617550Y19604050D01*
X90617550Y19604050D02*
X90694524Y19578392D01*
X90694524Y19578392D02*
X90745840Y19578392D01*
X90745840Y19578392D02*
X90822813Y19604050D01*
X90822813Y19604050D02*
X90951103Y19681024D01*
X90951103Y19681024D02*
X91079392Y19809313D01*
X91079392Y19809313D02*
X91156366Y19937602D01*
X91156366Y19937602D02*
X91182023Y20014576D01*
X91182023Y20014576D02*
X91182023Y20065892D01*
X91182023Y20065892D02*
X91156366Y20142865D01*
X90797155Y20502075D02*
X90437945Y20861286D01*
X90437945Y20861286D02*
X90130051Y20091549D01*
X70601113Y9067580D02*
X70637399Y9031295D01*
X70637399Y9031295D02*
X70746256Y8995009D01*
X70746256Y8995009D02*
X70818828Y8995009D01*
X70818828Y8995009D02*
X70927685Y9031295D01*
X70927685Y9031295D02*
X71000256Y9103866D01*
X71000256Y9103866D02*
X71036542Y9176437D01*
X71036542Y9176437D02*
X71072828Y9321580D01*
X71072828Y9321580D02*
X71072828Y9430437D01*
X71072828Y9430437D02*
X71036542Y9575580D01*
X71036542Y9575580D02*
X71000256Y9648152D01*
X71000256Y9648152D02*
X70927685Y9720723D01*
X70927685Y9720723D02*
X70818828Y9757009D01*
X70818828Y9757009D02*
X70746256Y9757009D01*
X70746256Y9757009D02*
X70637399Y9720723D01*
X70637399Y9720723D02*
X70601113Y9684437D01*
X69875399Y8995009D02*
X70310828Y8995009D01*
X70093113Y8995009D02*
X70093113Y9757009D01*
X70093113Y9757009D02*
X70165685Y9648152D01*
X70165685Y9648152D02*
X70238256Y9575580D01*
X70238256Y9575580D02*
X70310828Y9539295D01*
X69403685Y9757009D02*
X69331114Y9757009D01*
X69331114Y9757009D02*
X69258542Y9720723D01*
X69258542Y9720723D02*
X69222257Y9684437D01*
X69222257Y9684437D02*
X69185971Y9611866D01*
X69185971Y9611866D02*
X69149685Y9466723D01*
X69149685Y9466723D02*
X69149685Y9285295D01*
X69149685Y9285295D02*
X69185971Y9140152D01*
X69185971Y9140152D02*
X69222257Y9067580D01*
X69222257Y9067580D02*
X69258542Y9031295D01*
X69258542Y9031295D02*
X69331114Y8995009D01*
X69331114Y8995009D02*
X69403685Y8995009D01*
X69403685Y8995009D02*
X69476257Y9031295D01*
X69476257Y9031295D02*
X69512542Y9067580D01*
X69512542Y9067580D02*
X69548828Y9140152D01*
X69548828Y9140152D02*
X69585114Y9285295D01*
X69585114Y9285295D02*
X69585114Y9466723D01*
X69585114Y9466723D02*
X69548828Y9611866D01*
X69548828Y9611866D02*
X69512542Y9684437D01*
X69512542Y9684437D02*
X69476257Y9720723D01*
X69476257Y9720723D02*
X69403685Y9757009D01*
X68895685Y9757009D02*
X68423971Y9757009D01*
X68423971Y9757009D02*
X68677971Y9466723D01*
X68677971Y9466723D02*
X68569114Y9466723D01*
X68569114Y9466723D02*
X68496543Y9430437D01*
X68496543Y9430437D02*
X68460257Y9394152D01*
X68460257Y9394152D02*
X68423971Y9321580D01*
X68423971Y9321580D02*
X68423971Y9140152D01*
X68423971Y9140152D02*
X68460257Y9067580D01*
X68460257Y9067580D02*
X68496543Y9031295D01*
X68496543Y9031295D02*
X68569114Y8995009D01*
X68569114Y8995009D02*
X68786828Y8995009D01*
X68786828Y8995009D02*
X68859400Y9031295D01*
X68859400Y9031295D02*
X68895685Y9067580D01*
X67070513Y16763780D02*
X67106799Y16727495D01*
X67106799Y16727495D02*
X67215656Y16691209D01*
X67215656Y16691209D02*
X67288228Y16691209D01*
X67288228Y16691209D02*
X67397085Y16727495D01*
X67397085Y16727495D02*
X67469656Y16800066D01*
X67469656Y16800066D02*
X67505942Y16872637D01*
X67505942Y16872637D02*
X67542228Y17017780D01*
X67542228Y17017780D02*
X67542228Y17126637D01*
X67542228Y17126637D02*
X67505942Y17271780D01*
X67505942Y17271780D02*
X67469656Y17344352D01*
X67469656Y17344352D02*
X67397085Y17416923D01*
X67397085Y17416923D02*
X67288228Y17453209D01*
X67288228Y17453209D02*
X67215656Y17453209D01*
X67215656Y17453209D02*
X67106799Y17416923D01*
X67106799Y17416923D02*
X67070513Y17380637D01*
X66344799Y16691209D02*
X66780228Y16691209D01*
X66562513Y16691209D02*
X66562513Y17453209D01*
X66562513Y17453209D02*
X66635085Y17344352D01*
X66635085Y17344352D02*
X66707656Y17271780D01*
X66707656Y17271780D02*
X66780228Y17235495D01*
X65873085Y17453209D02*
X65800514Y17453209D01*
X65800514Y17453209D02*
X65727942Y17416923D01*
X65727942Y17416923D02*
X65691657Y17380637D01*
X65691657Y17380637D02*
X65655371Y17308066D01*
X65655371Y17308066D02*
X65619085Y17162923D01*
X65619085Y17162923D02*
X65619085Y16981495D01*
X65619085Y16981495D02*
X65655371Y16836352D01*
X65655371Y16836352D02*
X65691657Y16763780D01*
X65691657Y16763780D02*
X65727942Y16727495D01*
X65727942Y16727495D02*
X65800514Y16691209D01*
X65800514Y16691209D02*
X65873085Y16691209D01*
X65873085Y16691209D02*
X65945657Y16727495D01*
X65945657Y16727495D02*
X65981942Y16763780D01*
X65981942Y16763780D02*
X66018228Y16836352D01*
X66018228Y16836352D02*
X66054514Y16981495D01*
X66054514Y16981495D02*
X66054514Y17162923D01*
X66054514Y17162923D02*
X66018228Y17308066D01*
X66018228Y17308066D02*
X65981942Y17380637D01*
X65981942Y17380637D02*
X65945657Y17416923D01*
X65945657Y17416923D02*
X65873085Y17453209D01*
X65147371Y17453209D02*
X65074800Y17453209D01*
X65074800Y17453209D02*
X65002228Y17416923D01*
X65002228Y17416923D02*
X64965943Y17380637D01*
X64965943Y17380637D02*
X64929657Y17308066D01*
X64929657Y17308066D02*
X64893371Y17162923D01*
X64893371Y17162923D02*
X64893371Y16981495D01*
X64893371Y16981495D02*
X64929657Y16836352D01*
X64929657Y16836352D02*
X64965943Y16763780D01*
X64965943Y16763780D02*
X65002228Y16727495D01*
X65002228Y16727495D02*
X65074800Y16691209D01*
X65074800Y16691209D02*
X65147371Y16691209D01*
X65147371Y16691209D02*
X65219943Y16727495D01*
X65219943Y16727495D02*
X65256228Y16763780D01*
X65256228Y16763780D02*
X65292514Y16836352D01*
X65292514Y16836352D02*
X65328800Y16981495D01*
X65328800Y16981495D02*
X65328800Y17162923D01*
X65328800Y17162923D02*
X65292514Y17308066D01*
X65292514Y17308066D02*
X65256228Y17380637D01*
X65256228Y17380637D02*
X65219943Y17416923D01*
X65219943Y17416923D02*
X65147371Y17453209D01*
X67392671Y23799309D02*
X67392671Y23747993D01*
X67392671Y23747993D02*
X67443987Y23645361D01*
X67443987Y23645361D02*
X67495302Y23594046D01*
X67495302Y23594046D02*
X67597934Y23542730D01*
X67597934Y23542730D02*
X67700565Y23542730D01*
X67700565Y23542730D02*
X67777539Y23568388D01*
X67777539Y23568388D02*
X67905828Y23645361D01*
X67905828Y23645361D02*
X67982802Y23722335D01*
X67982802Y23722335D02*
X68059776Y23850624D01*
X68059776Y23850624D02*
X68085434Y23927598D01*
X68085434Y23927598D02*
X68085434Y24030230D01*
X68085434Y24030230D02*
X68034118Y24132861D01*
X68034118Y24132861D02*
X67982802Y24184177D01*
X67982802Y24184177D02*
X67880171Y24235493D01*
X67880171Y24235493D02*
X67828855Y24235493D01*
X67084776Y24004572D02*
X66982145Y24107203D01*
X66982145Y24107203D02*
X66956487Y24184177D01*
X66956487Y24184177D02*
X66956487Y24235493D01*
X66956487Y24235493D02*
X66982145Y24363782D01*
X66982145Y24363782D02*
X67059119Y24492071D01*
X67059119Y24492071D02*
X67264382Y24697334D01*
X67264382Y24697334D02*
X67341355Y24722992D01*
X67341355Y24722992D02*
X67392671Y24722992D01*
X67392671Y24722992D02*
X67469645Y24697334D01*
X67469645Y24697334D02*
X67572276Y24594703D01*
X67572276Y24594703D02*
X67597934Y24517729D01*
X67597934Y24517729D02*
X67597934Y24466413D01*
X67597934Y24466413D02*
X67572276Y24389440D01*
X67572276Y24389440D02*
X67443987Y24261150D01*
X67443987Y24261150D02*
X67367013Y24235493D01*
X67367013Y24235493D02*
X67315697Y24235493D01*
X67315697Y24235493D02*
X67238724Y24261150D01*
X67238724Y24261150D02*
X67136092Y24363782D01*
X67136092Y24363782D02*
X67110434Y24440756D01*
X67110434Y24440756D02*
X67110434Y24492071D01*
X67110434Y24492071D02*
X67136092Y24569045D01*
X66571619Y24517729D02*
X66468988Y24620360D01*
X66468988Y24620360D02*
X66443330Y24697334D01*
X66443330Y24697334D02*
X66443330Y24748650D01*
X66443330Y24748650D02*
X66468988Y24876939D01*
X66468988Y24876939D02*
X66545961Y25005229D01*
X66545961Y25005229D02*
X66751224Y25210492D01*
X66751224Y25210492D02*
X66828198Y25236149D01*
X66828198Y25236149D02*
X66879514Y25236149D01*
X66879514Y25236149D02*
X66956487Y25210492D01*
X66956487Y25210492D02*
X67059119Y25107860D01*
X67059119Y25107860D02*
X67084777Y25030886D01*
X67084777Y25030886D02*
X67084777Y24979571D01*
X67084777Y24979571D02*
X67059119Y24902597D01*
X67059119Y24902597D02*
X66930829Y24774308D01*
X66930829Y24774308D02*
X66853856Y24748650D01*
X66853856Y24748650D02*
X66802540Y24748650D01*
X66802540Y24748650D02*
X66725566Y24774308D01*
X66725566Y24774308D02*
X66622935Y24876939D01*
X66622935Y24876939D02*
X66597277Y24953913D01*
X66597277Y24953913D02*
X66597277Y25005229D01*
X66597277Y25005229D02*
X66622935Y25082202D01*
X70796271Y27177509D02*
X70796271Y27126193D01*
X70796271Y27126193D02*
X70847587Y27023561D01*
X70847587Y27023561D02*
X70898902Y26972246D01*
X70898902Y26972246D02*
X71001534Y26920930D01*
X71001534Y26920930D02*
X71104165Y26920930D01*
X71104165Y26920930D02*
X71181139Y26946588D01*
X71181139Y26946588D02*
X71309428Y27023561D01*
X71309428Y27023561D02*
X71386402Y27100535D01*
X71386402Y27100535D02*
X71463376Y27228824D01*
X71463376Y27228824D02*
X71489034Y27305798D01*
X71489034Y27305798D02*
X71489034Y27408430D01*
X71489034Y27408430D02*
X71437718Y27511061D01*
X71437718Y27511061D02*
X71386402Y27562377D01*
X71386402Y27562377D02*
X71283771Y27613693D01*
X71283771Y27613693D02*
X71232455Y27613693D01*
X70488376Y27382772D02*
X70385745Y27485403D01*
X70385745Y27485403D02*
X70360087Y27562377D01*
X70360087Y27562377D02*
X70360087Y27613693D01*
X70360087Y27613693D02*
X70385745Y27741982D01*
X70385745Y27741982D02*
X70462719Y27870271D01*
X70462719Y27870271D02*
X70667982Y28075534D01*
X70667982Y28075534D02*
X70744955Y28101192D01*
X70744955Y28101192D02*
X70796271Y28101192D01*
X70796271Y28101192D02*
X70873245Y28075534D01*
X70873245Y28075534D02*
X70975876Y27972903D01*
X70975876Y27972903D02*
X71001534Y27895929D01*
X71001534Y27895929D02*
X71001534Y27844613D01*
X71001534Y27844613D02*
X70975876Y27767640D01*
X70975876Y27767640D02*
X70847587Y27639350D01*
X70847587Y27639350D02*
X70770613Y27613693D01*
X70770613Y27613693D02*
X70719297Y27613693D01*
X70719297Y27613693D02*
X70642324Y27639350D01*
X70642324Y27639350D02*
X70539692Y27741982D01*
X70539692Y27741982D02*
X70514034Y27818956D01*
X70514034Y27818956D02*
X70514034Y27870271D01*
X70514034Y27870271D02*
X70539692Y27947245D01*
X70231798Y28255139D02*
X70308772Y28229481D01*
X70308772Y28229481D02*
X70360087Y28229481D01*
X70360087Y28229481D02*
X70437061Y28255139D01*
X70437061Y28255139D02*
X70462719Y28280797D01*
X70462719Y28280797D02*
X70488377Y28357771D01*
X70488377Y28357771D02*
X70488377Y28409086D01*
X70488377Y28409086D02*
X70462719Y28486060D01*
X70462719Y28486060D02*
X70360087Y28588692D01*
X70360087Y28588692D02*
X70283114Y28614349D01*
X70283114Y28614349D02*
X70231798Y28614349D01*
X70231798Y28614349D02*
X70154824Y28588692D01*
X70154824Y28588692D02*
X70129166Y28563034D01*
X70129166Y28563034D02*
X70103509Y28486060D01*
X70103509Y28486060D02*
X70103509Y28434744D01*
X70103509Y28434744D02*
X70129166Y28357771D01*
X70129166Y28357771D02*
X70231798Y28255139D01*
X70231798Y28255139D02*
X70257456Y28178166D01*
X70257456Y28178166D02*
X70257456Y28126850D01*
X70257456Y28126850D02*
X70231798Y28049876D01*
X70231798Y28049876D02*
X70129166Y27947245D01*
X70129166Y27947245D02*
X70052193Y27921587D01*
X70052193Y27921587D02*
X70000877Y27921587D01*
X70000877Y27921587D02*
X69923903Y27947245D01*
X69923903Y27947245D02*
X69821272Y28049876D01*
X69821272Y28049876D02*
X69795614Y28126850D01*
X69795614Y28126850D02*
X69795614Y28178166D01*
X69795614Y28178166D02*
X69821272Y28255139D01*
X69821272Y28255139D02*
X69923903Y28357771D01*
X69923903Y28357771D02*
X70000877Y28383429D01*
X70000877Y28383429D02*
X70052193Y28383429D01*
X70052193Y28383429D02*
X70129166Y28357771D01*
X73158471Y29463509D02*
X73158471Y29412193D01*
X73158471Y29412193D02*
X73209787Y29309561D01*
X73209787Y29309561D02*
X73261102Y29258246D01*
X73261102Y29258246D02*
X73363734Y29206930D01*
X73363734Y29206930D02*
X73466365Y29206930D01*
X73466365Y29206930D02*
X73543339Y29232588D01*
X73543339Y29232588D02*
X73671628Y29309561D01*
X73671628Y29309561D02*
X73748602Y29386535D01*
X73748602Y29386535D02*
X73825576Y29514824D01*
X73825576Y29514824D02*
X73851234Y29591798D01*
X73851234Y29591798D02*
X73851234Y29694430D01*
X73851234Y29694430D02*
X73799918Y29797061D01*
X73799918Y29797061D02*
X73748602Y29848377D01*
X73748602Y29848377D02*
X73645971Y29899693D01*
X73645971Y29899693D02*
X73594655Y29899693D01*
X72850576Y29668772D02*
X72747945Y29771403D01*
X72747945Y29771403D02*
X72722287Y29848377D01*
X72722287Y29848377D02*
X72722287Y29899693D01*
X72722287Y29899693D02*
X72747945Y30027982D01*
X72747945Y30027982D02*
X72824919Y30156271D01*
X72824919Y30156271D02*
X73030182Y30361534D01*
X73030182Y30361534D02*
X73107155Y30387192D01*
X73107155Y30387192D02*
X73158471Y30387192D01*
X73158471Y30387192D02*
X73235445Y30361534D01*
X73235445Y30361534D02*
X73338076Y30258903D01*
X73338076Y30258903D02*
X73363734Y30181929D01*
X73363734Y30181929D02*
X73363734Y30130613D01*
X73363734Y30130613D02*
X73338076Y30053640D01*
X73338076Y30053640D02*
X73209787Y29925350D01*
X73209787Y29925350D02*
X73132813Y29899693D01*
X73132813Y29899693D02*
X73081497Y29899693D01*
X73081497Y29899693D02*
X73004524Y29925350D01*
X73004524Y29925350D02*
X72901892Y30027982D01*
X72901892Y30027982D02*
X72876234Y30104956D01*
X72876234Y30104956D02*
X72876234Y30156271D01*
X72876234Y30156271D02*
X72901892Y30233245D01*
X72953208Y30643771D02*
X72593998Y31002981D01*
X72593998Y31002981D02*
X72286103Y30233245D01*
X81594964Y34159797D02*
X81646280Y34159797D01*
X81646280Y34159797D02*
X81748912Y34211113D01*
X81748912Y34211113D02*
X81800227Y34262428D01*
X81800227Y34262428D02*
X81851543Y34365060D01*
X81851543Y34365060D02*
X81851543Y34467691D01*
X81851543Y34467691D02*
X81825885Y34544665D01*
X81825885Y34544665D02*
X81748912Y34672954D01*
X81748912Y34672954D02*
X81671938Y34749928D01*
X81671938Y34749928D02*
X81543649Y34826902D01*
X81543649Y34826902D02*
X81466675Y34852560D01*
X81466675Y34852560D02*
X81364043Y34852560D01*
X81364043Y34852560D02*
X81261412Y34801244D01*
X81261412Y34801244D02*
X81210096Y34749928D01*
X81210096Y34749928D02*
X81158780Y34647297D01*
X81158780Y34647297D02*
X81158780Y34595981D01*
X81389701Y33851902D02*
X81287070Y33749271D01*
X81287070Y33749271D02*
X81210096Y33723613D01*
X81210096Y33723613D02*
X81158780Y33723613D01*
X81158780Y33723613D02*
X81030491Y33749271D01*
X81030491Y33749271D02*
X80902202Y33826245D01*
X80902202Y33826245D02*
X80696939Y34031508D01*
X80696939Y34031508D02*
X80671281Y34108481D01*
X80671281Y34108481D02*
X80671281Y34159797D01*
X80671281Y34159797D02*
X80696939Y34236771D01*
X80696939Y34236771D02*
X80799570Y34339402D01*
X80799570Y34339402D02*
X80876544Y34365060D01*
X80876544Y34365060D02*
X80927860Y34365060D01*
X80927860Y34365060D02*
X81004833Y34339402D01*
X81004833Y34339402D02*
X81133123Y34211113D01*
X81133123Y34211113D02*
X81158780Y34134139D01*
X81158780Y34134139D02*
X81158780Y34082823D01*
X81158780Y34082823D02*
X81133123Y34005850D01*
X81133123Y34005850D02*
X81030491Y33903218D01*
X81030491Y33903218D02*
X80953517Y33877560D01*
X80953517Y33877560D02*
X80902202Y33877560D01*
X80902202Y33877560D02*
X80825228Y33903218D01*
X80132466Y33672298D02*
X80235097Y33774929D01*
X80235097Y33774929D02*
X80312071Y33800587D01*
X80312071Y33800587D02*
X80363387Y33800587D01*
X80363387Y33800587D02*
X80491676Y33774929D01*
X80491676Y33774929D02*
X80619965Y33697955D01*
X80619965Y33697955D02*
X80825228Y33492692D01*
X80825228Y33492692D02*
X80850886Y33415719D01*
X80850886Y33415719D02*
X80850886Y33364403D01*
X80850886Y33364403D02*
X80825228Y33287429D01*
X80825228Y33287429D02*
X80722597Y33184798D01*
X80722597Y33184798D02*
X80645623Y33159140D01*
X80645623Y33159140D02*
X80594307Y33159140D01*
X80594307Y33159140D02*
X80517334Y33184798D01*
X80517334Y33184798D02*
X80389044Y33313087D01*
X80389044Y33313087D02*
X80363387Y33390061D01*
X80363387Y33390061D02*
X80363387Y33441377D01*
X80363387Y33441377D02*
X80389044Y33518350D01*
X80389044Y33518350D02*
X80491676Y33620982D01*
X80491676Y33620982D02*
X80568650Y33646640D01*
X80568650Y33646640D02*
X80619965Y33646640D01*
X80619965Y33646640D02*
X80696939Y33620982D01*
X85303364Y30273597D02*
X85354680Y30273597D01*
X85354680Y30273597D02*
X85457312Y30324913D01*
X85457312Y30324913D02*
X85508627Y30376228D01*
X85508627Y30376228D02*
X85559943Y30478860D01*
X85559943Y30478860D02*
X85559943Y30581491D01*
X85559943Y30581491D02*
X85534285Y30658465D01*
X85534285Y30658465D02*
X85457312Y30786754D01*
X85457312Y30786754D02*
X85380338Y30863728D01*
X85380338Y30863728D02*
X85252049Y30940702D01*
X85252049Y30940702D02*
X85175075Y30966360D01*
X85175075Y30966360D02*
X85072443Y30966360D01*
X85072443Y30966360D02*
X84969812Y30915044D01*
X84969812Y30915044D02*
X84918496Y30863728D01*
X84918496Y30863728D02*
X84867180Y30761097D01*
X84867180Y30761097D02*
X84867180Y30709781D01*
X85098101Y29965702D02*
X84995470Y29863071D01*
X84995470Y29863071D02*
X84918496Y29837413D01*
X84918496Y29837413D02*
X84867180Y29837413D01*
X84867180Y29837413D02*
X84738891Y29863071D01*
X84738891Y29863071D02*
X84610602Y29940045D01*
X84610602Y29940045D02*
X84405339Y30145308D01*
X84405339Y30145308D02*
X84379681Y30222281D01*
X84379681Y30222281D02*
X84379681Y30273597D01*
X84379681Y30273597D02*
X84405339Y30350571D01*
X84405339Y30350571D02*
X84507970Y30453202D01*
X84507970Y30453202D02*
X84584944Y30478860D01*
X84584944Y30478860D02*
X84636260Y30478860D01*
X84636260Y30478860D02*
X84713233Y30453202D01*
X84713233Y30453202D02*
X84841523Y30324913D01*
X84841523Y30324913D02*
X84867180Y30247939D01*
X84867180Y30247939D02*
X84867180Y30196623D01*
X84867180Y30196623D02*
X84841523Y30119650D01*
X84841523Y30119650D02*
X84738891Y30017018D01*
X84738891Y30017018D02*
X84661917Y29991360D01*
X84661917Y29991360D02*
X84610602Y29991360D01*
X84610602Y29991360D02*
X84533628Y30017018D01*
X83815208Y29760440D02*
X84071787Y30017018D01*
X84071787Y30017018D02*
X84354023Y29786098D01*
X84354023Y29786098D02*
X84302707Y29786098D01*
X84302707Y29786098D02*
X84225734Y29760440D01*
X84225734Y29760440D02*
X84097444Y29632150D01*
X84097444Y29632150D02*
X84071787Y29555177D01*
X84071787Y29555177D02*
X84071787Y29503861D01*
X84071787Y29503861D02*
X84097444Y29426887D01*
X84097444Y29426887D02*
X84225734Y29298598D01*
X84225734Y29298598D02*
X84302707Y29272940D01*
X84302707Y29272940D02*
X84354023Y29272940D01*
X84354023Y29272940D02*
X84430997Y29298598D01*
X84430997Y29298598D02*
X84559286Y29426887D01*
X84559286Y29426887D02*
X84584944Y29503861D01*
X84584944Y29503861D02*
X84584944Y29555177D01*
X87513164Y27911397D02*
X87564480Y27911397D01*
X87564480Y27911397D02*
X87667112Y27962713D01*
X87667112Y27962713D02*
X87718427Y28014028D01*
X87718427Y28014028D02*
X87769743Y28116660D01*
X87769743Y28116660D02*
X87769743Y28219291D01*
X87769743Y28219291D02*
X87744085Y28296265D01*
X87744085Y28296265D02*
X87667112Y28424554D01*
X87667112Y28424554D02*
X87590138Y28501528D01*
X87590138Y28501528D02*
X87461849Y28578502D01*
X87461849Y28578502D02*
X87384875Y28604160D01*
X87384875Y28604160D02*
X87282243Y28604160D01*
X87282243Y28604160D02*
X87179612Y28552844D01*
X87179612Y28552844D02*
X87128296Y28501528D01*
X87128296Y28501528D02*
X87076980Y28398897D01*
X87076980Y28398897D02*
X87076980Y28347581D01*
X87307901Y27603502D02*
X87205270Y27500871D01*
X87205270Y27500871D02*
X87128296Y27475213D01*
X87128296Y27475213D02*
X87076980Y27475213D01*
X87076980Y27475213D02*
X86948691Y27500871D01*
X86948691Y27500871D02*
X86820402Y27577845D01*
X86820402Y27577845D02*
X86615139Y27783108D01*
X86615139Y27783108D02*
X86589481Y27860081D01*
X86589481Y27860081D02*
X86589481Y27911397D01*
X86589481Y27911397D02*
X86615139Y27988371D01*
X86615139Y27988371D02*
X86717770Y28091002D01*
X86717770Y28091002D02*
X86794744Y28116660D01*
X86794744Y28116660D02*
X86846060Y28116660D01*
X86846060Y28116660D02*
X86923033Y28091002D01*
X86923033Y28091002D02*
X87051323Y27962713D01*
X87051323Y27962713D02*
X87076980Y27885739D01*
X87076980Y27885739D02*
X87076980Y27834423D01*
X87076980Y27834423D02*
X87051323Y27757450D01*
X87051323Y27757450D02*
X86948691Y27654818D01*
X86948691Y27654818D02*
X86871717Y27629160D01*
X86871717Y27629160D02*
X86820402Y27629160D01*
X86820402Y27629160D02*
X86743428Y27654818D01*
X86230271Y27244292D02*
X86589481Y26885082D01*
X86153297Y27577845D02*
X86666455Y27321266D01*
X86666455Y27321266D02*
X86332902Y26987714D01*
X88058597Y16474435D02*
X88058597Y16423119D01*
X88058597Y16423119D02*
X88109913Y16320487D01*
X88109913Y16320487D02*
X88161228Y16269172D01*
X88161228Y16269172D02*
X88263860Y16217856D01*
X88263860Y16217856D02*
X88366491Y16217856D01*
X88366491Y16217856D02*
X88443465Y16243514D01*
X88443465Y16243514D02*
X88571754Y16320487D01*
X88571754Y16320487D02*
X88648728Y16397461D01*
X88648728Y16397461D02*
X88725702Y16525750D01*
X88725702Y16525750D02*
X88751360Y16602724D01*
X88751360Y16602724D02*
X88751360Y16705356D01*
X88751360Y16705356D02*
X88700044Y16807987D01*
X88700044Y16807987D02*
X88648728Y16859303D01*
X88648728Y16859303D02*
X88546097Y16910619D01*
X88546097Y16910619D02*
X88494781Y16910619D01*
X87750702Y16679698D02*
X87648071Y16782329D01*
X87648071Y16782329D02*
X87622413Y16859303D01*
X87622413Y16859303D02*
X87622413Y16910619D01*
X87622413Y16910619D02*
X87648071Y17038908D01*
X87648071Y17038908D02*
X87725045Y17167197D01*
X87725045Y17167197D02*
X87930308Y17372460D01*
X87930308Y17372460D02*
X88007281Y17398118D01*
X88007281Y17398118D02*
X88058597Y17398118D01*
X88058597Y17398118D02*
X88135571Y17372460D01*
X88135571Y17372460D02*
X88238202Y17269829D01*
X88238202Y17269829D02*
X88263860Y17192855D01*
X88263860Y17192855D02*
X88263860Y17141539D01*
X88263860Y17141539D02*
X88238202Y17064566D01*
X88238202Y17064566D02*
X88109913Y16936276D01*
X88109913Y16936276D02*
X88032939Y16910619D01*
X88032939Y16910619D02*
X87981623Y16910619D01*
X87981623Y16910619D02*
X87904650Y16936276D01*
X87904650Y16936276D02*
X87802018Y17038908D01*
X87802018Y17038908D02*
X87776360Y17115882D01*
X87776360Y17115882D02*
X87776360Y17167197D01*
X87776360Y17167197D02*
X87802018Y17244171D01*
X87776361Y17629039D02*
X87776361Y17680355D01*
X87776361Y17680355D02*
X87750703Y17757328D01*
X87750703Y17757328D02*
X87622413Y17885618D01*
X87622413Y17885618D02*
X87545440Y17911275D01*
X87545440Y17911275D02*
X87494124Y17911275D01*
X87494124Y17911275D02*
X87417150Y17885618D01*
X87417150Y17885618D02*
X87365835Y17834302D01*
X87365835Y17834302D02*
X87314519Y17731670D01*
X87314519Y17731670D02*
X87314519Y17115881D01*
X87314519Y17115881D02*
X86980966Y17449434D01*
X120952019Y-3510143D02*
X120988305Y-3473857D01*
X120988305Y-3473857D02*
X121024590Y-3365000D01*
X121024590Y-3365000D02*
X121024590Y-3292428D01*
X121024590Y-3292428D02*
X120988305Y-3183571D01*
X120988305Y-3183571D02*
X120915733Y-3111000D01*
X120915733Y-3111000D02*
X120843162Y-3074714D01*
X120843162Y-3074714D02*
X120698019Y-3038428D01*
X120698019Y-3038428D02*
X120589162Y-3038428D01*
X120589162Y-3038428D02*
X120444019Y-3074714D01*
X120444019Y-3074714D02*
X120371447Y-3111000D01*
X120371447Y-3111000D02*
X120298876Y-3183571D01*
X120298876Y-3183571D02*
X120262590Y-3292428D01*
X120262590Y-3292428D02*
X120262590Y-3365000D01*
X120262590Y-3365000D02*
X120298876Y-3473857D01*
X120298876Y-3473857D02*
X120335162Y-3510143D01*
X120262590Y-4163286D02*
X120262590Y-4018143D01*
X120262590Y-4018143D02*
X120298876Y-3945571D01*
X120298876Y-3945571D02*
X120335162Y-3909286D01*
X120335162Y-3909286D02*
X120444019Y-3836714D01*
X120444019Y-3836714D02*
X120589162Y-3800428D01*
X120589162Y-3800428D02*
X120879447Y-3800428D01*
X120879447Y-3800428D02*
X120952019Y-3836714D01*
X120952019Y-3836714D02*
X120988305Y-3873000D01*
X120988305Y-3873000D02*
X121024590Y-3945571D01*
X121024590Y-3945571D02*
X121024590Y-4090714D01*
X121024590Y-4090714D02*
X120988305Y-4163286D01*
X120988305Y-4163286D02*
X120952019Y-4199571D01*
X120952019Y-4199571D02*
X120879447Y-4235857D01*
X120879447Y-4235857D02*
X120698019Y-4235857D01*
X120698019Y-4235857D02*
X120625447Y-4199571D01*
X120625447Y-4199571D02*
X120589162Y-4163286D01*
X120589162Y-4163286D02*
X120552876Y-4090714D01*
X120552876Y-4090714D02*
X120552876Y-3945571D01*
X120552876Y-3945571D02*
X120589162Y-3873000D01*
X120589162Y-3873000D02*
X120625447Y-3836714D01*
X120625447Y-3836714D02*
X120698019Y-3800428D01*
X120262590Y-4707571D02*
X120262590Y-4780142D01*
X120262590Y-4780142D02*
X120298876Y-4852714D01*
X120298876Y-4852714D02*
X120335162Y-4889000D01*
X120335162Y-4889000D02*
X120407733Y-4925285D01*
X120407733Y-4925285D02*
X120552876Y-4961571D01*
X120552876Y-4961571D02*
X120734305Y-4961571D01*
X120734305Y-4961571D02*
X120879447Y-4925285D01*
X120879447Y-4925285D02*
X120952019Y-4889000D01*
X120952019Y-4889000D02*
X120988305Y-4852714D01*
X120988305Y-4852714D02*
X121024590Y-4780142D01*
X121024590Y-4780142D02*
X121024590Y-4707571D01*
X121024590Y-4707571D02*
X120988305Y-4635000D01*
X120988305Y-4635000D02*
X120952019Y-4598714D01*
X120952019Y-4598714D02*
X120879447Y-4562428D01*
X120879447Y-4562428D02*
X120734305Y-4526142D01*
X120734305Y-4526142D02*
X120552876Y-4526142D01*
X120552876Y-4526142D02*
X120407733Y-4562428D01*
X120407733Y-4562428D02*
X120335162Y-4598714D01*
X120335162Y-4598714D02*
X120298876Y-4635000D01*
X120298876Y-4635000D02*
X120262590Y-4707571D01*
X116934219Y-3510143D02*
X116970505Y-3473857D01*
X116970505Y-3473857D02*
X117006790Y-3365000D01*
X117006790Y-3365000D02*
X117006790Y-3292428D01*
X117006790Y-3292428D02*
X116970505Y-3183571D01*
X116970505Y-3183571D02*
X116897933Y-3111000D01*
X116897933Y-3111000D02*
X116825362Y-3074714D01*
X116825362Y-3074714D02*
X116680219Y-3038428D01*
X116680219Y-3038428D02*
X116571362Y-3038428D01*
X116571362Y-3038428D02*
X116426219Y-3074714D01*
X116426219Y-3074714D02*
X116353647Y-3111000D01*
X116353647Y-3111000D02*
X116281076Y-3183571D01*
X116281076Y-3183571D02*
X116244790Y-3292428D01*
X116244790Y-3292428D02*
X116244790Y-3365000D01*
X116244790Y-3365000D02*
X116281076Y-3473857D01*
X116281076Y-3473857D02*
X116317362Y-3510143D01*
X116244790Y-4199571D02*
X116244790Y-3836714D01*
X116244790Y-3836714D02*
X116607647Y-3800428D01*
X116607647Y-3800428D02*
X116571362Y-3836714D01*
X116571362Y-3836714D02*
X116535076Y-3909286D01*
X116535076Y-3909286D02*
X116535076Y-4090714D01*
X116535076Y-4090714D02*
X116571362Y-4163286D01*
X116571362Y-4163286D02*
X116607647Y-4199571D01*
X116607647Y-4199571D02*
X116680219Y-4235857D01*
X116680219Y-4235857D02*
X116861647Y-4235857D01*
X116861647Y-4235857D02*
X116934219Y-4199571D01*
X116934219Y-4199571D02*
X116970505Y-4163286D01*
X116970505Y-4163286D02*
X117006790Y-4090714D01*
X117006790Y-4090714D02*
X117006790Y-3909286D01*
X117006790Y-3909286D02*
X116970505Y-3836714D01*
X116970505Y-3836714D02*
X116934219Y-3800428D01*
X117006790Y-4598714D02*
X117006790Y-4743857D01*
X117006790Y-4743857D02*
X116970505Y-4816428D01*
X116970505Y-4816428D02*
X116934219Y-4852714D01*
X116934219Y-4852714D02*
X116825362Y-4925285D01*
X116825362Y-4925285D02*
X116680219Y-4961571D01*
X116680219Y-4961571D02*
X116389933Y-4961571D01*
X116389933Y-4961571D02*
X116317362Y-4925285D01*
X116317362Y-4925285D02*
X116281076Y-4889000D01*
X116281076Y-4889000D02*
X116244790Y-4816428D01*
X116244790Y-4816428D02*
X116244790Y-4671285D01*
X116244790Y-4671285D02*
X116281076Y-4598714D01*
X116281076Y-4598714D02*
X116317362Y-4562428D01*
X116317362Y-4562428D02*
X116389933Y-4526142D01*
X116389933Y-4526142D02*
X116571362Y-4526142D01*
X116571362Y-4526142D02*
X116643933Y-4562428D01*
X116643933Y-4562428D02*
X116680219Y-4598714D01*
X116680219Y-4598714D02*
X116716505Y-4671285D01*
X116716505Y-4671285D02*
X116716505Y-4816428D01*
X116716505Y-4816428D02*
X116680219Y-4889000D01*
X116680219Y-4889000D02*
X116643933Y-4925285D01*
X116643933Y-4925285D02*
X116571362Y-4961571D01*
X109898419Y-3510143D02*
X109934705Y-3473857D01*
X109934705Y-3473857D02*
X109970990Y-3365000D01*
X109970990Y-3365000D02*
X109970990Y-3292428D01*
X109970990Y-3292428D02*
X109934705Y-3183571D01*
X109934705Y-3183571D02*
X109862133Y-3111000D01*
X109862133Y-3111000D02*
X109789562Y-3074714D01*
X109789562Y-3074714D02*
X109644419Y-3038428D01*
X109644419Y-3038428D02*
X109535562Y-3038428D01*
X109535562Y-3038428D02*
X109390419Y-3074714D01*
X109390419Y-3074714D02*
X109317847Y-3111000D01*
X109317847Y-3111000D02*
X109245276Y-3183571D01*
X109245276Y-3183571D02*
X109208990Y-3292428D01*
X109208990Y-3292428D02*
X109208990Y-3365000D01*
X109208990Y-3365000D02*
X109245276Y-3473857D01*
X109245276Y-3473857D02*
X109281562Y-3510143D01*
X109208990Y-4199571D02*
X109208990Y-3836714D01*
X109208990Y-3836714D02*
X109571847Y-3800428D01*
X109571847Y-3800428D02*
X109535562Y-3836714D01*
X109535562Y-3836714D02*
X109499276Y-3909286D01*
X109499276Y-3909286D02*
X109499276Y-4090714D01*
X109499276Y-4090714D02*
X109535562Y-4163286D01*
X109535562Y-4163286D02*
X109571847Y-4199571D01*
X109571847Y-4199571D02*
X109644419Y-4235857D01*
X109644419Y-4235857D02*
X109825847Y-4235857D01*
X109825847Y-4235857D02*
X109898419Y-4199571D01*
X109898419Y-4199571D02*
X109934705Y-4163286D01*
X109934705Y-4163286D02*
X109970990Y-4090714D01*
X109970990Y-4090714D02*
X109970990Y-3909286D01*
X109970990Y-3909286D02*
X109934705Y-3836714D01*
X109934705Y-3836714D02*
X109898419Y-3800428D01*
X109208990Y-4489857D02*
X109208990Y-4997857D01*
X109208990Y-4997857D02*
X109970990Y-4671285D01*
X52875419Y-4107543D02*
X52911705Y-4071257D01*
X52911705Y-4071257D02*
X52947990Y-3962400D01*
X52947990Y-3962400D02*
X52947990Y-3889828D01*
X52947990Y-3889828D02*
X52911705Y-3780971D01*
X52911705Y-3780971D02*
X52839133Y-3708400D01*
X52839133Y-3708400D02*
X52766562Y-3672114D01*
X52766562Y-3672114D02*
X52621419Y-3635828D01*
X52621419Y-3635828D02*
X52512562Y-3635828D01*
X52512562Y-3635828D02*
X52367419Y-3672114D01*
X52367419Y-3672114D02*
X52294847Y-3708400D01*
X52294847Y-3708400D02*
X52222276Y-3780971D01*
X52222276Y-3780971D02*
X52185990Y-3889828D01*
X52185990Y-3889828D02*
X52185990Y-3962400D01*
X52185990Y-3962400D02*
X52222276Y-4071257D01*
X52222276Y-4071257D02*
X52258562Y-4107543D01*
X52185990Y-4796971D02*
X52185990Y-4434114D01*
X52185990Y-4434114D02*
X52548847Y-4397828D01*
X52548847Y-4397828D02*
X52512562Y-4434114D01*
X52512562Y-4434114D02*
X52476276Y-4506686D01*
X52476276Y-4506686D02*
X52476276Y-4688114D01*
X52476276Y-4688114D02*
X52512562Y-4760686D01*
X52512562Y-4760686D02*
X52548847Y-4796971D01*
X52548847Y-4796971D02*
X52621419Y-4833257D01*
X52621419Y-4833257D02*
X52802847Y-4833257D01*
X52802847Y-4833257D02*
X52875419Y-4796971D01*
X52875419Y-4796971D02*
X52911705Y-4760686D01*
X52911705Y-4760686D02*
X52947990Y-4688114D01*
X52947990Y-4688114D02*
X52947990Y-4506686D01*
X52947990Y-4506686D02*
X52911705Y-4434114D01*
X52911705Y-4434114D02*
X52875419Y-4397828D01*
X52947990Y-5558971D02*
X52947990Y-5123542D01*
X52947990Y-5341257D02*
X52185990Y-5341257D01*
X52185990Y-5341257D02*
X52294847Y-5268685D01*
X52294847Y-5268685D02*
X52367419Y-5196114D01*
X52367419Y-5196114D02*
X52403705Y-5123542D01*
X103980219Y-3497943D02*
X104016505Y-3461657D01*
X104016505Y-3461657D02*
X104052790Y-3352800D01*
X104052790Y-3352800D02*
X104052790Y-3280228D01*
X104052790Y-3280228D02*
X104016505Y-3171371D01*
X104016505Y-3171371D02*
X103943933Y-3098800D01*
X103943933Y-3098800D02*
X103871362Y-3062514D01*
X103871362Y-3062514D02*
X103726219Y-3026228D01*
X103726219Y-3026228D02*
X103617362Y-3026228D01*
X103617362Y-3026228D02*
X103472219Y-3062514D01*
X103472219Y-3062514D02*
X103399647Y-3098800D01*
X103399647Y-3098800D02*
X103327076Y-3171371D01*
X103327076Y-3171371D02*
X103290790Y-3280228D01*
X103290790Y-3280228D02*
X103290790Y-3352800D01*
X103290790Y-3352800D02*
X103327076Y-3461657D01*
X103327076Y-3461657D02*
X103363362Y-3497943D01*
X103544790Y-4151086D02*
X104052790Y-4151086D01*
X103254505Y-3969657D02*
X103798790Y-3788228D01*
X103798790Y-3788228D02*
X103798790Y-4259943D01*
X103363362Y-4513942D02*
X103327076Y-4550228D01*
X103327076Y-4550228D02*
X103290790Y-4622800D01*
X103290790Y-4622800D02*
X103290790Y-4804228D01*
X103290790Y-4804228D02*
X103327076Y-4876800D01*
X103327076Y-4876800D02*
X103363362Y-4913085D01*
X103363362Y-4913085D02*
X103435933Y-4949371D01*
X103435933Y-4949371D02*
X103508505Y-4949371D01*
X103508505Y-4949371D02*
X103617362Y-4913085D01*
X103617362Y-4913085D02*
X104052790Y-4477657D01*
X104052790Y-4477657D02*
X104052790Y-4949371D01*
X94836219Y-3574143D02*
X94872505Y-3537857D01*
X94872505Y-3537857D02*
X94908790Y-3429000D01*
X94908790Y-3429000D02*
X94908790Y-3356428D01*
X94908790Y-3356428D02*
X94872505Y-3247571D01*
X94872505Y-3247571D02*
X94799933Y-3175000D01*
X94799933Y-3175000D02*
X94727362Y-3138714D01*
X94727362Y-3138714D02*
X94582219Y-3102428D01*
X94582219Y-3102428D02*
X94473362Y-3102428D01*
X94473362Y-3102428D02*
X94328219Y-3138714D01*
X94328219Y-3138714D02*
X94255647Y-3175000D01*
X94255647Y-3175000D02*
X94183076Y-3247571D01*
X94183076Y-3247571D02*
X94146790Y-3356428D01*
X94146790Y-3356428D02*
X94146790Y-3429000D01*
X94146790Y-3429000D02*
X94183076Y-3537857D01*
X94183076Y-3537857D02*
X94219362Y-3574143D01*
X94400790Y-4227286D02*
X94908790Y-4227286D01*
X94110505Y-4045857D02*
X94654790Y-3864428D01*
X94654790Y-3864428D02*
X94654790Y-4336143D01*
X94146790Y-4771571D02*
X94146790Y-4844142D01*
X94146790Y-4844142D02*
X94183076Y-4916714D01*
X94183076Y-4916714D02*
X94219362Y-4953000D01*
X94219362Y-4953000D02*
X94291933Y-4989285D01*
X94291933Y-4989285D02*
X94437076Y-5025571D01*
X94437076Y-5025571D02*
X94618505Y-5025571D01*
X94618505Y-5025571D02*
X94763647Y-4989285D01*
X94763647Y-4989285D02*
X94836219Y-4953000D01*
X94836219Y-4953000D02*
X94872505Y-4916714D01*
X94872505Y-4916714D02*
X94908790Y-4844142D01*
X94908790Y-4844142D02*
X94908790Y-4771571D01*
X94908790Y-4771571D02*
X94872505Y-4699000D01*
X94872505Y-4699000D02*
X94836219Y-4662714D01*
X94836219Y-4662714D02*
X94763647Y-4626428D01*
X94763647Y-4626428D02*
X94618505Y-4590142D01*
X94618505Y-4590142D02*
X94437076Y-4590142D01*
X94437076Y-4590142D02*
X94291933Y-4626428D01*
X94291933Y-4626428D02*
X94219362Y-4662714D01*
X94219362Y-4662714D02*
X94183076Y-4699000D01*
X94183076Y-4699000D02*
X94146790Y-4771571D01*
X91491019Y-3624943D02*
X91527305Y-3588657D01*
X91527305Y-3588657D02*
X91563590Y-3479800D01*
X91563590Y-3479800D02*
X91563590Y-3407228D01*
X91563590Y-3407228D02*
X91527305Y-3298371D01*
X91527305Y-3298371D02*
X91454733Y-3225800D01*
X91454733Y-3225800D02*
X91382162Y-3189514D01*
X91382162Y-3189514D02*
X91237019Y-3153228D01*
X91237019Y-3153228D02*
X91128162Y-3153228D01*
X91128162Y-3153228D02*
X90983019Y-3189514D01*
X90983019Y-3189514D02*
X90910447Y-3225800D01*
X90910447Y-3225800D02*
X90837876Y-3298371D01*
X90837876Y-3298371D02*
X90801590Y-3407228D01*
X90801590Y-3407228D02*
X90801590Y-3479800D01*
X90801590Y-3479800D02*
X90837876Y-3588657D01*
X90837876Y-3588657D02*
X90874162Y-3624943D01*
X90801590Y-3878943D02*
X90801590Y-4350657D01*
X90801590Y-4350657D02*
X91091876Y-4096657D01*
X91091876Y-4096657D02*
X91091876Y-4205514D01*
X91091876Y-4205514D02*
X91128162Y-4278086D01*
X91128162Y-4278086D02*
X91164447Y-4314371D01*
X91164447Y-4314371D02*
X91237019Y-4350657D01*
X91237019Y-4350657D02*
X91418447Y-4350657D01*
X91418447Y-4350657D02*
X91491019Y-4314371D01*
X91491019Y-4314371D02*
X91527305Y-4278086D01*
X91527305Y-4278086D02*
X91563590Y-4205514D01*
X91563590Y-4205514D02*
X91563590Y-3987800D01*
X91563590Y-3987800D02*
X91527305Y-3915228D01*
X91527305Y-3915228D02*
X91491019Y-3878943D01*
X91128162Y-4786085D02*
X91091876Y-4713514D01*
X91091876Y-4713514D02*
X91055590Y-4677228D01*
X91055590Y-4677228D02*
X90983019Y-4640942D01*
X90983019Y-4640942D02*
X90946733Y-4640942D01*
X90946733Y-4640942D02*
X90874162Y-4677228D01*
X90874162Y-4677228D02*
X90837876Y-4713514D01*
X90837876Y-4713514D02*
X90801590Y-4786085D01*
X90801590Y-4786085D02*
X90801590Y-4931228D01*
X90801590Y-4931228D02*
X90837876Y-5003800D01*
X90837876Y-5003800D02*
X90874162Y-5040085D01*
X90874162Y-5040085D02*
X90946733Y-5076371D01*
X90946733Y-5076371D02*
X90983019Y-5076371D01*
X90983019Y-5076371D02*
X91055590Y-5040085D01*
X91055590Y-5040085D02*
X91091876Y-5003800D01*
X91091876Y-5003800D02*
X91128162Y-4931228D01*
X91128162Y-4931228D02*
X91128162Y-4786085D01*
X91128162Y-4786085D02*
X91164447Y-4713514D01*
X91164447Y-4713514D02*
X91200733Y-4677228D01*
X91200733Y-4677228D02*
X91273305Y-4640942D01*
X91273305Y-4640942D02*
X91418447Y-4640942D01*
X91418447Y-4640942D02*
X91491019Y-4677228D01*
X91491019Y-4677228D02*
X91527305Y-4713514D01*
X91527305Y-4713514D02*
X91563590Y-4786085D01*
X91563590Y-4786085D02*
X91563590Y-4931228D01*
X91563590Y-4931228D02*
X91527305Y-5003800D01*
X91527305Y-5003800D02*
X91491019Y-5040085D01*
X91491019Y-5040085D02*
X91418447Y-5076371D01*
X91418447Y-5076371D02*
X91273305Y-5076371D01*
X91273305Y-5076371D02*
X91200733Y-5040085D01*
X91200733Y-5040085D02*
X91164447Y-5003800D01*
X91164447Y-5003800D02*
X91128162Y-4931228D01*
X60774819Y-3828143D02*
X60811105Y-3791857D01*
X60811105Y-3791857D02*
X60847390Y-3683000D01*
X60847390Y-3683000D02*
X60847390Y-3610428D01*
X60847390Y-3610428D02*
X60811105Y-3501571D01*
X60811105Y-3501571D02*
X60738533Y-3429000D01*
X60738533Y-3429000D02*
X60665962Y-3392714D01*
X60665962Y-3392714D02*
X60520819Y-3356428D01*
X60520819Y-3356428D02*
X60411962Y-3356428D01*
X60411962Y-3356428D02*
X60266819Y-3392714D01*
X60266819Y-3392714D02*
X60194247Y-3429000D01*
X60194247Y-3429000D02*
X60121676Y-3501571D01*
X60121676Y-3501571D02*
X60085390Y-3610428D01*
X60085390Y-3610428D02*
X60085390Y-3683000D01*
X60085390Y-3683000D02*
X60121676Y-3791857D01*
X60121676Y-3791857D02*
X60157962Y-3828143D01*
X60157962Y-4118428D02*
X60121676Y-4154714D01*
X60121676Y-4154714D02*
X60085390Y-4227286D01*
X60085390Y-4227286D02*
X60085390Y-4408714D01*
X60085390Y-4408714D02*
X60121676Y-4481286D01*
X60121676Y-4481286D02*
X60157962Y-4517571D01*
X60157962Y-4517571D02*
X60230533Y-4553857D01*
X60230533Y-4553857D02*
X60303105Y-4553857D01*
X60303105Y-4553857D02*
X60411962Y-4517571D01*
X60411962Y-4517571D02*
X60847390Y-4082143D01*
X60847390Y-4082143D02*
X60847390Y-4553857D01*
X60085390Y-5207000D02*
X60085390Y-5061857D01*
X60085390Y-5061857D02*
X60121676Y-4989285D01*
X60121676Y-4989285D02*
X60157962Y-4953000D01*
X60157962Y-4953000D02*
X60266819Y-4880428D01*
X60266819Y-4880428D02*
X60411962Y-4844142D01*
X60411962Y-4844142D02*
X60702247Y-4844142D01*
X60702247Y-4844142D02*
X60774819Y-4880428D01*
X60774819Y-4880428D02*
X60811105Y-4916714D01*
X60811105Y-4916714D02*
X60847390Y-4989285D01*
X60847390Y-4989285D02*
X60847390Y-5134428D01*
X60847390Y-5134428D02*
X60811105Y-5207000D01*
X60811105Y-5207000D02*
X60774819Y-5243285D01*
X60774819Y-5243285D02*
X60702247Y-5279571D01*
X60702247Y-5279571D02*
X60520819Y-5279571D01*
X60520819Y-5279571D02*
X60448247Y-5243285D01*
X60448247Y-5243285D02*
X60411962Y-5207000D01*
X60411962Y-5207000D02*
X60375676Y-5134428D01*
X60375676Y-5134428D02*
X60375676Y-4989285D01*
X60375676Y-4989285D02*
X60411962Y-4916714D01*
X60411962Y-4916714D02*
X60448247Y-4880428D01*
X60448247Y-4880428D02*
X60520819Y-4844142D01*
X40861219Y14528799D02*
X40897505Y14565085D01*
X40897505Y14565085D02*
X40933790Y14673942D01*
X40933790Y14673942D02*
X40933790Y14746514D01*
X40933790Y14746514D02*
X40897505Y14855371D01*
X40897505Y14855371D02*
X40824933Y14927942D01*
X40824933Y14927942D02*
X40752362Y14964228D01*
X40752362Y14964228D02*
X40607219Y15000514D01*
X40607219Y15000514D02*
X40498362Y15000514D01*
X40498362Y15000514D02*
X40353219Y14964228D01*
X40353219Y14964228D02*
X40280647Y14927942D01*
X40280647Y14927942D02*
X40208076Y14855371D01*
X40208076Y14855371D02*
X40171790Y14746514D01*
X40171790Y14746514D02*
X40171790Y14673942D01*
X40171790Y14673942D02*
X40208076Y14565085D01*
X40208076Y14565085D02*
X40244362Y14528799D01*
X40171790Y14274799D02*
X40171790Y13766799D01*
X40171790Y13766799D02*
X40933790Y14093371D01*
X93876419Y-3599543D02*
X93912705Y-3563257D01*
X93912705Y-3563257D02*
X93948990Y-3454400D01*
X93948990Y-3454400D02*
X93948990Y-3381828D01*
X93948990Y-3381828D02*
X93912705Y-3272971D01*
X93912705Y-3272971D02*
X93840133Y-3200400D01*
X93840133Y-3200400D02*
X93767562Y-3164114D01*
X93767562Y-3164114D02*
X93622419Y-3127828D01*
X93622419Y-3127828D02*
X93513562Y-3127828D01*
X93513562Y-3127828D02*
X93368419Y-3164114D01*
X93368419Y-3164114D02*
X93295847Y-3200400D01*
X93295847Y-3200400D02*
X93223276Y-3272971D01*
X93223276Y-3272971D02*
X93186990Y-3381828D01*
X93186990Y-3381828D02*
X93186990Y-3454400D01*
X93186990Y-3454400D02*
X93223276Y-3563257D01*
X93223276Y-3563257D02*
X93259562Y-3599543D01*
X93440990Y-4252686D02*
X93948990Y-4252686D01*
X93150705Y-4071257D02*
X93694990Y-3889828D01*
X93694990Y-3889828D02*
X93694990Y-4361543D01*
X93186990Y-4579257D02*
X93186990Y-5050971D01*
X93186990Y-5050971D02*
X93477276Y-4796971D01*
X93477276Y-4796971D02*
X93477276Y-4905828D01*
X93477276Y-4905828D02*
X93513562Y-4978400D01*
X93513562Y-4978400D02*
X93549847Y-5014685D01*
X93549847Y-5014685D02*
X93622419Y-5050971D01*
X93622419Y-5050971D02*
X93803847Y-5050971D01*
X93803847Y-5050971D02*
X93876419Y-5014685D01*
X93876419Y-5014685D02*
X93912705Y-4978400D01*
X93912705Y-4978400D02*
X93948990Y-4905828D01*
X93948990Y-4905828D02*
X93948990Y-4688114D01*
X93948990Y-4688114D02*
X93912705Y-4615542D01*
X93912705Y-4615542D02*
X93876419Y-4579257D01*
X58514219Y-3777343D02*
X58550505Y-3741057D01*
X58550505Y-3741057D02*
X58586790Y-3632200D01*
X58586790Y-3632200D02*
X58586790Y-3559628D01*
X58586790Y-3559628D02*
X58550505Y-3450771D01*
X58550505Y-3450771D02*
X58477933Y-3378200D01*
X58477933Y-3378200D02*
X58405362Y-3341914D01*
X58405362Y-3341914D02*
X58260219Y-3305628D01*
X58260219Y-3305628D02*
X58151362Y-3305628D01*
X58151362Y-3305628D02*
X58006219Y-3341914D01*
X58006219Y-3341914D02*
X57933647Y-3378200D01*
X57933647Y-3378200D02*
X57861076Y-3450771D01*
X57861076Y-3450771D02*
X57824790Y-3559628D01*
X57824790Y-3559628D02*
X57824790Y-3632200D01*
X57824790Y-3632200D02*
X57861076Y-3741057D01*
X57861076Y-3741057D02*
X57897362Y-3777343D01*
X57897362Y-4067628D02*
X57861076Y-4103914D01*
X57861076Y-4103914D02*
X57824790Y-4176486D01*
X57824790Y-4176486D02*
X57824790Y-4357914D01*
X57824790Y-4357914D02*
X57861076Y-4430486D01*
X57861076Y-4430486D02*
X57897362Y-4466771D01*
X57897362Y-4466771D02*
X57969933Y-4503057D01*
X57969933Y-4503057D02*
X58042505Y-4503057D01*
X58042505Y-4503057D02*
X58151362Y-4466771D01*
X58151362Y-4466771D02*
X58586790Y-4031343D01*
X58586790Y-4031343D02*
X58586790Y-4503057D01*
X57824790Y-4757057D02*
X57824790Y-5265057D01*
X57824790Y-5265057D02*
X58586790Y-4938485D01*
X56126619Y-3363686D02*
X56162905Y-3327400D01*
X56162905Y-3327400D02*
X56199190Y-3218543D01*
X56199190Y-3218543D02*
X56199190Y-3145971D01*
X56199190Y-3145971D02*
X56162905Y-3037114D01*
X56162905Y-3037114D02*
X56090333Y-2964543D01*
X56090333Y-2964543D02*
X56017762Y-2928257D01*
X56017762Y-2928257D02*
X55872619Y-2891971D01*
X55872619Y-2891971D02*
X55763762Y-2891971D01*
X55763762Y-2891971D02*
X55618619Y-2928257D01*
X55618619Y-2928257D02*
X55546047Y-2964543D01*
X55546047Y-2964543D02*
X55473476Y-3037114D01*
X55473476Y-3037114D02*
X55437190Y-3145971D01*
X55437190Y-3145971D02*
X55437190Y-3218543D01*
X55437190Y-3218543D02*
X55473476Y-3327400D01*
X55473476Y-3327400D02*
X55509762Y-3363686D01*
X56199190Y-4089400D02*
X56199190Y-3653971D01*
X56199190Y-3871686D02*
X55437190Y-3871686D01*
X55437190Y-3871686D02*
X55546047Y-3799114D01*
X55546047Y-3799114D02*
X55618619Y-3726543D01*
X55618619Y-3726543D02*
X55654905Y-3653971D01*
X55437190Y-4343400D02*
X55437190Y-4851400D01*
X55437190Y-4851400D02*
X56199190Y-4524828D01*
X56199190Y-5540828D02*
X56199190Y-5105399D01*
X56199190Y-5323114D02*
X55437190Y-5323114D01*
X55437190Y-5323114D02*
X55546047Y-5250542D01*
X55546047Y-5250542D02*
X55618619Y-5177971D01*
X55618619Y-5177971D02*
X55654905Y-5105399D01*
X80522019Y-3760143D02*
X80558305Y-3723857D01*
X80558305Y-3723857D02*
X80594590Y-3615000D01*
X80594590Y-3615000D02*
X80594590Y-3542428D01*
X80594590Y-3542428D02*
X80558305Y-3433571D01*
X80558305Y-3433571D02*
X80485733Y-3361000D01*
X80485733Y-3361000D02*
X80413162Y-3324714D01*
X80413162Y-3324714D02*
X80268019Y-3288428D01*
X80268019Y-3288428D02*
X80159162Y-3288428D01*
X80159162Y-3288428D02*
X80014019Y-3324714D01*
X80014019Y-3324714D02*
X79941447Y-3361000D01*
X79941447Y-3361000D02*
X79868876Y-3433571D01*
X79868876Y-3433571D02*
X79832590Y-3542428D01*
X79832590Y-3542428D02*
X79832590Y-3615000D01*
X79832590Y-3615000D02*
X79868876Y-3723857D01*
X79868876Y-3723857D02*
X79905162Y-3760143D01*
X79832590Y-4413286D02*
X79832590Y-4268143D01*
X79832590Y-4268143D02*
X79868876Y-4195571D01*
X79868876Y-4195571D02*
X79905162Y-4159286D01*
X79905162Y-4159286D02*
X80014019Y-4086714D01*
X80014019Y-4086714D02*
X80159162Y-4050428D01*
X80159162Y-4050428D02*
X80449447Y-4050428D01*
X80449447Y-4050428D02*
X80522019Y-4086714D01*
X80522019Y-4086714D02*
X80558305Y-4123000D01*
X80558305Y-4123000D02*
X80594590Y-4195571D01*
X80594590Y-4195571D02*
X80594590Y-4340714D01*
X80594590Y-4340714D02*
X80558305Y-4413286D01*
X80558305Y-4413286D02*
X80522019Y-4449571D01*
X80522019Y-4449571D02*
X80449447Y-4485857D01*
X80449447Y-4485857D02*
X80268019Y-4485857D01*
X80268019Y-4485857D02*
X80195447Y-4449571D01*
X80195447Y-4449571D02*
X80159162Y-4413286D01*
X80159162Y-4413286D02*
X80122876Y-4340714D01*
X80122876Y-4340714D02*
X80122876Y-4195571D01*
X80122876Y-4195571D02*
X80159162Y-4123000D01*
X80159162Y-4123000D02*
X80195447Y-4086714D01*
X80195447Y-4086714D02*
X80268019Y-4050428D01*
X79905162Y-4776142D02*
X79868876Y-4812428D01*
X79868876Y-4812428D02*
X79832590Y-4885000D01*
X79832590Y-4885000D02*
X79832590Y-5066428D01*
X79832590Y-5066428D02*
X79868876Y-5139000D01*
X79868876Y-5139000D02*
X79905162Y-5175285D01*
X79905162Y-5175285D02*
X79977733Y-5211571D01*
X79977733Y-5211571D02*
X80050305Y-5211571D01*
X80050305Y-5211571D02*
X80159162Y-5175285D01*
X80159162Y-5175285D02*
X80594590Y-4739857D01*
X80594590Y-4739857D02*
X80594590Y-5211571D01*
X70376019Y-3802743D02*
X70412305Y-3766457D01*
X70412305Y-3766457D02*
X70448590Y-3657600D01*
X70448590Y-3657600D02*
X70448590Y-3585028D01*
X70448590Y-3585028D02*
X70412305Y-3476171D01*
X70412305Y-3476171D02*
X70339733Y-3403600D01*
X70339733Y-3403600D02*
X70267162Y-3367314D01*
X70267162Y-3367314D02*
X70122019Y-3331028D01*
X70122019Y-3331028D02*
X70013162Y-3331028D01*
X70013162Y-3331028D02*
X69868019Y-3367314D01*
X69868019Y-3367314D02*
X69795447Y-3403600D01*
X69795447Y-3403600D02*
X69722876Y-3476171D01*
X69722876Y-3476171D02*
X69686590Y-3585028D01*
X69686590Y-3585028D02*
X69686590Y-3657600D01*
X69686590Y-3657600D02*
X69722876Y-3766457D01*
X69722876Y-3766457D02*
X69759162Y-3802743D01*
X69686590Y-4455886D02*
X69686590Y-4310743D01*
X69686590Y-4310743D02*
X69722876Y-4238171D01*
X69722876Y-4238171D02*
X69759162Y-4201886D01*
X69759162Y-4201886D02*
X69868019Y-4129314D01*
X69868019Y-4129314D02*
X70013162Y-4093028D01*
X70013162Y-4093028D02*
X70303447Y-4093028D01*
X70303447Y-4093028D02*
X70376019Y-4129314D01*
X70376019Y-4129314D02*
X70412305Y-4165600D01*
X70412305Y-4165600D02*
X70448590Y-4238171D01*
X70448590Y-4238171D02*
X70448590Y-4383314D01*
X70448590Y-4383314D02*
X70412305Y-4455886D01*
X70412305Y-4455886D02*
X70376019Y-4492171D01*
X70376019Y-4492171D02*
X70303447Y-4528457D01*
X70303447Y-4528457D02*
X70122019Y-4528457D01*
X70122019Y-4528457D02*
X70049447Y-4492171D01*
X70049447Y-4492171D02*
X70013162Y-4455886D01*
X70013162Y-4455886D02*
X69976876Y-4383314D01*
X69976876Y-4383314D02*
X69976876Y-4238171D01*
X69976876Y-4238171D02*
X70013162Y-4165600D01*
X70013162Y-4165600D02*
X70049447Y-4129314D01*
X70049447Y-4129314D02*
X70122019Y-4093028D01*
X70448590Y-5254171D02*
X70448590Y-4818742D01*
X70448590Y-5036457D02*
X69686590Y-5036457D01*
X69686590Y-5036457D02*
X69795447Y-4963885D01*
X69795447Y-4963885D02*
X69868019Y-4891314D01*
X69868019Y-4891314D02*
X69904305Y-4818742D01*
X112311419Y-3548743D02*
X112347705Y-3512457D01*
X112347705Y-3512457D02*
X112383990Y-3403600D01*
X112383990Y-3403600D02*
X112383990Y-3331028D01*
X112383990Y-3331028D02*
X112347705Y-3222171D01*
X112347705Y-3222171D02*
X112275133Y-3149600D01*
X112275133Y-3149600D02*
X112202562Y-3113314D01*
X112202562Y-3113314D02*
X112057419Y-3077028D01*
X112057419Y-3077028D02*
X111948562Y-3077028D01*
X111948562Y-3077028D02*
X111803419Y-3113314D01*
X111803419Y-3113314D02*
X111730847Y-3149600D01*
X111730847Y-3149600D02*
X111658276Y-3222171D01*
X111658276Y-3222171D02*
X111621990Y-3331028D01*
X111621990Y-3331028D02*
X111621990Y-3403600D01*
X111621990Y-3403600D02*
X111658276Y-3512457D01*
X111658276Y-3512457D02*
X111694562Y-3548743D01*
X111621990Y-4238171D02*
X111621990Y-3875314D01*
X111621990Y-3875314D02*
X111984847Y-3839028D01*
X111984847Y-3839028D02*
X111948562Y-3875314D01*
X111948562Y-3875314D02*
X111912276Y-3947886D01*
X111912276Y-3947886D02*
X111912276Y-4129314D01*
X111912276Y-4129314D02*
X111948562Y-4201886D01*
X111948562Y-4201886D02*
X111984847Y-4238171D01*
X111984847Y-4238171D02*
X112057419Y-4274457D01*
X112057419Y-4274457D02*
X112238847Y-4274457D01*
X112238847Y-4274457D02*
X112311419Y-4238171D01*
X112311419Y-4238171D02*
X112347705Y-4201886D01*
X112347705Y-4201886D02*
X112383990Y-4129314D01*
X112383990Y-4129314D02*
X112383990Y-3947886D01*
X112383990Y-3947886D02*
X112347705Y-3875314D01*
X112347705Y-3875314D02*
X112311419Y-3839028D01*
X111621990Y-4528457D02*
X111621990Y-5000171D01*
X111621990Y-5000171D02*
X111912276Y-4746171D01*
X111912276Y-4746171D02*
X111912276Y-4855028D01*
X111912276Y-4855028D02*
X111948562Y-4927600D01*
X111948562Y-4927600D02*
X111984847Y-4963885D01*
X111984847Y-4963885D02*
X112057419Y-5000171D01*
X112057419Y-5000171D02*
X112238847Y-5000171D01*
X112238847Y-5000171D02*
X112311419Y-4963885D01*
X112311419Y-4963885D02*
X112347705Y-4927600D01*
X112347705Y-4927600D02*
X112383990Y-4855028D01*
X112383990Y-4855028D02*
X112383990Y-4637314D01*
X112383990Y-4637314D02*
X112347705Y-4564742D01*
X112347705Y-4564742D02*
X112311419Y-4528457D01*
X106596419Y-3548743D02*
X106632705Y-3512457D01*
X106632705Y-3512457D02*
X106668990Y-3403600D01*
X106668990Y-3403600D02*
X106668990Y-3331028D01*
X106668990Y-3331028D02*
X106632705Y-3222171D01*
X106632705Y-3222171D02*
X106560133Y-3149600D01*
X106560133Y-3149600D02*
X106487562Y-3113314D01*
X106487562Y-3113314D02*
X106342419Y-3077028D01*
X106342419Y-3077028D02*
X106233562Y-3077028D01*
X106233562Y-3077028D02*
X106088419Y-3113314D01*
X106088419Y-3113314D02*
X106015847Y-3149600D01*
X106015847Y-3149600D02*
X105943276Y-3222171D01*
X105943276Y-3222171D02*
X105906990Y-3331028D01*
X105906990Y-3331028D02*
X105906990Y-3403600D01*
X105906990Y-3403600D02*
X105943276Y-3512457D01*
X105943276Y-3512457D02*
X105979562Y-3548743D01*
X106160990Y-4201886D02*
X106668990Y-4201886D01*
X105870705Y-4020457D02*
X106414990Y-3839028D01*
X106414990Y-3839028D02*
X106414990Y-4310743D01*
X105906990Y-4963885D02*
X105906990Y-4601028D01*
X105906990Y-4601028D02*
X106269847Y-4564742D01*
X106269847Y-4564742D02*
X106233562Y-4601028D01*
X106233562Y-4601028D02*
X106197276Y-4673600D01*
X106197276Y-4673600D02*
X106197276Y-4855028D01*
X106197276Y-4855028D02*
X106233562Y-4927600D01*
X106233562Y-4927600D02*
X106269847Y-4963885D01*
X106269847Y-4963885D02*
X106342419Y-5000171D01*
X106342419Y-5000171D02*
X106523847Y-5000171D01*
X106523847Y-5000171D02*
X106596419Y-4963885D01*
X106596419Y-4963885D02*
X106632705Y-4927600D01*
X106632705Y-4927600D02*
X106668990Y-4855028D01*
X106668990Y-4855028D02*
X106668990Y-4673600D01*
X106668990Y-4673600D02*
X106632705Y-4601028D01*
X106632705Y-4601028D02*
X106596419Y-4564742D01*
X97071419Y-3287486D02*
X97107705Y-3251200D01*
X97107705Y-3251200D02*
X97143990Y-3142343D01*
X97143990Y-3142343D02*
X97143990Y-3069771D01*
X97143990Y-3069771D02*
X97107705Y-2960914D01*
X97107705Y-2960914D02*
X97035133Y-2888343D01*
X97035133Y-2888343D02*
X96962562Y-2852057D01*
X96962562Y-2852057D02*
X96817419Y-2815771D01*
X96817419Y-2815771D02*
X96708562Y-2815771D01*
X96708562Y-2815771D02*
X96563419Y-2852057D01*
X96563419Y-2852057D02*
X96490847Y-2888343D01*
X96490847Y-2888343D02*
X96418276Y-2960914D01*
X96418276Y-2960914D02*
X96381990Y-3069771D01*
X96381990Y-3069771D02*
X96381990Y-3142343D01*
X96381990Y-3142343D02*
X96418276Y-3251200D01*
X96418276Y-3251200D02*
X96454562Y-3287486D01*
X97143990Y-4013200D02*
X97143990Y-3577771D01*
X97143990Y-3795486D02*
X96381990Y-3795486D01*
X96381990Y-3795486D02*
X96490847Y-3722914D01*
X96490847Y-3722914D02*
X96563419Y-3650343D01*
X96563419Y-3650343D02*
X96599705Y-3577771D01*
X96381990Y-4267200D02*
X96381990Y-4775200D01*
X96381990Y-4775200D02*
X97143990Y-4448628D01*
X96381990Y-4992914D02*
X96381990Y-5464628D01*
X96381990Y-5464628D02*
X96672276Y-5210628D01*
X96672276Y-5210628D02*
X96672276Y-5319485D01*
X96672276Y-5319485D02*
X96708562Y-5392057D01*
X96708562Y-5392057D02*
X96744847Y-5428342D01*
X96744847Y-5428342D02*
X96817419Y-5464628D01*
X96817419Y-5464628D02*
X96998847Y-5464628D01*
X96998847Y-5464628D02*
X97071419Y-5428342D01*
X97071419Y-5428342D02*
X97107705Y-5392057D01*
X97107705Y-5392057D02*
X97143990Y-5319485D01*
X97143990Y-5319485D02*
X97143990Y-5101771D01*
X97143990Y-5101771D02*
X97107705Y-5029199D01*
X97107705Y-5029199D02*
X97071419Y-4992914D01*
D12*
X3344142Y114666500D02*
X3818658Y114666500D01*
X3344142Y115711500D02*
X3818658Y115711500D01*
X3242542Y111364500D02*
X3717058Y111364500D01*
X3242542Y112409500D02*
X3717058Y112409500D01*
X3742458Y109361500D02*
X3267942Y109361500D01*
X3742458Y108316500D02*
X3267942Y108316500D01*
X3767858Y122925100D02*
X3293342Y122925100D01*
X3767858Y121880100D02*
X3293342Y121880100D01*
X74197230Y13257297D02*
X73861697Y13592830D01*
X73458303Y12518370D02*
X73122770Y12853903D01*
X75434170Y10517103D02*
X75769703Y10181570D01*
X76173097Y11256030D02*
X76508630Y10920497D01*
X88254100Y-4377458D02*
X88254100Y-3902942D01*
X87209100Y-4377458D02*
X87209100Y-3902942D01*
X115772500Y-4237258D02*
X115772500Y-3762742D01*
X114727500Y-4237258D02*
X114727500Y-3762742D01*
X46577500Y12237258D02*
X46577500Y11762742D01*
X47622500Y12237258D02*
X47622500Y11762742D01*
X44377500Y12237258D02*
X44377500Y11762742D01*
X45422500Y12237258D02*
X45422500Y11762742D01*
X42177500Y12237258D02*
X42177500Y11762742D01*
X43222500Y12237258D02*
X43222500Y11762742D01*
X37777500Y12237258D02*
X37777500Y11762742D01*
X38822500Y12237258D02*
X38822500Y11762742D01*
X35577500Y12237258D02*
X35577500Y11762742D01*
X36622500Y12237258D02*
X36622500Y11762742D01*
X33377500Y12237258D02*
X33377500Y11762742D01*
X34422500Y12237258D02*
X34422500Y11762742D01*
X100205000Y-4179180D02*
X100205000Y-3898020D01*
X99185000Y-4179180D02*
X99185000Y-3898020D01*
X84304600Y-4382380D02*
X84304600Y-4101220D01*
X83284600Y-4382380D02*
X83284600Y-4101220D01*
X74144600Y-4356980D02*
X74144600Y-4075820D01*
X73124600Y-4356980D02*
X73124600Y-4075820D01*
X72595200Y-4356980D02*
X72595200Y-4075820D01*
X71575200Y-4356980D02*
X71575200Y-4075820D01*
X65788000Y-4407780D02*
X65788000Y-4126620D01*
X64768000Y-4407780D02*
X64768000Y-4126620D01*
X64238600Y-4407780D02*
X64238600Y-4126620D01*
X63218600Y-4407780D02*
X63218600Y-4126620D01*
X90553830Y18854019D02*
X90355019Y19052830D01*
X89832581Y18132770D02*
X89633770Y18331581D01*
X69607820Y10259600D02*
X69888980Y10259600D01*
X69607820Y11279600D02*
X69888980Y11279600D01*
X66077220Y17955800D02*
X66358380Y17955800D01*
X66077220Y18975800D02*
X66358380Y18975800D01*
X67789770Y25087981D02*
X67988581Y24889170D01*
X68511019Y25809230D02*
X68709830Y25610419D01*
X71193370Y28466181D02*
X71392181Y28267370D01*
X71914619Y29187430D02*
X72113430Y28988619D01*
X73555570Y30752181D02*
X73754381Y30553370D01*
X74276819Y31473430D02*
X74475630Y31274619D01*
X81806181Y33454630D02*
X81607370Y33255819D01*
X82527430Y32733381D02*
X82328619Y32534570D01*
X85514581Y29568430D02*
X85315770Y29369619D01*
X86235830Y28847181D02*
X86037019Y28648370D01*
X87724381Y27206230D02*
X87525570Y27007419D01*
X88445630Y26484981D02*
X88246819Y26286170D01*
X87353430Y16263219D02*
X87154619Y16462030D01*
X86632181Y15541970D02*
X86433370Y15740781D01*
X119760000Y-4140580D02*
X119760000Y-3859420D01*
X118740000Y-4140580D02*
X118740000Y-3859420D01*
X113760000Y-4140580D02*
X113760000Y-3859420D01*
X112740000Y-4140580D02*
X112740000Y-3859420D01*
X108760000Y-4140580D02*
X108760000Y-3859420D01*
X107740000Y-4140580D02*
X107740000Y-3859420D01*
X54459600Y-4407780D02*
X54459600Y-4126620D01*
X53439600Y-4407780D02*
X53439600Y-4126620D01*
X103010000Y-4140580D02*
X103010000Y-3859420D01*
X101990000Y-4140580D02*
X101990000Y-3859420D01*
X95963200Y-4204580D02*
X95963200Y-3923420D01*
X94943200Y-4204580D02*
X94943200Y-3923420D01*
X90299000Y-4255380D02*
X90299000Y-3974220D01*
X89279000Y-4255380D02*
X89279000Y-3974220D01*
X62260000Y-4407780D02*
X62260000Y-4126620D01*
X61240000Y-4407780D02*
X61240000Y-4126620D01*
X41010000Y11859420D02*
X41010000Y12140580D01*
X39990000Y11859420D02*
X39990000Y12140580D01*
X91844400Y-3948820D02*
X91844400Y-4229980D01*
X92864400Y-3948820D02*
X92864400Y-4229980D01*
X59666600Y-4407780D02*
X59666600Y-4126620D01*
X58646600Y-4407780D02*
X58646600Y-4126620D01*
X56614600Y-4126620D02*
X56614600Y-4407780D01*
X57634600Y-4126620D02*
X57634600Y-4407780D01*
X80990000Y-4109420D02*
X80990000Y-4390580D01*
X82010000Y-4109420D02*
X82010000Y-4390580D01*
X68247800Y-4101220D02*
X68247800Y-4382380D01*
X69267800Y-4101220D02*
X69267800Y-4382380D01*
X110284800Y-3898020D02*
X110284800Y-4179180D01*
X111304800Y-3898020D02*
X111304800Y-4179180D01*
X104417400Y-3923420D02*
X104417400Y-4204580D01*
X105437400Y-3923420D02*
X105437400Y-4204580D01*
X97483200Y-3948820D02*
X97483200Y-4229980D01*
X98503200Y-3948820D02*
X98503200Y-4229980D01*
%LPC*%
D13*
X2756400Y115189000D03*
X4406400Y115189000D03*
X2654800Y111887000D03*
X4304800Y111887000D03*
D14*
X4330200Y108839000D03*
X2680200Y108839000D03*
X4355600Y122402600D03*
X2705600Y122402600D03*
D15*
X74243363Y12472237D03*
X73076637Y13638963D03*
D16*
X75388037Y11302163D03*
X76554763Y10135437D03*
D17*
X87731600Y-4965200D03*
X87731600Y-3315200D03*
X115250000Y-4825000D03*
X115250000Y-3175000D03*
D18*
X47100000Y12825000D03*
X47100000Y11175000D03*
X44900000Y12825000D03*
X44900000Y11175000D03*
X42700000Y12825000D03*
X42700000Y11175000D03*
X38300000Y12825000D03*
X38300000Y11175000D03*
X36100000Y12825000D03*
X36100000Y11175000D03*
X33900000Y12825000D03*
X33900000Y11175000D03*
D19*
X99695000Y-4813600D03*
X99695000Y-3263600D03*
X83794600Y-5016800D03*
X83794600Y-3466800D03*
X73634600Y-4991400D03*
X73634600Y-3441400D03*
X72085200Y-4991400D03*
X72085200Y-3441400D03*
X65278000Y-5042200D03*
X65278000Y-3492200D03*
X63728600Y-5042200D03*
X63728600Y-3492200D03*
D20*
X90641808Y18044792D03*
X89545792Y19140808D03*
D21*
X68973400Y10769600D03*
X70523400Y10769600D03*
X65442800Y18465800D03*
X66992800Y18465800D03*
D22*
X67701792Y25897208D03*
X68797808Y24801192D03*
X71105392Y29275408D03*
X72201408Y28179392D03*
X73467592Y31561408D03*
X74563608Y30465392D03*
D23*
X82615408Y33542608D03*
X81519392Y32446592D03*
X86323808Y29656408D03*
X85227792Y28560392D03*
X88533608Y27294208D03*
X87437592Y26198192D03*
D20*
X87441408Y15453992D03*
X86345392Y16550008D03*
D19*
X119250000Y-4775000D03*
X119250000Y-3225000D03*
X113250000Y-4775000D03*
X113250000Y-3225000D03*
X108250000Y-4775000D03*
X108250000Y-3225000D03*
X53949600Y-5042200D03*
X53949600Y-3492200D03*
X102500000Y-4775000D03*
X102500000Y-3225000D03*
X95453200Y-4839000D03*
X95453200Y-3289000D03*
X89789000Y-4889800D03*
X89789000Y-3339800D03*
X61750000Y-5042200D03*
X61750000Y-3492200D03*
X40500000Y11225000D03*
X40500000Y12775000D03*
D24*
X64310000Y135500000D03*
D25*
X61770000Y135500000D03*
X59230000Y135500000D03*
X56690000Y135500000D03*
D26*
X26040000Y32500000D03*
X23500000Y32500000D03*
X20960000Y32500000D03*
X41540000Y148000000D03*
X39000000Y148000000D03*
X36460000Y148000000D03*
D27*
X0Y-2750000D03*
X-1950000Y-1950000D03*
X1950000Y-1950000D03*
X-2750000Y0D03*
D28*
X0Y0D03*
D27*
X2750000Y0D03*
X-1950000Y1950000D03*
X1950000Y1950000D03*
X0Y2750000D03*
D26*
X143000000Y43460000D03*
X143000000Y46000000D03*
X143000000Y48540000D03*
D29*
X92354400Y-3314400D03*
X92354400Y-4864400D03*
D19*
X59156600Y-5042200D03*
X59156600Y-3492200D03*
D27*
X154940000Y-2750000D03*
X152990000Y-1950000D03*
X156890000Y-1950000D03*
X152190000Y0D03*
D28*
X154940000Y0D03*
D27*
X157690000Y0D03*
X152990000Y1950000D03*
X156890000Y1950000D03*
X154940000Y2750000D03*
D30*
X53565000Y1574800D03*
X79205000Y1574800D03*
X124845000Y1574800D03*
D31*
X56705000Y2574800D03*
D32*
X57705000Y4574800D03*
X58705000Y2574800D03*
X59705000Y4574800D03*
X60705000Y2574800D03*
X61705000Y4574800D03*
X62705000Y2574800D03*
X63705000Y4574800D03*
X64705000Y2574800D03*
X65705000Y4574800D03*
X66705000Y2574800D03*
X67705000Y4574800D03*
X68705000Y2574800D03*
X69705000Y4574800D03*
X70705000Y2574800D03*
X71705000Y4574800D03*
X72705000Y2574800D03*
X73705000Y4574800D03*
X74705000Y2574800D03*
X75705000Y4574800D03*
X76705000Y2574800D03*
X81705000Y4574800D03*
X82705000Y2574800D03*
X83705000Y4574800D03*
X84705000Y2574800D03*
X85705000Y4574800D03*
X86705000Y2574800D03*
X87705000Y4574800D03*
X88705000Y2574800D03*
X89705000Y4574800D03*
X90705000Y2574800D03*
X91705000Y4574800D03*
X92705000Y2574800D03*
X93705000Y4574800D03*
X94705000Y2574800D03*
X95705000Y4574800D03*
X96705000Y2574800D03*
X97705000Y4574800D03*
X98705000Y2574800D03*
X99705000Y4574800D03*
X100705000Y2574800D03*
X101705000Y4574800D03*
X102705000Y2574800D03*
X103705000Y4574800D03*
X104705000Y2574800D03*
X105705000Y4574800D03*
X106705000Y2574800D03*
X107705000Y4574800D03*
X108705000Y2574800D03*
X109705000Y4574800D03*
X110705000Y2574800D03*
X111705000Y4574800D03*
X112705000Y2574800D03*
X113705000Y4574800D03*
X114705000Y2574800D03*
X115705000Y4574800D03*
X116705000Y2574800D03*
X117705000Y4574800D03*
X118705000Y2574800D03*
X119705000Y4574800D03*
X120705000Y2574800D03*
X121705000Y4574800D03*
X56705000Y-1425200D03*
X57705000Y574800D03*
X58705000Y-1425200D03*
X59705000Y574800D03*
X60705000Y-1425200D03*
X61705000Y574800D03*
X62705000Y-1425200D03*
X63705000Y574800D03*
X64705000Y-1425200D03*
X65705000Y574800D03*
X66705000Y-1425200D03*
X67705000Y574800D03*
X68705000Y-1425200D03*
X69705000Y574800D03*
X70705000Y-1425200D03*
X71705000Y574800D03*
X72705000Y-1425200D03*
X73705000Y574800D03*
X74705000Y-1425200D03*
X75705000Y574800D03*
X76705000Y-1425200D03*
X81705000Y574800D03*
X82705000Y-1425200D03*
X83705000Y574800D03*
X84705000Y-1425200D03*
X85705000Y574800D03*
X86705000Y-1425200D03*
X87705000Y574800D03*
X88705000Y-1425200D03*
X89705000Y574800D03*
X90705000Y-1425200D03*
X91705000Y574800D03*
X92705000Y-1425200D03*
X93705000Y574800D03*
X94705000Y-1425200D03*
X95705000Y574800D03*
X96705000Y-1425200D03*
X97705000Y574800D03*
X98705000Y-1425200D03*
X99705000Y574800D03*
X100705000Y-1425200D03*
X101705000Y574800D03*
X102705000Y-1425200D03*
X103705000Y574800D03*
X104705000Y-1425200D03*
X105705000Y574800D03*
X106705000Y-1425200D03*
X107705000Y574800D03*
X108705000Y-1425200D03*
X109705000Y574800D03*
X110705000Y-1425200D03*
X111705000Y574800D03*
X112705000Y-1425200D03*
X113705000Y574800D03*
X114705000Y-1425200D03*
X115705000Y574800D03*
X116705000Y-1425200D03*
X117705000Y574800D03*
X118705000Y-1425200D03*
X119705000Y574800D03*
X120705000Y-1425200D03*
X121705000Y574800D03*
D33*
X141822000Y140531500D03*
D34*
X146902000Y142691500D03*
D35*
X144362000Y142691500D03*
X141822000Y142691500D03*
X139282000Y142691500D03*
D26*
X140460000Y148500000D03*
X143000000Y148500000D03*
X145540000Y148500000D03*
X72300000Y133000000D03*
X74840000Y133000000D03*
X77380000Y133000000D03*
X117960000Y64500000D03*
X120500000Y64500000D03*
X123040000Y64500000D03*
D36*
X35950000Y78000000D03*
X15600000Y78000000D03*
D37*
X36050000Y-1300000D03*
X44050000Y-1300000D03*
D29*
X57124600Y-3492200D03*
X57124600Y-5042200D03*
D33*
X1110000Y146290000D03*
X1110000Y143750000D03*
X1110000Y141210000D03*
D38*
X-1510000Y146290000D03*
X-1510000Y141210000D03*
D29*
X81500000Y-3475000D03*
X81500000Y-5025000D03*
D26*
X64310000Y129000000D03*
X61770000Y129000000D03*
X59230000Y129000000D03*
X56690000Y129000000D03*
D39*
X143020000Y16190000D03*
D26*
X143020000Y18730000D03*
X143020000Y21270000D03*
X143020000Y23810000D03*
X140480000Y23810000D03*
X140480000Y21270000D03*
X140480000Y18730000D03*
X140480000Y16190000D03*
D36*
X-1600000Y35700000D03*
X-1600000Y38300000D03*
X-1600000Y33600000D03*
X-1600000Y40400000D03*
X900000Y33600000D03*
X900000Y40400000D03*
X5400000Y35700000D03*
X5400000Y38300000D03*
X5400000Y33600000D03*
X5400000Y40400000D03*
X7900000Y33600000D03*
X7900000Y40400000D03*
D40*
X-4600000Y30250000D03*
X5400000Y30250000D03*
X-5400000Y37000000D03*
X-4600000Y43750000D03*
X5400000Y43750000D03*
D26*
X4960000Y66250000D03*
X7500000Y66250000D03*
X10040000Y66250000D03*
X72300000Y136000000D03*
X74840000Y136000000D03*
X77380000Y136000000D03*
X26040000Y38500000D03*
X23500000Y38500000D03*
X20960000Y38500000D03*
D41*
X132110000Y86570000D03*
X134650000Y86570000D03*
X137190000Y86570000D03*
X139730000Y86570000D03*
X142270000Y86570000D03*
X144810000Y86570000D03*
X147350000Y86570000D03*
X149890000Y86570000D03*
X149890000Y109430000D03*
X147350000Y109430000D03*
X144810000Y109430000D03*
X142270000Y109430000D03*
X139730000Y109430000D03*
X137190000Y109430000D03*
X134650000Y109430000D03*
X132110000Y109430000D03*
D26*
X129960000Y60500000D03*
X132500000Y60500000D03*
X135040000Y60500000D03*
D29*
X68757800Y-3466800D03*
X68757800Y-5016800D03*
D26*
X41540000Y151000000D03*
X39000000Y151000000D03*
X36460000Y151000000D03*
X154500000Y144270000D03*
X154500000Y141730000D03*
D27*
X22860000Y154730000D03*
X20910000Y155530000D03*
X24810000Y155530000D03*
X20110000Y157480000D03*
D28*
X22860000Y157480000D03*
D27*
X25610000Y157480000D03*
X20910000Y159430000D03*
X24810000Y159430000D03*
X22860000Y160230000D03*
D29*
X110794800Y-3263600D03*
X110794800Y-4813600D03*
D42*
X144600000Y-2000000D03*
D43*
X145870000Y-2000000D03*
X147140000Y-2000000D03*
X148410000Y-2000000D03*
D44*
X5680000Y59300000D03*
X5680000Y56800000D03*
X5680000Y54800000D03*
X5680000Y52300000D03*
X3080000Y59300000D03*
X3080000Y56800000D03*
X3080000Y54800000D03*
X3080000Y52300000D03*
D45*
X6080000Y62350000D03*
X380000Y62350000D03*
X6080000Y49250000D03*
X380000Y49250000D03*
D33*
X119322000Y56340000D03*
D34*
X124402000Y58500000D03*
D35*
X121862000Y58500000D03*
X119322000Y58500000D03*
X116782000Y58500000D03*
D46*
X154480000Y59000000D03*
X141520000Y59000000D03*
D47*
X144190000Y59500000D03*
D48*
X145460000Y58500000D03*
X146730000Y58500000D03*
D49*
X148000000Y59500000D03*
D48*
X149270000Y58500000D03*
X150540000Y58500000D03*
D49*
X151810000Y59500000D03*
D27*
X154940000Y154730000D03*
X152990000Y155530000D03*
X156890000Y155530000D03*
X152190000Y157480000D03*
D28*
X154940000Y157480000D03*
D27*
X157690000Y157480000D03*
X152990000Y159430000D03*
X156890000Y159430000D03*
X154940000Y160230000D03*
D36*
X920000Y88545000D03*
X920000Y85775000D03*
X920000Y83005000D03*
X920000Y80235000D03*
X920000Y77465000D03*
X-1920000Y87160000D03*
X-1920000Y84390000D03*
X-1920000Y81620000D03*
X-1920000Y78850000D03*
D50*
X-500000Y70510000D03*
X-500000Y95500000D03*
D44*
X16170000Y25200000D03*
X16170000Y22660000D03*
X16170000Y13340000D03*
X16170000Y10800000D03*
X13340000Y13550000D03*
X10800000Y14825000D03*
X13340000Y16095000D03*
X10800000Y17365000D03*
X13340000Y18635000D03*
X10800000Y19905000D03*
X13340000Y21175000D03*
X10800000Y22445000D03*
D51*
X10800000Y27325000D03*
X-1800000Y27325000D03*
X6480000Y24570000D03*
X800000Y24570000D03*
X6480000Y11430000D03*
X800000Y11430000D03*
X10800000Y8675000D03*
X-1800000Y8675000D03*
D44*
X3860000Y21540000D03*
X3860000Y19000000D03*
X3860000Y17000000D03*
X3860000Y14460000D03*
X6480000Y21540000D03*
X6480000Y19000000D03*
X6480000Y17000000D03*
X6480000Y14460000D03*
D52*
X131610000Y23300000D03*
D53*
X129070000Y23300000D03*
X126530000Y23300000D03*
X123990000Y23300000D03*
X121450000Y23300000D03*
X118910000Y23300000D03*
X116370000Y23300000D03*
X116370000Y15680000D03*
X118910000Y15680000D03*
X121450000Y15680000D03*
X123990000Y15680000D03*
X126530000Y15680000D03*
X129070000Y15680000D03*
X131610000Y15680000D03*
D26*
X132751200Y36000000D03*
X126248800Y36000000D03*
X143000000Y28690000D03*
X143000000Y31230000D03*
X143000000Y33770000D03*
X143000000Y36310000D03*
D29*
X104927400Y-3289000D03*
X104927400Y-4839000D03*
D39*
X6730000Y129930000D03*
D26*
X9270000Y129930000D03*
X6730000Y127390000D03*
X9270000Y127390000D03*
X6730000Y124850000D03*
X9270000Y124850000D03*
X6730000Y122310000D03*
X9270000Y122310000D03*
X6730000Y119770000D03*
X9270000Y119770000D03*
X6730000Y117230000D03*
X9270000Y117230000D03*
X6730000Y114690000D03*
X9270000Y114690000D03*
X6730000Y112150000D03*
X9270000Y112150000D03*
X6730000Y109610000D03*
X9270000Y109610000D03*
X6730000Y107070000D03*
X9270000Y107070000D03*
D29*
X97993200Y-3314400D03*
X97993200Y-4864400D03*
D45*
X5700000Y162040000D03*
X-5600000Y162040000D03*
D54*
X-1800000Y156000000D03*
D45*
X5700000Y149960000D03*
X-5600000Y149960000D03*
D54*
X-1800000Y151000000D03*
X-1800000Y153500000D03*
X-1800000Y158500000D03*
X-1800000Y161000000D03*
X3200000Y152250000D03*
X3200000Y154750000D03*
X3200000Y157250000D03*
X3200000Y159750000D03*
X8200000Y152250000D03*
X8200000Y154750000D03*
X8200000Y157250000D03*
X8200000Y159750000D03*
D55*
X60900000Y157750000D03*
X65100000Y157750000D03*
X69300000Y157750000D03*
X73500000Y157750000D03*
X77700000Y157750000D03*
X81900000Y157750000D03*
X86100000Y157750000D03*
X90300000Y157750000D03*
X94500000Y157750000D03*
X98700000Y157750000D03*
X102900000Y157750000D03*
X107100000Y157750000D03*
X60900000Y152250000D03*
X65100000Y152250000D03*
X69300000Y152250000D03*
X73500000Y152250000D03*
X77700000Y152250000D03*
X81900000Y152250000D03*
X86100000Y152250000D03*
X90300000Y152250000D03*
X94500000Y152250000D03*
X98700000Y152250000D03*
X102900000Y152250000D03*
X107100000Y152250000D03*
D26*
X26040000Y41500000D03*
X23500000Y41500000D03*
X20960000Y41500000D03*
X72300000Y139000000D03*
X74840000Y139000000D03*
X77380000Y139000000D03*
X26040000Y35500000D03*
X23500000Y35500000D03*
X20960000Y35500000D03*
X115960000Y37000000D03*
X118500000Y37000000D03*
X121040000Y37000000D03*
X32520000Y55750000D03*
X29980000Y55750000D03*
D33*
X141822000Y153031500D03*
D34*
X146902000Y155191500D03*
D35*
X144362000Y155191500D03*
X141822000Y155191500D03*
X139282000Y155191500D03*
D26*
X6000000Y92380000D03*
X6000000Y94920000D03*
X6000000Y97460000D03*
X6000000Y100000000D03*
D50*
X41825000Y56000000D03*
X107825000Y56000000D03*
X41825000Y78000000D03*
X107825000Y78000000D03*
D26*
X155751200Y36000000D03*
X149248800Y36000000D03*
X140460000Y161000000D03*
X143000000Y161000000D03*
X145540000Y161000000D03*
D52*
X450000Y108805000D03*
D36*
X450000Y111575000D03*
X450000Y114345000D03*
X450000Y117115000D03*
X450000Y119885000D03*
X450000Y122655000D03*
X450000Y125425000D03*
X450000Y128195000D03*
X-2390000Y110190000D03*
X-2390000Y112960000D03*
X-2390000Y115730000D03*
X-2390000Y118500000D03*
X-2390000Y121270000D03*
X-2390000Y124040000D03*
X-2390000Y126810000D03*
D56*
X-970000Y135150000D03*
X-970000Y101850000D03*
%LPD*%
M02*
