G04 #@! TF.GenerationSoftware,KiCad,Pcbnew,9.0.0-9.0.0-2~ubuntu24.04.1*
G04 #@! TF.CreationDate,2025-02-26T22:28:53+01:00*
G04 #@! TF.ProjectId,ITX-Llama,4954582d-4c6c-4616-9d61-2e6b69636164,K*
G04 #@! TF.SameCoordinates,Original*
G04 #@! TF.FileFunction,Soldermask,Top*
G04 #@! TF.FilePolarity,Negative*
%FSLAX46Y46*%
G04 Gerber Fmt 4.6, Leading zero omitted, Abs format (unit mm)*
G04 Created by KiCad (PCBNEW 9.0.0-9.0.0-2~ubuntu24.04.1) date 2025-02-26 22:28:53*
%MOMM*%
%LPD*%
G01*
G04 APERTURE LIST*
G04 Aperture macros list*
%AMRoundRect*
0 Rectangle with rounded corners*
0 $1 Rounding radius*
0 $2 $3 $4 $5 $6 $7 $8 $9 X,Y pos of 4 corners*
0 Add a 4 corners polygon primitive as box body*
4,1,4,$2,$3,$4,$5,$6,$7,$8,$9,$2,$3,0*
0 Add four circle primitives for the rounded corners*
1,1,$1+$1,$2,$3*
1,1,$1+$1,$4,$5*
1,1,$1+$1,$6,$7*
1,1,$1+$1,$8,$9*
0 Add four rect primitives between the rounded corners*
20,1,$1+$1,$2,$3,$4,$5,0*
20,1,$1+$1,$4,$5,$6,$7,0*
20,1,$1+$1,$6,$7,$8,$9,0*
20,1,$1+$1,$8,$9,$2,$3,0*%
%AMRotRect*
0 Rectangle, with rotation*
0 The origin of the aperture is its center*
0 $1 length*
0 $2 width*
0 $3 Rotation angle, in degrees counterclockwise*
0 Add horizontal line*
21,1,$1,$2,0,0,$3*%
G04 Aperture macros list end*
%ADD10RoundRect,0.200000X0.335876X0.053033X0.053033X0.335876X-0.335876X-0.053033X-0.053033X-0.335876X0*%
%ADD11RoundRect,0.200000X0.200000X0.275000X-0.200000X0.275000X-0.200000X-0.275000X0.200000X-0.275000X0*%
%ADD12RoundRect,0.200000X-0.200000X-0.275000X0.200000X-0.275000X0.200000X0.275000X-0.200000X0.275000X0*%
%ADD13RoundRect,0.200000X0.275000X-0.200000X0.275000X0.200000X-0.275000X0.200000X-0.275000X-0.200000X0*%
%ADD14RoundRect,0.200000X-0.275000X0.200000X-0.275000X-0.200000X0.275000X-0.200000X0.275000X0.200000X0*%
%ADD15RoundRect,0.200000X-0.053033X0.335876X-0.335876X0.053033X0.053033X-0.335876X0.335876X-0.053033X0*%
%ADD16RoundRect,0.200000X-0.335876X-0.053033X-0.053033X-0.335876X0.335876X0.053033X0.053033X0.335876X0*%
%ADD17RoundRect,0.225000X0.250000X-0.225000X0.250000X0.225000X-0.250000X0.225000X-0.250000X-0.225000X0*%
%ADD18RoundRect,0.225000X-0.250000X0.225000X-0.250000X-0.225000X0.250000X-0.225000X0.250000X0.225000X0*%
%ADD19RoundRect,0.225000X-0.225000X-0.250000X0.225000X-0.250000X0.225000X0.250000X-0.225000X0.250000X0*%
%ADD20RoundRect,0.225000X0.225000X0.250000X-0.225000X0.250000X-0.225000X-0.250000X0.225000X-0.250000X0*%
%ADD21RoundRect,0.225000X-0.335876X-0.017678X-0.017678X-0.335876X0.335876X0.017678X0.017678X0.335876X0*%
%ADD22RoundRect,0.225000X-0.017678X0.335876X-0.335876X0.017678X0.017678X-0.335876X0.335876X-0.017678X0*%
%ADD23RoundRect,0.225000X0.335876X0.017678X0.017678X0.335876X-0.335876X-0.017678X-0.017678X-0.335876X0*%
%ADD24R,1.755000X1.755000*%
%ADD25C,1.755000*%
%ADD26C,1.397000*%
%ADD27R,0.600000X1.200000*%
%ADD28RoundRect,0.218750X0.256250X-0.218750X0.256250X0.218750X-0.256250X0.218750X-0.256250X-0.218750X0*%
%ADD29C,0.400000*%
%ADD30C,7.000000*%
%ADD31R,1.400000X1.600000*%
%ADD32R,1.020000X2.300000*%
%ADD33C,2.440000*%
%ADD34R,1.200000X1.200000*%
%ADD35C,1.200000*%
%ADD36C,1.300000*%
%ADD37R,1.530000X1.530000*%
%ADD38C,1.550000*%
%ADD39RoundRect,0.250000X-1.100000X0.325000X-1.100000X-0.325000X1.100000X-0.325000X1.100000X0.325000X0*%
%ADD40R,1.200000X0.600000*%
%ADD41RoundRect,0.112500X-0.637500X-0.112500X0.637500X-0.112500X0.637500X0.112500X-0.637500X0.112500X0*%
%ADD42RoundRect,0.250000X0.450000X-0.262500X0.450000X0.262500X-0.450000X0.262500X-0.450000X-0.262500X0*%
%ADD43C,1.600000*%
%ADD44C,1.000000*%
%ADD45R,0.700000X1.500000*%
%ADD46R,1.200000X1.600000*%
%ADD47R,1.200000X2.200000*%
%ADD48C,1.700000*%
%ADD49R,1.600000X1.400000*%
%ADD50RoundRect,0.218750X0.218750X0.256250X-0.218750X0.256250X-0.218750X-0.256250X0.218750X-0.256250X0*%
%ADD51RoundRect,0.218750X-0.256250X0.218750X-0.256250X-0.218750X0.256250X-0.218750X0.256250X0.218750X0*%
%ADD52RoundRect,0.250000X-0.262500X-0.450000X0.262500X-0.450000X0.262500X0.450000X-0.262500X0.450000X0*%
%ADD53R,1.397000X1.397000*%
%ADD54C,3.600000*%
%ADD55RoundRect,0.250000X0.312500X0.625000X-0.312500X0.625000X-0.312500X-0.625000X0.312500X-0.625000X0*%
%ADD56O,0.370000X0.950000*%
%ADD57O,0.950000X0.370000*%
%ADD58R,2.200000X2.200000*%
%ADD59R,0.700000X0.700000*%
%ADD60C,1.800000*%
%ADD61RoundRect,0.249999X0.450001X1.450001X-0.450001X1.450001X-0.450001X-1.450001X0.450001X-1.450001X0*%
%ADD62RoundRect,0.125000X-0.125000X0.125000X-0.125000X-0.125000X0.125000X-0.125000X0.125000X0.125000X0*%
%ADD63RoundRect,0.250000X1.100000X-0.325000X1.100000X0.325000X-1.100000X0.325000X-1.100000X-0.325000X0*%
%ADD64RoundRect,0.075000X-1.162500X-0.075000X1.162500X-0.075000X1.162500X0.075000X-1.162500X0.075000X0*%
%ADD65RoundRect,0.075000X-0.075000X-1.162500X0.075000X-1.162500X0.075000X1.162500X-0.075000X1.162500X0*%
%ADD66RoundRect,0.006000X0.414000X0.094000X-0.414000X0.094000X-0.414000X-0.094000X0.414000X-0.094000X0*%
%ADD67RoundRect,0.020000X0.080000X0.400000X-0.080000X0.400000X-0.080000X-0.400000X0.080000X-0.400000X0*%
%ADD68R,3.100000X3.100000*%
%ADD69RoundRect,0.125000X0.125000X0.125000X-0.125000X0.125000X-0.125000X-0.125000X0.125000X-0.125000X0*%
%ADD70R,1.070000X1.800000*%
%ADD71O,1.070000X1.800000*%
%ADD72RoundRect,0.112500X-0.112500X0.637500X-0.112500X-0.637500X0.112500X-0.637500X0.112500X0.637500X0*%
%ADD73R,1.200000X1.400000*%
%ADD74C,1.500000*%
%ADD75C,3.000000*%
%ADD76C,2.250000*%
%ADD77C,1.250000*%
%ADD78C,1.016000*%
%ADD79C,1.248000*%
%ADD80C,5.000000*%
%ADD81R,1.505000X0.802000*%
%ADD82R,2.613000X3.502000*%
%ADD83C,3.200000*%
%ADD84R,1.600000X1.600000*%
%ADD85O,1.600000X1.600000*%
%ADD86C,1.400000*%
%ADD87C,2.200000*%
%ADD88RoundRect,0.250000X-0.450000X0.262500X-0.450000X-0.262500X0.450000X-0.262500X0.450000X0.262500X0*%
%ADD89RoundRect,0.150000X0.650000X0.150000X-0.650000X0.150000X-0.650000X-0.150000X0.650000X-0.150000X0*%
%ADD90R,0.630000X2.600000*%
%ADD91RoundRect,0.150000X-0.825000X-0.150000X0.825000X-0.150000X0.825000X0.150000X-0.825000X0.150000X0*%
%ADD92R,2.800000X0.600000*%
%ADD93R,1.670000X0.760000*%
%ADD94C,4.000000*%
%ADD95RoundRect,0.062500X-0.433103X-0.521491X0.521491X0.433103X0.433103X0.521491X-0.521491X-0.433103X0*%
%ADD96RoundRect,0.062500X0.433103X-0.521491X0.521491X-0.433103X-0.433103X0.521491X-0.521491X0.433103X0*%
%ADD97RotRect,5.200000X5.200000X45.000000*%
G04 APERTURE END LIST*
D10*
X76732563Y33300237D03*
X75565837Y34466963D03*
D11*
X113825000Y20750000D03*
X112175000Y20750000D03*
X112825000Y31250000D03*
X111175000Y31250000D03*
X121325000Y39500000D03*
X119675000Y39500000D03*
X117325000Y39500000D03*
X115675000Y39500000D03*
D12*
X142456400Y13893800D03*
X144106400Y13893800D03*
X126425000Y13000000D03*
X128075000Y13000000D03*
X99675000Y25250000D03*
X101325000Y25250000D03*
D13*
X98221800Y23178000D03*
X98221800Y24828000D03*
X33500000Y34425000D03*
X33500000Y36075000D03*
X33500000Y30925000D03*
X33500000Y32575000D03*
X33500000Y37925000D03*
X33500000Y39575000D03*
D10*
X89686563Y16841037D03*
X88519837Y18007763D03*
D11*
X67017400Y21437600D03*
X65367400Y21437600D03*
X20814800Y141528800D03*
X19164800Y141528800D03*
D13*
X51435000Y131788400D03*
X51435000Y133438400D03*
X51460400Y134925000D03*
X51460400Y136575000D03*
X53000000Y134925000D03*
X53000000Y136575000D03*
X52984400Y131788400D03*
X52984400Y133438400D03*
D14*
X88000000Y98825000D03*
X88000000Y97175000D03*
D13*
X92000000Y134176000D03*
X92000000Y135826000D03*
D14*
X51435000Y125825000D03*
X51435000Y124175000D03*
D13*
X53000000Y124175000D03*
X53000000Y125825000D03*
X93497400Y134176000D03*
X93497400Y135826000D03*
X33500000Y41425000D03*
X33500000Y43075000D03*
X3886200Y120028200D03*
X3886200Y121678200D03*
D14*
X95250000Y98825000D03*
X95250000Y97175000D03*
D11*
X93075000Y100250000D03*
X91425000Y100250000D03*
D14*
X95250000Y95825000D03*
X95250000Y94175000D03*
D12*
X92469200Y89500000D03*
X94119200Y89500000D03*
D11*
X90563200Y89484200D03*
X88913200Y89484200D03*
D12*
X22187400Y141528800D03*
X23837400Y141528800D03*
X139175000Y4250000D03*
X140825000Y4250000D03*
D14*
X142500000Y1575000D03*
X142500000Y-75000D03*
X59232800Y24320000D03*
X59232800Y22670000D03*
X59232800Y21322800D03*
X59232800Y19672800D03*
D13*
X14500000Y5675000D03*
X14500000Y7325000D03*
X16000000Y5675000D03*
X16000000Y7325000D03*
D14*
X18500000Y13825000D03*
X18500000Y12175000D03*
D13*
X18500000Y23675000D03*
X18500000Y25325000D03*
D14*
X31242000Y22364200D03*
X31242000Y20714200D03*
X31250000Y19380000D03*
X31250000Y17730000D03*
D13*
X31250000Y13881600D03*
X31250000Y15531600D03*
X31250000Y10909800D03*
X31250000Y12559800D03*
D12*
X18199600Y10236200D03*
X19849600Y10236200D03*
X18174200Y8737600D03*
X19824200Y8737600D03*
D11*
X17325000Y42500000D03*
X15675000Y42500000D03*
X17325000Y39500000D03*
X15675000Y39500000D03*
X67017400Y19939000D03*
X65367400Y19939000D03*
D13*
X11074400Y146266400D03*
X11074400Y147916400D03*
X24003000Y145936200D03*
X24003000Y147586200D03*
D14*
X21005800Y147599400D03*
X21005800Y145949400D03*
D11*
X11137400Y144830800D03*
X9487400Y144830800D03*
D12*
X26226000Y145288000D03*
X27876000Y145288000D03*
D13*
X20878800Y62675000D03*
X20878800Y64325000D03*
D11*
X15938000Y60071000D03*
X14288000Y60071000D03*
D12*
X16726400Y49326800D03*
X18376400Y49326800D03*
D14*
X140000000Y46825000D03*
X140000000Y45175000D03*
D10*
X93979163Y16815637D03*
X92812437Y17982363D03*
D13*
X139000000Y34675000D03*
X139000000Y36325000D03*
D15*
X84327163Y35406763D03*
X83160437Y34240037D03*
X81685563Y35051163D03*
X80518837Y33884437D03*
D13*
X99237800Y8928600D03*
X99237800Y10578600D03*
X94300000Y8925000D03*
X94300000Y10575000D03*
X92837000Y8928600D03*
X92837000Y10578600D03*
X97750000Y8925000D03*
X97750000Y10575000D03*
X96250000Y8925000D03*
X96250000Y10575000D03*
D12*
X16726400Y47802800D03*
X18376400Y47802800D03*
X154675000Y51000000D03*
X156325000Y51000000D03*
D11*
X15226800Y69164200D03*
X13576800Y69164200D03*
D14*
X28092400Y64375800D03*
X28092400Y62725800D03*
X64973200Y8724400D03*
X64973200Y7074400D03*
D13*
X150000000Y47175000D03*
X150000000Y48825000D03*
D14*
X150000000Y45325000D03*
X150000000Y43675000D03*
D13*
X78841600Y8623800D03*
X78841600Y10273800D03*
X80314800Y8623800D03*
X80314800Y10273800D03*
D14*
X63500000Y8724400D03*
X63500000Y7074400D03*
D16*
X91440837Y16686963D03*
X92607563Y15520237D03*
D11*
X72148200Y9169400D03*
X70498200Y9169400D03*
D14*
X60274200Y8724400D03*
X60274200Y7074400D03*
X61747400Y8724400D03*
X61747400Y7074400D03*
D12*
X70447400Y7086600D03*
X72097400Y7086600D03*
D11*
X40825000Y134000000D03*
X39175000Y134000000D03*
D13*
X42316400Y132474200D03*
X42316400Y134124200D03*
X32537400Y147180800D03*
X32537400Y148830800D03*
D14*
X34000000Y148825000D03*
X34000000Y147175000D03*
X67000000Y8699000D03*
X67000000Y7049000D03*
D13*
X32537400Y150175000D03*
X32537400Y151825000D03*
D14*
X34000000Y151825000D03*
X34000000Y150175000D03*
D12*
X129375400Y13004800D03*
X131025400Y13004800D03*
X145675000Y2000000D03*
X147325000Y2000000D03*
D11*
X141083800Y13868400D03*
X139433800Y13868400D03*
D13*
X142500000Y-4575000D03*
X142500000Y-2925000D03*
D11*
X17325000Y36500000D03*
X15675000Y36500000D03*
X17325000Y33500000D03*
X15675000Y33500000D03*
D12*
X148425400Y27482800D03*
X150075400Y27482800D03*
X148425000Y26000000D03*
X150075000Y26000000D03*
D13*
X35000000Y11175000D03*
X35000000Y12825000D03*
X37200000Y11175000D03*
X37200000Y12825000D03*
X39400000Y11175000D03*
X39400000Y12825000D03*
X41600000Y11175000D03*
X41600000Y12825000D03*
X43800000Y11175000D03*
X43800000Y12825000D03*
X46000000Y11175000D03*
X46000000Y12825000D03*
D12*
X16624800Y138760200D03*
X18274800Y138760200D03*
X22825000Y138550000D03*
X24475000Y138550000D03*
D17*
X21691600Y49720200D03*
X21691600Y51270200D03*
D18*
X17881600Y64275000D03*
X17881600Y62725000D03*
D19*
X14338000Y54229000D03*
X15888000Y54229000D03*
D17*
X20218400Y50863200D03*
X20218400Y52413200D03*
D19*
X14338000Y55727600D03*
X15888000Y55727600D03*
X14338000Y58597800D03*
X15888000Y58597800D03*
D18*
X19380200Y64275000D03*
X19380200Y62725000D03*
D20*
X27140200Y58250000D03*
X25590200Y58250000D03*
X27140200Y54864000D03*
X25590200Y54864000D03*
D17*
X22352000Y62725000D03*
X22352000Y64275000D03*
D20*
X20917200Y65735200D03*
X19367200Y65735200D03*
X27140200Y53365400D03*
X25590200Y53365400D03*
D18*
X16129000Y52413200D03*
X16129000Y50863200D03*
X17627600Y52413200D03*
X17627600Y50863200D03*
D19*
X98970800Y7493000D03*
X100520800Y7493000D03*
D18*
X4724400Y141237000D03*
X4724400Y139687000D03*
X113500000Y37775000D03*
X113500000Y36225000D03*
D20*
X128275000Y28000000D03*
X126725000Y28000000D03*
D17*
X134000000Y18725000D03*
X134000000Y20275000D03*
X96750000Y20225000D03*
X96750000Y21775000D03*
X21209000Y137959800D03*
X21209000Y139509800D03*
D19*
X26149000Y141528800D03*
X27699000Y141528800D03*
X28206400Y143002000D03*
X29756400Y143002000D03*
D17*
X99669600Y124218400D03*
X99669600Y125768400D03*
D18*
X101168200Y125768400D03*
X101168200Y124218400D03*
D17*
X89001600Y134226000D03*
X89001600Y135776000D03*
D19*
X85725000Y137500000D03*
X87275000Y137500000D03*
X85712000Y138963400D03*
X87262000Y138963400D03*
X98475000Y131750000D03*
X100025000Y131750000D03*
X86975000Y131750000D03*
X88525000Y131750000D03*
D18*
X85250000Y129775000D03*
X85250000Y128225000D03*
D17*
X104749600Y128206200D03*
X104749600Y129756200D03*
X101750000Y128225000D03*
X101750000Y129775000D03*
D18*
X3886200Y112001600D03*
X3886200Y110451600D03*
D17*
X3886200Y113474200D03*
X3886200Y115024200D03*
X3860800Y107403600D03*
X3860800Y108953600D03*
X3886200Y117055600D03*
X3886200Y118605600D03*
D19*
X4711400Y142748000D03*
X6261400Y142748000D03*
D18*
X3860800Y105880200D03*
X3860800Y104330200D03*
D19*
X92475000Y93000000D03*
X94025000Y93000000D03*
D17*
X134500000Y25725000D03*
X134500000Y27275000D03*
D19*
X65417400Y18465800D03*
X66967400Y18465800D03*
X65417400Y22910800D03*
X66967400Y22910800D03*
D21*
X68128233Y26932070D03*
X69224249Y25836054D03*
X69542446Y28346283D03*
X70638462Y27250267D03*
X71239503Y30043340D03*
X72335519Y28947324D03*
X72512295Y31316132D03*
X73608311Y30220116D03*
X74350772Y33154609D03*
X75446788Y32058593D03*
D22*
X83932070Y32871767D03*
X82836054Y31775751D03*
X85063441Y31740396D03*
X83967425Y30644380D03*
X86374608Y30469208D03*
X85278592Y29373192D03*
X87891868Y28911969D03*
X86795852Y27815953D03*
X89588924Y27214913D03*
X88492908Y26118897D03*
X91003138Y25800699D03*
X89907122Y24704683D03*
D23*
X88381208Y15580992D03*
X87285192Y16677008D03*
X87326182Y14522345D03*
X86230166Y15618361D03*
X84164808Y11339192D03*
X83068792Y12435208D03*
D19*
X68425000Y12500000D03*
X69975000Y12500000D03*
X68425000Y14500000D03*
X69975000Y14500000D03*
D23*
X91835608Y18933792D03*
X90739592Y20029808D03*
X85911969Y13108132D03*
X84815953Y14204148D03*
X83083542Y10279705D03*
X81987526Y11375721D03*
D19*
X73647000Y10668000D03*
X75197000Y10668000D03*
D20*
X66992800Y12522200D03*
X65442800Y12522200D03*
X66992800Y14000000D03*
X65442800Y14000000D03*
X66992800Y15468600D03*
X65442800Y15468600D03*
X66992800Y16941800D03*
X65442800Y16941800D03*
X34252200Y22275800D03*
X32702200Y22275800D03*
X31458200Y9448800D03*
X29908200Y9448800D03*
D19*
X25225000Y23500000D03*
X26775000Y23500000D03*
D20*
X31275000Y63677800D03*
X29725000Y63677800D03*
D19*
X29705000Y57988200D03*
X31255000Y57988200D03*
D18*
X9550400Y147866400D03*
X9550400Y146316400D03*
D20*
X17765000Y149377600D03*
X16215000Y149377600D03*
D18*
X27660600Y140068600D03*
X27660600Y138518600D03*
X26162000Y140094000D03*
X26162000Y138544000D03*
D17*
X11074400Y141795200D03*
X11074400Y143345200D03*
X35382200Y136410400D03*
X35382200Y137960400D03*
X36880800Y136410400D03*
X36880800Y137960400D03*
D18*
X140500000Y36275000D03*
X140500000Y34725000D03*
D20*
X85738000Y7518400D03*
X84188000Y7518400D03*
X115024200Y7493000D03*
X113474200Y7493000D03*
X109055200Y7493000D03*
X107505200Y7493000D03*
D17*
X152500000Y47245000D03*
X152500000Y48795000D03*
D20*
X121272600Y7518400D03*
X119722600Y7518400D03*
D19*
X3746200Y78500000D03*
X5296200Y78500000D03*
D20*
X8275000Y78500000D03*
X6725000Y78500000D03*
X11189000Y78486000D03*
X9639000Y78486000D03*
X97523600Y7518400D03*
X95973600Y7518400D03*
X91021200Y7493000D03*
X89471200Y7493000D03*
D19*
X8115000Y87960200D03*
X9665000Y87960200D03*
D18*
X16000000Y158610600D03*
X16000000Y157060600D03*
D17*
X16052800Y153453800D03*
X16052800Y155003800D03*
D19*
X39230000Y135559800D03*
X40780000Y135559800D03*
D20*
X26775000Y143000000D03*
X25225000Y143000000D03*
D19*
X29120800Y138506200D03*
X30670800Y138506200D03*
D20*
X23787400Y143002000D03*
X22237400Y143002000D03*
D19*
X32321200Y136677400D03*
X33871200Y136677400D03*
D17*
X28200000Y114825000D03*
X28200000Y116375000D03*
D20*
X9775000Y134500000D03*
X8225000Y134500000D03*
D19*
X12225000Y134500000D03*
X13775000Y134500000D03*
X32321200Y135178800D03*
X33871200Y135178800D03*
D17*
X14122400Y123558000D03*
X14122400Y125108000D03*
D20*
X30670800Y140004800D03*
X29120800Y140004800D03*
X36775000Y122500000D03*
X35225000Y122500000D03*
X30670800Y141503400D03*
X29120800Y141503400D03*
X36775000Y128000000D03*
X35225000Y128000000D03*
D18*
X19710400Y139509800D03*
X19710400Y137959800D03*
D19*
X73225000Y92000000D03*
X74775000Y92000000D03*
D20*
X148775000Y4250000D03*
X147225000Y4250000D03*
D19*
X54705000Y73000000D03*
X56255000Y73000000D03*
D24*
X64310000Y135500000D03*
D25*
X61770000Y135500000D03*
X59230000Y135500000D03*
X56690000Y135500000D03*
D26*
X26040000Y32500000D03*
X23500000Y32500000D03*
X20960000Y32500000D03*
D27*
X86800000Y127900000D03*
X87750000Y127900000D03*
X88700000Y127900000D03*
X88700000Y130100000D03*
X86800000Y130100000D03*
D26*
X41540000Y148000000D03*
X39000000Y148000000D03*
X36460000Y148000000D03*
D19*
X98475000Y133248400D03*
X100025000Y133248400D03*
D28*
X5000000Y5212500D03*
X5000000Y6787500D03*
D29*
X0Y-2750000D03*
X-1950000Y-1950000D03*
X1950000Y-1950000D03*
X-2750000Y0D03*
D30*
X0Y0D03*
D29*
X2750000Y0D03*
X-1950000Y1950000D03*
X1950000Y1950000D03*
X0Y2750000D03*
D11*
X95075000Y23750000D03*
X93425000Y23750000D03*
D26*
X143000000Y43460000D03*
X143000000Y46000000D03*
X143000000Y48540000D03*
D31*
X156500000Y6000000D03*
X156500000Y14000000D03*
X152000000Y6000000D03*
X152000000Y14000000D03*
D19*
X-1525000Y46250000D03*
X25000Y46250000D03*
D32*
X53870000Y115600000D03*
X53870000Y121400000D03*
X56410000Y115600000D03*
X56410000Y121400000D03*
X58950000Y115600000D03*
X58950000Y121400000D03*
X61490000Y115600000D03*
X61490000Y121400000D03*
X64030000Y115600000D03*
X64030000Y121400000D03*
X66570000Y115600000D03*
X66570000Y121400000D03*
X69110000Y115600000D03*
X69110000Y121400000D03*
X71650000Y115600000D03*
X71650000Y121400000D03*
X74190000Y115600000D03*
X74190000Y121400000D03*
X76730000Y115600000D03*
X76730000Y121400000D03*
X79270000Y115600000D03*
X79270000Y121400000D03*
X81810000Y115600000D03*
X81810000Y121400000D03*
X84350000Y115600000D03*
X84350000Y121400000D03*
X86890000Y115600000D03*
X86890000Y121400000D03*
X89430000Y115600000D03*
X89430000Y121400000D03*
X91970000Y115600000D03*
X91970000Y121400000D03*
X94510000Y115600000D03*
X94510000Y121400000D03*
X97050000Y115600000D03*
X97050000Y121400000D03*
X99590000Y115600000D03*
X99590000Y121400000D03*
X102130000Y115600000D03*
X102130000Y121400000D03*
D17*
X95502600Y134226000D03*
X95502600Y135776000D03*
D18*
X51000000Y-975000D03*
X51000000Y-2525000D03*
D29*
X154940000Y-2750000D03*
X152990000Y-1950000D03*
X156890000Y-1950000D03*
X152190000Y0D03*
D30*
X154940000Y0D03*
D29*
X157690000Y0D03*
X152990000Y1950000D03*
X156890000Y1950000D03*
X154940000Y2750000D03*
D33*
X53565000Y1574800D03*
X79205000Y1574800D03*
X124845000Y1574800D03*
D34*
X56705000Y2574800D03*
D35*
X57705000Y4574800D03*
X58705000Y2574800D03*
X59705000Y4574800D03*
X60705000Y2574800D03*
X61705000Y4574800D03*
X62705000Y2574800D03*
X63705000Y4574800D03*
X64705000Y2574800D03*
X65705000Y4574800D03*
X66705000Y2574800D03*
X67705000Y4574800D03*
X68705000Y2574800D03*
X69705000Y4574800D03*
X70705000Y2574800D03*
X71705000Y4574800D03*
X72705000Y2574800D03*
X73705000Y4574800D03*
X74705000Y2574800D03*
X75705000Y4574800D03*
X76705000Y2574800D03*
X81705000Y4574800D03*
X82705000Y2574800D03*
X83705000Y4574800D03*
X84705000Y2574800D03*
X85705000Y4574800D03*
X86705000Y2574800D03*
X87705000Y4574800D03*
X88705000Y2574800D03*
X89705000Y4574800D03*
X90705000Y2574800D03*
X91705000Y4574800D03*
X92705000Y2574800D03*
X93705000Y4574800D03*
X94705000Y2574800D03*
X95705000Y4574800D03*
X96705000Y2574800D03*
X97705000Y4574800D03*
X98705000Y2574800D03*
X99705000Y4574800D03*
X100705000Y2574800D03*
X101705000Y4574800D03*
X102705000Y2574800D03*
X103705000Y4574800D03*
X104705000Y2574800D03*
X105705000Y4574800D03*
X106705000Y2574800D03*
X107705000Y4574800D03*
X108705000Y2574800D03*
X109705000Y4574800D03*
X110705000Y2574800D03*
X111705000Y4574800D03*
X112705000Y2574800D03*
X113705000Y4574800D03*
X114705000Y2574800D03*
X115705000Y4574800D03*
X116705000Y2574800D03*
X117705000Y4574800D03*
X118705000Y2574800D03*
X119705000Y4574800D03*
X120705000Y2574800D03*
X121705000Y4574800D03*
X56705000Y-1425200D03*
X57705000Y574800D03*
X58705000Y-1425200D03*
X59705000Y574800D03*
X60705000Y-1425200D03*
X61705000Y574800D03*
X62705000Y-1425200D03*
X63705000Y574800D03*
X64705000Y-1425200D03*
X65705000Y574800D03*
X66705000Y-1425200D03*
X67705000Y574800D03*
X68705000Y-1425200D03*
X69705000Y574800D03*
X70705000Y-1425200D03*
X71705000Y574800D03*
X72705000Y-1425200D03*
X73705000Y574800D03*
X74705000Y-1425200D03*
X75705000Y574800D03*
X76705000Y-1425200D03*
X81705000Y574800D03*
X82705000Y-1425200D03*
X83705000Y574800D03*
X84705000Y-1425200D03*
X85705000Y574800D03*
X86705000Y-1425200D03*
X87705000Y574800D03*
X88705000Y-1425200D03*
X89705000Y574800D03*
X90705000Y-1425200D03*
X91705000Y574800D03*
X92705000Y-1425200D03*
X93705000Y574800D03*
X94705000Y-1425200D03*
X95705000Y574800D03*
X96705000Y-1425200D03*
X97705000Y574800D03*
X98705000Y-1425200D03*
X99705000Y574800D03*
X100705000Y-1425200D03*
X101705000Y574800D03*
X102705000Y-1425200D03*
X103705000Y574800D03*
X104705000Y-1425200D03*
X105705000Y574800D03*
X106705000Y-1425200D03*
X107705000Y574800D03*
X108705000Y-1425200D03*
X109705000Y574800D03*
X110705000Y-1425200D03*
X111705000Y574800D03*
X112705000Y-1425200D03*
X113705000Y574800D03*
X114705000Y-1425200D03*
X115705000Y574800D03*
X116705000Y-1425200D03*
X117705000Y574800D03*
X118705000Y-1425200D03*
X119705000Y574800D03*
X120705000Y-1425200D03*
X121705000Y574800D03*
D17*
X9500000Y62225000D03*
X9500000Y63775000D03*
D36*
X141822000Y140531500D03*
D37*
X146902000Y142691500D03*
D38*
X144362000Y142691500D03*
X141822000Y142691500D03*
X139282000Y142691500D03*
D39*
X112500000Y160475000D03*
X112500000Y157525000D03*
D40*
X32100000Y30800000D03*
X29900000Y31750000D03*
X32100000Y32700000D03*
D26*
X140460000Y148500000D03*
X143000000Y148500000D03*
X145540000Y148500000D03*
D18*
X102666800Y125768400D03*
X102666800Y124218400D03*
X28117800Y61328600D03*
X28117800Y59778600D03*
D41*
X4600000Y86425000D03*
X4600000Y85775000D03*
X4600000Y85125000D03*
X4600000Y84475000D03*
X4600000Y83825000D03*
X4600000Y83175000D03*
X4600000Y82525000D03*
X4600000Y81875000D03*
X4600000Y81225000D03*
X4600000Y80575000D03*
X10400000Y80575000D03*
X10400000Y81225000D03*
X10400000Y81875000D03*
X10400000Y82525000D03*
X10400000Y83175000D03*
X10400000Y83825000D03*
X10400000Y84475000D03*
X10400000Y85125000D03*
X10400000Y85775000D03*
X10400000Y86425000D03*
D19*
X108475000Y14000000D03*
X110025000Y14000000D03*
D26*
X72300000Y133000000D03*
X74840000Y133000000D03*
X77380000Y133000000D03*
D42*
X155000000Y150587500D03*
X155000000Y152412500D03*
D26*
X117960000Y64500000D03*
X120500000Y64500000D03*
X123040000Y64500000D03*
D18*
X22504400Y147587000D03*
X22504400Y146037000D03*
D43*
X35950000Y78000000D03*
X15600000Y78000000D03*
D20*
X40792400Y132435600D03*
X39242400Y132435600D03*
X128275000Y26500000D03*
X126725000Y26500000D03*
D28*
X11500000Y62212500D03*
X11500000Y63787500D03*
D44*
X36050000Y-1300000D03*
X44050000Y-1300000D03*
D45*
X43140000Y9350000D03*
X42040000Y9350000D03*
X40940000Y9350000D03*
X39840000Y9350000D03*
X38740000Y9350000D03*
X37640000Y9350000D03*
X36540000Y9350000D03*
X35440000Y9350000D03*
X34340000Y9350000D03*
D46*
X33240000Y8500000D03*
D47*
X33240000Y-1200000D03*
D46*
X47920000Y8500000D03*
D47*
X48760000Y-1200000D03*
D18*
X83769200Y129781600D03*
X83769200Y128231600D03*
D40*
X32100000Y37800000D03*
X29900000Y38750000D03*
X32100000Y39700000D03*
D36*
X1110000Y146290000D03*
X1110000Y143750000D03*
X1110000Y141210000D03*
D48*
X-1510000Y146290000D03*
X-1510000Y141210000D03*
D49*
X3750000Y69250000D03*
X11750000Y69250000D03*
X3750000Y73750000D03*
X11750000Y73750000D03*
D19*
X55725000Y13000000D03*
X57275000Y13000000D03*
D50*
X3287500Y46250000D03*
X1712500Y46250000D03*
D27*
X144050000Y9900000D03*
X145950000Y9900000D03*
X145000000Y12100000D03*
X29550000Y59650000D03*
X30500000Y59650000D03*
X31450000Y59650000D03*
X31450000Y61850000D03*
X29550000Y61850000D03*
D51*
X11000000Y47787500D03*
X11000000Y46212500D03*
D27*
X140950000Y2100000D03*
X139050000Y2100000D03*
X140000000Y-100000D03*
D52*
X48087500Y157000000D03*
X49912500Y157000000D03*
D20*
X23990600Y149123400D03*
X22440600Y149123400D03*
D40*
X132600000Y26050000D03*
X132600000Y27000000D03*
X132600000Y27950000D03*
X130400000Y27950000D03*
X130400000Y26050000D03*
D26*
X64310000Y129000000D03*
X61770000Y129000000D03*
X59230000Y129000000D03*
X56690000Y129000000D03*
D53*
X143020000Y16190000D03*
D26*
X143020000Y18730000D03*
X143020000Y21270000D03*
X143020000Y23810000D03*
X140480000Y23810000D03*
X140480000Y21270000D03*
X140480000Y18730000D03*
X140480000Y16190000D03*
D17*
X103251000Y128206200D03*
X103251000Y129756200D03*
D43*
X-1600000Y35700000D03*
X-1600000Y38300000D03*
X-1600000Y33600000D03*
X-1600000Y40400000D03*
X900000Y33600000D03*
X900000Y40400000D03*
X5400000Y35700000D03*
X5400000Y38300000D03*
X5400000Y33600000D03*
X5400000Y40400000D03*
X7900000Y33600000D03*
X7900000Y40400000D03*
D54*
X-4600000Y30250000D03*
X5400000Y30250000D03*
X-5400000Y37000000D03*
X-4600000Y43750000D03*
X5400000Y43750000D03*
D28*
X3250000Y5212500D03*
X3250000Y6787500D03*
D26*
X4960000Y66250000D03*
X7500000Y66250000D03*
X10040000Y66250000D03*
D55*
X38962500Y21500000D03*
X36037500Y21500000D03*
D26*
X72300000Y136000000D03*
X74840000Y136000000D03*
X77380000Y136000000D03*
D19*
X108475000Y12250000D03*
X110025000Y12250000D03*
D17*
X98250000Y20225000D03*
X98250000Y21775000D03*
D26*
X26040000Y38500000D03*
X23500000Y38500000D03*
X20960000Y38500000D03*
D32*
X148970000Y134700000D03*
X148970000Y128900000D03*
X146430000Y134700000D03*
X146430000Y128900000D03*
X143890000Y134700000D03*
X143890000Y128900000D03*
X141350000Y134700000D03*
X141350000Y128900000D03*
X138810000Y134700000D03*
X138810000Y128900000D03*
X136270000Y134700000D03*
X136270000Y128900000D03*
X133730000Y134700000D03*
X133730000Y128900000D03*
X131190000Y134700000D03*
X131190000Y128900000D03*
X128650000Y134700000D03*
X128650000Y128900000D03*
X126110000Y134700000D03*
X126110000Y128900000D03*
X123570000Y134700000D03*
X123570000Y128900000D03*
X121030000Y134700000D03*
X121030000Y128900000D03*
X118490000Y134700000D03*
X118490000Y128900000D03*
D56*
X90843000Y94550000D03*
X91643000Y94550000D03*
X92443000Y94550000D03*
D57*
X93643000Y95750000D03*
X93643000Y96550000D03*
X93643000Y97350000D03*
D56*
X92443000Y98550000D03*
X91643000Y98550000D03*
X90843000Y98550000D03*
D57*
X89643000Y97350000D03*
X89643000Y96550000D03*
X89643000Y95750000D03*
D58*
X91643000Y96550000D03*
D59*
X22200000Y30150000D03*
X23800000Y30150000D03*
X23800000Y28850000D03*
X22200000Y28850000D03*
D27*
X111050000Y32900000D03*
X112950000Y32900000D03*
X112000000Y35100000D03*
D60*
X132110000Y86570000D03*
X134650000Y86570000D03*
X137190000Y86570000D03*
X139730000Y86570000D03*
X142270000Y86570000D03*
X144810000Y86570000D03*
X147350000Y86570000D03*
X149890000Y86570000D03*
X149890000Y109430000D03*
X147350000Y109430000D03*
X144810000Y109430000D03*
X142270000Y109430000D03*
X139730000Y109430000D03*
X137190000Y109430000D03*
X134650000Y109430000D03*
X132110000Y109430000D03*
D61*
X22050000Y6000000D03*
X17950000Y6000000D03*
D19*
X101975000Y7500000D03*
X103525000Y7500000D03*
D62*
X139979400Y33358000D03*
X139979400Y31158000D03*
D20*
X95025000Y19800000D03*
X93475000Y19800000D03*
X94275000Y7500000D03*
X92725000Y7500000D03*
D63*
X55500000Y149525000D03*
X55500000Y152475000D03*
D26*
X129960000Y60500000D03*
X132500000Y60500000D03*
X135040000Y60500000D03*
D63*
X55500000Y157025000D03*
X55500000Y159975000D03*
D64*
X16337500Y133000000D03*
X16337500Y132500000D03*
X16337500Y132000000D03*
X16337500Y131500000D03*
X16337500Y131000000D03*
X16337500Y130500000D03*
X16337500Y130000000D03*
X16337500Y129500000D03*
X16337500Y129000000D03*
X16337500Y128500000D03*
X16337500Y128000000D03*
X16337500Y127500000D03*
X16337500Y127000000D03*
X16337500Y126500000D03*
X16337500Y126000000D03*
X16337500Y125500000D03*
X16337500Y125000000D03*
X16337500Y124500000D03*
X16337500Y124000000D03*
X16337500Y123500000D03*
X16337500Y123000000D03*
X16337500Y122500000D03*
X16337500Y122000000D03*
X16337500Y121500000D03*
X16337500Y121000000D03*
D65*
X18500000Y118837500D03*
X19000000Y118837500D03*
X19500000Y118837500D03*
X20000000Y118837500D03*
X20500000Y118837500D03*
X21000000Y118837500D03*
X21500000Y118837500D03*
X22000000Y118837500D03*
X22500000Y118837500D03*
X23000000Y118837500D03*
X23500000Y118837500D03*
X24000000Y118837500D03*
X24500000Y118837500D03*
X25000000Y118837500D03*
X25500000Y118837500D03*
X26000000Y118837500D03*
X26500000Y118837500D03*
X27000000Y118837500D03*
X27500000Y118837500D03*
X28000000Y118837500D03*
X28500000Y118837500D03*
X29000000Y118837500D03*
X29500000Y118837500D03*
X30000000Y118837500D03*
X30500000Y118837500D03*
D64*
X32662500Y121000000D03*
X32662500Y121500000D03*
X32662500Y122000000D03*
X32662500Y122500000D03*
X32662500Y123000000D03*
X32662500Y123500000D03*
X32662500Y124000000D03*
X32662500Y124500000D03*
X32662500Y125000000D03*
X32662500Y125500000D03*
X32662500Y126000000D03*
X32662500Y126500000D03*
X32662500Y127000000D03*
X32662500Y127500000D03*
X32662500Y128000000D03*
X32662500Y128500000D03*
X32662500Y129000000D03*
X32662500Y129500000D03*
X32662500Y130000000D03*
X32662500Y130500000D03*
X32662500Y131000000D03*
X32662500Y131500000D03*
X32662500Y132000000D03*
X32662500Y132500000D03*
X32662500Y133000000D03*
D65*
X30500000Y135162500D03*
X30000000Y135162500D03*
X29500000Y135162500D03*
X29000000Y135162500D03*
X28500000Y135162500D03*
X28000000Y135162500D03*
X27500000Y135162500D03*
X27000000Y135162500D03*
X26500000Y135162500D03*
X26000000Y135162500D03*
X25500000Y135162500D03*
X25000000Y135162500D03*
X24500000Y135162500D03*
X24000000Y135162500D03*
X23500000Y135162500D03*
X23000000Y135162500D03*
X22500000Y135162500D03*
X22000000Y135162500D03*
X21500000Y135162500D03*
X21000000Y135162500D03*
X20500000Y135162500D03*
X20000000Y135162500D03*
X19500000Y135162500D03*
X19000000Y135162500D03*
X18500000Y135162500D03*
D66*
X24185000Y54650000D03*
X24185000Y55050000D03*
X24185000Y55450000D03*
X24185000Y55850000D03*
X24185000Y56250000D03*
X24185000Y56650000D03*
X24185000Y57050000D03*
X24185000Y57450000D03*
X24185000Y57850000D03*
X24185000Y58250000D03*
X24185000Y58650000D03*
X24185000Y59050000D03*
X24185000Y59450000D03*
X24185000Y59850000D03*
D67*
X23350000Y60685000D03*
X22950000Y60685000D03*
X22550000Y60685000D03*
X22150000Y60685000D03*
X21750000Y60685000D03*
X21350000Y60685000D03*
X20950000Y60685000D03*
X20550000Y60685000D03*
X20150000Y60685000D03*
X19750000Y60685000D03*
X19350000Y60685000D03*
X18950000Y60685000D03*
X18550000Y60685000D03*
X18150000Y60685000D03*
D66*
X17315000Y59850000D03*
X17315000Y59450000D03*
X17315000Y59050000D03*
X17315000Y58650000D03*
X17315000Y58250000D03*
X17315000Y57850000D03*
X17315000Y57450000D03*
X17315000Y57050000D03*
X17315000Y56650000D03*
X17315000Y56250000D03*
X17315000Y55850000D03*
X17315000Y55450000D03*
X17315000Y55050000D03*
X17315000Y54650000D03*
D67*
X18150000Y53815000D03*
X18550000Y53815000D03*
X18950000Y53815000D03*
X19350000Y53815000D03*
X19750000Y53815000D03*
X20150000Y53815000D03*
X20550000Y53815000D03*
X20950000Y53815000D03*
X21350000Y53815000D03*
X21750000Y53815000D03*
X22150000Y53815000D03*
X22550000Y53815000D03*
X22950000Y53815000D03*
X23350000Y53815000D03*
D68*
X20750000Y57250000D03*
D26*
X41540000Y151000000D03*
X39000000Y151000000D03*
X36460000Y151000000D03*
D19*
X50975000Y-4250000D03*
X52525000Y-4250000D03*
D26*
X154500000Y144270000D03*
X154500000Y141730000D03*
D29*
X22860000Y154730000D03*
X20910000Y155530000D03*
X24810000Y155530000D03*
X20110000Y157480000D03*
D30*
X22860000Y157480000D03*
D29*
X25610000Y157480000D03*
X20910000Y159430000D03*
X24810000Y159430000D03*
X22860000Y160230000D03*
D11*
X89825000Y35500000D03*
X88175000Y35500000D03*
D40*
X149100000Y5550000D03*
X149100000Y6500000D03*
X149100000Y7450000D03*
X146900000Y7450000D03*
X146900000Y6500000D03*
X146900000Y5550000D03*
D69*
X156600000Y44500000D03*
X154400000Y44500000D03*
D32*
X53870000Y104345000D03*
X53870000Y110145000D03*
X56410000Y104345000D03*
X56410000Y110145000D03*
X58950000Y104345000D03*
X58950000Y110145000D03*
X61490000Y104345000D03*
X61490000Y110145000D03*
X64030000Y104345000D03*
X64030000Y110145000D03*
X66570000Y104345000D03*
X66570000Y110145000D03*
X69110000Y104345000D03*
X69110000Y110145000D03*
X71650000Y104345000D03*
X71650000Y110145000D03*
X74190000Y104345000D03*
X74190000Y110145000D03*
X76730000Y104345000D03*
X76730000Y110145000D03*
X79270000Y104345000D03*
X79270000Y110145000D03*
X81810000Y104345000D03*
X81810000Y110145000D03*
X84350000Y104345000D03*
X84350000Y110145000D03*
X86890000Y104345000D03*
X86890000Y110145000D03*
X89430000Y104345000D03*
X89430000Y110145000D03*
X91970000Y104345000D03*
X91970000Y110145000D03*
X94510000Y104345000D03*
X94510000Y110145000D03*
X97050000Y104345000D03*
X97050000Y110145000D03*
X99590000Y104345000D03*
X99590000Y110145000D03*
X102130000Y104345000D03*
X102130000Y110145000D03*
D42*
X52000000Y150087500D03*
X52000000Y151912500D03*
D11*
X95075000Y21500000D03*
X93425000Y21500000D03*
D70*
X144600000Y-2000000D03*
D71*
X145870000Y-2000000D03*
X147140000Y-2000000D03*
X148410000Y-2000000D03*
D72*
X96425000Y131900000D03*
X95775000Y131900000D03*
X95125000Y131900000D03*
X94475000Y131900000D03*
X93825000Y131900000D03*
X93175000Y131900000D03*
X92525000Y131900000D03*
X91875000Y131900000D03*
X91225000Y131900000D03*
X90575000Y131900000D03*
X90575000Y126100000D03*
X91225000Y126100000D03*
X91875000Y126100000D03*
X92525000Y126100000D03*
X93175000Y126100000D03*
X93825000Y126100000D03*
X94475000Y126100000D03*
X95125000Y126100000D03*
X95775000Y126100000D03*
X96425000Y126100000D03*
D73*
X26100000Y62900000D03*
X26100000Y65100000D03*
X24400000Y65100000D03*
X24400000Y62900000D03*
D31*
X156500000Y18000000D03*
X156500000Y26000000D03*
X152000000Y18000000D03*
X152000000Y26000000D03*
D19*
X7725000Y46250000D03*
X9275000Y46250000D03*
D74*
X5680000Y59300000D03*
X5680000Y56800000D03*
X5680000Y54800000D03*
X5680000Y52300000D03*
X3080000Y59300000D03*
X3080000Y56800000D03*
X3080000Y54800000D03*
X3080000Y52300000D03*
D75*
X6080000Y62350000D03*
X380000Y62350000D03*
X6080000Y49250000D03*
X380000Y49250000D03*
D36*
X119322000Y56340000D03*
D37*
X124402000Y58500000D03*
D38*
X121862000Y58500000D03*
X119322000Y58500000D03*
X116782000Y58500000D03*
D19*
X103225000Y26500000D03*
X104775000Y26500000D03*
D76*
X154480000Y59000000D03*
X141520000Y59000000D03*
D77*
X144190000Y59500000D03*
D78*
X145460000Y58500000D03*
X146730000Y58500000D03*
D79*
X148000000Y59500000D03*
D78*
X149270000Y58500000D03*
X150540000Y58500000D03*
D79*
X151810000Y59500000D03*
D27*
X137550000Y9900000D03*
X139450000Y9900000D03*
X138500000Y12100000D03*
D29*
X154940000Y154730000D03*
X152990000Y155530000D03*
X156890000Y155530000D03*
X152190000Y157480000D03*
D30*
X154940000Y157480000D03*
D29*
X157690000Y157480000D03*
X152990000Y159430000D03*
X156890000Y159430000D03*
X154940000Y160230000D03*
D27*
X156450000Y49100000D03*
X154550000Y49100000D03*
X155500000Y46900000D03*
D43*
X920000Y88545000D03*
X920000Y85775000D03*
X920000Y83005000D03*
X920000Y80235000D03*
X920000Y77465000D03*
X-1920000Y87160000D03*
X-1920000Y84390000D03*
X-1920000Y81620000D03*
X-1920000Y78850000D03*
D80*
X-500000Y70510000D03*
X-500000Y95500000D03*
D27*
X6450000Y146500000D03*
X5500000Y146500000D03*
X4550000Y146500000D03*
X4550000Y144300000D03*
X6450000Y144300000D03*
D81*
X105495000Y19690000D03*
X105495000Y20960000D03*
X105495000Y22230000D03*
X105495000Y23500000D03*
X100500000Y23500000D03*
X100500000Y22230000D03*
X100500000Y20960000D03*
X100500000Y19690000D03*
D82*
X102997500Y21595000D03*
D74*
X16170000Y25200000D03*
X16170000Y22660000D03*
X16170000Y13340000D03*
X16170000Y10800000D03*
X13340000Y13550000D03*
X10800000Y14825000D03*
X13340000Y16095000D03*
X10800000Y17365000D03*
X13340000Y18635000D03*
X10800000Y19905000D03*
X13340000Y21175000D03*
X10800000Y22445000D03*
D83*
X10800000Y27325000D03*
X-1800000Y27325000D03*
X6480000Y24570000D03*
X800000Y24570000D03*
X6480000Y11430000D03*
X800000Y11430000D03*
X10800000Y8675000D03*
X-1800000Y8675000D03*
D74*
X3860000Y21540000D03*
X3860000Y19000000D03*
X3860000Y17000000D03*
X3860000Y14460000D03*
X6480000Y21540000D03*
X6480000Y19000000D03*
X6480000Y17000000D03*
X6480000Y14460000D03*
D14*
X108500000Y17325000D03*
X108500000Y15675000D03*
D19*
X116475000Y7500000D03*
X118025000Y7500000D03*
D84*
X131610000Y23300000D03*
D85*
X129070000Y23300000D03*
X126530000Y23300000D03*
X123990000Y23300000D03*
X121450000Y23300000D03*
X118910000Y23300000D03*
X116370000Y23300000D03*
X116370000Y15680000D03*
X118910000Y15680000D03*
X121450000Y15680000D03*
X123990000Y15680000D03*
X126530000Y15680000D03*
X129070000Y15680000D03*
X131610000Y15680000D03*
D40*
X32100000Y41300000D03*
X29900000Y42250000D03*
X32100000Y43200000D03*
D59*
X22200000Y27150000D03*
X23800000Y27150000D03*
X23800000Y25850000D03*
X22200000Y25850000D03*
D19*
X55725000Y11250000D03*
X57275000Y11250000D03*
D26*
X132751200Y36000000D03*
X126248800Y36000000D03*
D20*
X149275000Y113000000D03*
X147725000Y113000000D03*
D59*
X9200000Y57150000D03*
X10800000Y57150000D03*
X10800000Y55850000D03*
X9200000Y55850000D03*
D19*
X54725000Y71500000D03*
X56275000Y71500000D03*
D27*
X98300000Y127900000D03*
X99250000Y127900000D03*
X100200000Y127900000D03*
X100200000Y130100000D03*
X98300000Y130100000D03*
D18*
X7250000Y6775000D03*
X7250000Y5225000D03*
D26*
X143000000Y28690000D03*
X143000000Y31230000D03*
X143000000Y33770000D03*
X143000000Y36310000D03*
D18*
X59250000Y18275000D03*
X59250000Y16725000D03*
D53*
X6730000Y129930000D03*
D26*
X9270000Y129930000D03*
X6730000Y127390000D03*
X9270000Y127390000D03*
X6730000Y124850000D03*
X9270000Y124850000D03*
X6730000Y122310000D03*
X9270000Y122310000D03*
X6730000Y119770000D03*
X9270000Y119770000D03*
X6730000Y117230000D03*
X9270000Y117230000D03*
X6730000Y114690000D03*
X9270000Y114690000D03*
X6730000Y112150000D03*
X9270000Y112150000D03*
X6730000Y109610000D03*
X9270000Y109610000D03*
X6730000Y107070000D03*
X9270000Y107070000D03*
D75*
X5700000Y162040000D03*
X-5600000Y162040000D03*
D86*
X-1800000Y156000000D03*
D75*
X5700000Y149960000D03*
X-5600000Y149960000D03*
D86*
X-1800000Y151000000D03*
X-1800000Y153500000D03*
X-1800000Y158500000D03*
X-1800000Y161000000D03*
X3200000Y152250000D03*
X3200000Y154750000D03*
X3200000Y157250000D03*
X3200000Y159750000D03*
X8200000Y152250000D03*
X8200000Y154750000D03*
X8200000Y157250000D03*
X8200000Y159750000D03*
D17*
X51000000Y725000D03*
X51000000Y2275000D03*
D87*
X60900000Y157750000D03*
X65100000Y157750000D03*
X69300000Y157750000D03*
X73500000Y157750000D03*
X77700000Y157750000D03*
X81900000Y157750000D03*
X86100000Y157750000D03*
X90300000Y157750000D03*
X94500000Y157750000D03*
X98700000Y157750000D03*
X102900000Y157750000D03*
X107100000Y157750000D03*
X60900000Y152250000D03*
X65100000Y152250000D03*
X69300000Y152250000D03*
X73500000Y152250000D03*
X77700000Y152250000D03*
X81900000Y152250000D03*
X86100000Y152250000D03*
X90300000Y152250000D03*
X94500000Y152250000D03*
X98700000Y152250000D03*
X102900000Y152250000D03*
X107100000Y152250000D03*
D26*
X26040000Y41500000D03*
X23500000Y41500000D03*
X20960000Y41500000D03*
D20*
X112039400Y7500000D03*
X110489400Y7500000D03*
D14*
X57500000Y18325000D03*
X57500000Y16675000D03*
D63*
X112500000Y149525000D03*
X112500000Y152475000D03*
D18*
X146964400Y28715000D03*
X146964400Y27165000D03*
D40*
X75100000Y93550000D03*
X75100000Y94500000D03*
X75100000Y95450000D03*
X72900000Y95450000D03*
X72900000Y93550000D03*
D26*
X72300000Y139000000D03*
X74840000Y139000000D03*
X77380000Y139000000D03*
D17*
X97002600Y134226000D03*
X97002600Y135776000D03*
D14*
X55750000Y16575000D03*
X55750000Y14925000D03*
D18*
X1500000Y6775000D03*
X1500000Y5225000D03*
D51*
X11500000Y60287500D03*
X11500000Y58712500D03*
D18*
X9500000Y60275000D03*
X9500000Y58725000D03*
D26*
X26040000Y35500000D03*
X23500000Y35500000D03*
X20960000Y35500000D03*
D27*
X138050000Y39400000D03*
X139950000Y39400000D03*
X139000000Y41600000D03*
D26*
X115960000Y37000000D03*
X118500000Y37000000D03*
X121040000Y37000000D03*
D27*
X140950000Y-2150000D03*
X139050000Y-2150000D03*
X140000000Y-4350000D03*
D18*
X51000000Y5525000D03*
X51000000Y3975000D03*
D26*
X32520000Y55750000D03*
X29980000Y55750000D03*
D36*
X141822000Y153031500D03*
D37*
X146902000Y155191500D03*
D38*
X144362000Y155191500D03*
X141822000Y155191500D03*
X139282000Y155191500D03*
D88*
X116000000Y159912500D03*
X116000000Y158087500D03*
D26*
X6000000Y92380000D03*
X6000000Y94920000D03*
X6000000Y97460000D03*
X6000000Y100000000D03*
D89*
X31100000Y47595000D03*
X31100000Y48865000D03*
X31100000Y50135000D03*
X31100000Y51405000D03*
X23900000Y51405000D03*
X23900000Y50135000D03*
X23900000Y48865000D03*
X23900000Y47595000D03*
D40*
X32100000Y34300000D03*
X29900000Y35250000D03*
X32100000Y36200000D03*
D51*
X3886200Y102819300D03*
X3886200Y101244300D03*
D80*
X41825000Y56000000D03*
X107825000Y56000000D03*
X41825000Y78000000D03*
X107825000Y78000000D03*
D90*
X55140000Y53950000D03*
X55140000Y58050000D03*
X56410000Y53950000D03*
X56410000Y58050000D03*
X57680000Y53950000D03*
X57680000Y58050000D03*
X58950000Y53950000D03*
X58950000Y58050000D03*
X60220000Y53950000D03*
X60220000Y58050000D03*
X61490000Y53950000D03*
X61490000Y58050000D03*
X62760000Y53950000D03*
X62760000Y58050000D03*
X64030000Y53950000D03*
X64030000Y58050000D03*
X65300000Y53950000D03*
X65300000Y58050000D03*
X66570000Y53950000D03*
X66570000Y58050000D03*
X67840000Y53950000D03*
X67840000Y58050000D03*
X69110000Y53950000D03*
X69110000Y58050000D03*
X70380000Y53950000D03*
X70380000Y58050000D03*
X71650000Y53950000D03*
X71650000Y58050000D03*
X72920000Y53950000D03*
X72920000Y58050000D03*
X74190000Y53950000D03*
X74190000Y58050000D03*
X75460000Y53950000D03*
X75460000Y58050000D03*
X76730000Y53950000D03*
X76730000Y58050000D03*
X78000000Y53950000D03*
X78000000Y58050000D03*
X79270000Y53950000D03*
X79270000Y58050000D03*
X80540000Y53950000D03*
X80540000Y58050000D03*
X81810000Y53950000D03*
X81810000Y58050000D03*
X83080000Y53950000D03*
X83080000Y58050000D03*
X84350000Y53950000D03*
X84350000Y58050000D03*
X85620000Y53950000D03*
X85620000Y58050000D03*
X86890000Y53950000D03*
X86890000Y58050000D03*
X88160000Y53950000D03*
X88160000Y58050000D03*
X89430000Y53950000D03*
X89430000Y58050000D03*
X90700000Y53950000D03*
X90700000Y58050000D03*
X91970000Y53950000D03*
X91970000Y58050000D03*
X93240000Y53950000D03*
X93240000Y58050000D03*
X94510000Y53950000D03*
X94510000Y58050000D03*
X55140000Y75950000D03*
X55140000Y80050000D03*
X56410000Y75950000D03*
X56410000Y80050000D03*
X57680000Y75950000D03*
X57680000Y80050000D03*
X58950000Y75950000D03*
X58950000Y80050000D03*
X60220000Y75950000D03*
X60220000Y80050000D03*
X61490000Y75950000D03*
X61490000Y80050000D03*
X62760000Y75950000D03*
X62760000Y80050000D03*
X64030000Y75950000D03*
X64030000Y80050000D03*
X65300000Y75950000D03*
X65300000Y80050000D03*
X66570000Y75950000D03*
X66580000Y80050000D03*
X67840000Y75950000D03*
X67840000Y80050000D03*
X69110000Y75950000D03*
X69110000Y80050000D03*
X70380000Y75950000D03*
X70380000Y80050000D03*
X71650000Y75950000D03*
X71650000Y80050000D03*
X72920000Y75950000D03*
X72920000Y80050000D03*
X74190000Y75950000D03*
X74190000Y80050000D03*
X75460000Y75950000D03*
X75460000Y80050000D03*
X76730000Y75950000D03*
X76730000Y80050000D03*
X78000000Y75950000D03*
X78000000Y80050000D03*
X79270000Y75950000D03*
X79270000Y80050000D03*
X80540000Y75950000D03*
X80540000Y80050000D03*
X81810000Y75950000D03*
X81810000Y80050000D03*
X83080000Y75950000D03*
X83080000Y80050000D03*
X84350000Y75950000D03*
X84350000Y80050000D03*
X85620000Y75950000D03*
X85620000Y80050000D03*
X86890000Y75950000D03*
X86890000Y80050000D03*
X88160000Y75950000D03*
X88160000Y80050000D03*
X89430000Y75950000D03*
X89430000Y80050000D03*
X90700000Y75950000D03*
X90700000Y80050000D03*
X91970000Y75950000D03*
X91970000Y80050000D03*
X93240000Y75950000D03*
X93240000Y80050000D03*
X94510000Y75950000D03*
X94510000Y80050000D03*
D17*
X90500000Y134225000D03*
X90500000Y135775000D03*
D26*
X155751200Y36000000D03*
X149248800Y36000000D03*
D59*
X9200000Y53650000D03*
X10800000Y53650000D03*
X10800000Y52350000D03*
X9200000Y52350000D03*
D20*
X14211600Y158546800D03*
X12661600Y158546800D03*
D91*
X13515000Y147782600D03*
X13515000Y146512600D03*
X13515000Y145242600D03*
X13515000Y143972600D03*
X18465000Y143972600D03*
X18465000Y145242600D03*
X18465000Y146512600D03*
X18465000Y147782600D03*
D92*
X13575000Y137500000D03*
X8425000Y137500000D03*
D69*
X130600000Y43500000D03*
X128400000Y43500000D03*
D20*
X14275000Y153500000D03*
X12725000Y153500000D03*
D26*
X140460000Y161000000D03*
X143000000Y161000000D03*
X145540000Y161000000D03*
D93*
X28765000Y11555000D03*
X28765000Y12825000D03*
X28765000Y14095000D03*
X28765000Y15365000D03*
X28765000Y16635000D03*
X28765000Y17905000D03*
X28765000Y19175000D03*
X28765000Y20445000D03*
X20235000Y20445000D03*
X20235000Y19175000D03*
X20235000Y17905000D03*
X20235000Y16635000D03*
X20235000Y15365000D03*
X20235000Y14095000D03*
X20235000Y12825000D03*
X20235000Y11555000D03*
D17*
X98171000Y124218400D03*
X98171000Y125768400D03*
D84*
X450000Y108805000D03*
D43*
X450000Y111575000D03*
X450000Y114345000D03*
X450000Y117115000D03*
X450000Y119885000D03*
X450000Y122655000D03*
X450000Y125425000D03*
X450000Y128195000D03*
X-2390000Y110190000D03*
X-2390000Y112960000D03*
X-2390000Y115730000D03*
X-2390000Y118500000D03*
X-2390000Y121270000D03*
X-2390000Y124040000D03*
X-2390000Y126810000D03*
D94*
X-970000Y135150000D03*
X-970000Y101850000D03*
D20*
X95025000Y25750000D03*
X93475000Y25750000D03*
D95*
X69197732Y20965856D03*
X69480575Y20683014D03*
X69763418Y20400171D03*
X70046260Y20117328D03*
X70329103Y19834485D03*
X70611946Y19551643D03*
X70894789Y19268800D03*
X71177631Y18985957D03*
X71460474Y18703115D03*
X71743317Y18420272D03*
X72026159Y18137429D03*
X72309002Y17854586D03*
X72591845Y17571744D03*
X72874688Y17288901D03*
X73157530Y17006058D03*
X73440373Y16723216D03*
X73723216Y16440373D03*
X74006058Y16157530D03*
X74288901Y15874688D03*
X74571744Y15591845D03*
X74854586Y15309002D03*
X75137429Y15026159D03*
X75420272Y14743317D03*
X75703115Y14460474D03*
X75985957Y14177631D03*
X76268800Y13894789D03*
X76551643Y13611946D03*
X76834485Y13329103D03*
X77117328Y13046260D03*
X77400171Y12763418D03*
X77683014Y12480575D03*
X77965856Y12197732D03*
D96*
X80034144Y12197732D03*
X80316986Y12480575D03*
X80599829Y12763418D03*
X80882672Y13046260D03*
X81165515Y13329103D03*
X81448357Y13611946D03*
X81731200Y13894789D03*
X82014043Y14177631D03*
X82296885Y14460474D03*
X82579728Y14743317D03*
X82862571Y15026159D03*
X83145414Y15309002D03*
X83428256Y15591845D03*
X83711099Y15874688D03*
X83993942Y16157530D03*
X84276784Y16440373D03*
X84559627Y16723216D03*
X84842470Y17006058D03*
X85125312Y17288901D03*
X85408155Y17571744D03*
X85690998Y17854586D03*
X85973841Y18137429D03*
X86256683Y18420272D03*
X86539526Y18703115D03*
X86822369Y18985957D03*
X87105211Y19268800D03*
X87388054Y19551643D03*
X87670897Y19834485D03*
X87953740Y20117328D03*
X88236582Y20400171D03*
X88519425Y20683014D03*
X88802268Y20965856D03*
D95*
X88802268Y23034144D03*
X88519425Y23316986D03*
X88236582Y23599829D03*
X87953740Y23882672D03*
X87670897Y24165515D03*
X87388054Y24448357D03*
X87105211Y24731200D03*
X86822369Y25014043D03*
X86539526Y25296885D03*
X86256683Y25579728D03*
X85973841Y25862571D03*
X85690998Y26145414D03*
X85408155Y26428256D03*
X85125312Y26711099D03*
X84842470Y26993942D03*
X84559627Y27276784D03*
X84276784Y27559627D03*
X83993942Y27842470D03*
X83711099Y28125312D03*
X83428256Y28408155D03*
X83145414Y28690998D03*
X82862571Y28973841D03*
X82579728Y29256683D03*
X82296885Y29539526D03*
X82014043Y29822369D03*
X81731200Y30105211D03*
X81448357Y30388054D03*
X81165515Y30670897D03*
X80882672Y30953740D03*
X80599829Y31236582D03*
X80316986Y31519425D03*
X80034144Y31802268D03*
D96*
X77965856Y31802268D03*
X77683014Y31519425D03*
X77400171Y31236582D03*
X77117328Y30953740D03*
X76834485Y30670897D03*
X76551643Y30388054D03*
X76268800Y30105211D03*
X75985957Y29822369D03*
X75703115Y29539526D03*
X75420272Y29256683D03*
X75137429Y28973841D03*
X74854586Y28690998D03*
X74571744Y28408155D03*
X74288901Y28125312D03*
X74006058Y27842470D03*
X73723216Y27559627D03*
X73440373Y27276784D03*
X73157530Y26993942D03*
X72874688Y26711099D03*
X72591845Y26428256D03*
X72309002Y26145414D03*
X72026159Y25862571D03*
X71743317Y25579728D03*
X71460474Y25296885D03*
X71177631Y25014043D03*
X70894789Y24731200D03*
X70611946Y24448357D03*
X70329103Y24165515D03*
X70046260Y23882672D03*
X69763418Y23599829D03*
X69480575Y23316986D03*
X69197732Y23034144D03*
D97*
X79000000Y22000000D03*
M02*
