G04 #@! TF.GenerationSoftware,KiCad,Pcbnew,9.0.0-9.0.0-2~ubuntu24.04.1*
G04 #@! TF.CreationDate,2025-02-26T22:28:52+01:00*
G04 #@! TF.ProjectId,ITX-Llama,4954582d-4c6c-4616-9d61-2e6b69636164,K*
G04 #@! TF.SameCoordinates,Original*
G04 #@! TF.FileFunction,Paste,Bot*
G04 #@! TF.FilePolarity,Positive*
%FSLAX46Y46*%
G04 Gerber Fmt 4.6, Leading zero omitted, Abs format (unit mm)*
G04 Created by KiCad (PCBNEW 9.0.0-9.0.0-2~ubuntu24.04.1) date 2025-02-26 22:28:52*
%MOMM*%
%LPD*%
G01*
G04 APERTURE LIST*
G04 Aperture macros list*
%AMRoundRect*
0 Rectangle with rounded corners*
0 $1 Rounding radius*
0 $2 $3 $4 $5 $6 $7 $8 $9 X,Y pos of 4 corners*
0 Add a 4 corners polygon primitive as box body*
4,1,4,$2,$3,$4,$5,$6,$7,$8,$9,$2,$3,0*
0 Add four circle primitives for the rounded corners*
1,1,$1+$1,$2,$3*
1,1,$1+$1,$4,$5*
1,1,$1+$1,$6,$7*
1,1,$1+$1,$8,$9*
0 Add four rect primitives between the rounded corners*
20,1,$1+$1,$2,$3,$4,$5,0*
20,1,$1+$1,$4,$5,$6,$7,0*
20,1,$1+$1,$6,$7,$8,$9,0*
20,1,$1+$1,$8,$9,$2,$3,0*%
G04 Aperture macros list end*
%ADD10RoundRect,0.200000X-0.200000X-0.275000X0.200000X-0.275000X0.200000X0.275000X-0.200000X0.275000X0*%
%ADD11RoundRect,0.200000X0.200000X0.275000X-0.200000X0.275000X-0.200000X-0.275000X0.200000X-0.275000X0*%
%ADD12RoundRect,0.200000X0.335876X0.053033X0.053033X0.335876X-0.335876X-0.053033X-0.053033X-0.335876X0*%
%ADD13RoundRect,0.200000X-0.335876X-0.053033X-0.053033X-0.335876X0.335876X0.053033X0.053033X0.335876X0*%
%ADD14RoundRect,0.200000X0.275000X-0.200000X0.275000X0.200000X-0.275000X0.200000X-0.275000X-0.200000X0*%
%ADD15RoundRect,0.200000X-0.275000X0.200000X-0.275000X-0.200000X0.275000X-0.200000X0.275000X0.200000X0*%
%ADD16RoundRect,0.225000X0.250000X-0.225000X0.250000X0.225000X-0.250000X0.225000X-0.250000X-0.225000X0*%
%ADD17RoundRect,0.225000X0.335876X0.017678X0.017678X0.335876X-0.335876X-0.017678X-0.017678X-0.335876X0*%
%ADD18RoundRect,0.225000X-0.225000X-0.250000X0.225000X-0.250000X0.225000X0.250000X-0.225000X0.250000X0*%
%ADD19RoundRect,0.225000X-0.335876X-0.017678X-0.017678X-0.335876X0.335876X0.017678X0.017678X0.335876X0*%
%ADD20RoundRect,0.225000X-0.017678X0.335876X-0.335876X0.017678X0.017678X-0.335876X0.335876X-0.017678X0*%
%ADD21RoundRect,0.225000X-0.250000X0.225000X-0.250000X-0.225000X0.250000X-0.225000X0.250000X0.225000X0*%
G04 APERTURE END LIST*
D10*
X2756400Y115189000D03*
X4406400Y115189000D03*
X2654800Y111887000D03*
X4304800Y111887000D03*
D11*
X4330200Y108839000D03*
X2680200Y108839000D03*
X4355600Y122402600D03*
X2705600Y122402600D03*
D12*
X74243363Y12472237D03*
X73076637Y13638963D03*
D13*
X75388037Y11302163D03*
X76554763Y10135437D03*
D14*
X87731600Y-4965200D03*
X87731600Y-3315200D03*
X115250000Y-4825000D03*
X115250000Y-3175000D03*
D15*
X47100000Y12825000D03*
X47100000Y11175000D03*
X44900000Y12825000D03*
X44900000Y11175000D03*
X42700000Y12825000D03*
X42700000Y11175000D03*
X38300000Y12825000D03*
X38300000Y11175000D03*
X36100000Y12825000D03*
X36100000Y11175000D03*
X33900000Y12825000D03*
X33900000Y11175000D03*
D16*
X99695000Y-4813600D03*
X99695000Y-3263600D03*
X83794600Y-5016800D03*
X83794600Y-3466800D03*
X73634600Y-4991400D03*
X73634600Y-3441400D03*
X72085200Y-4991400D03*
X72085200Y-3441400D03*
X65278000Y-5042200D03*
X65278000Y-3492200D03*
X63728600Y-5042200D03*
X63728600Y-3492200D03*
D17*
X90641808Y18044792D03*
X89545792Y19140808D03*
D18*
X68973400Y10769600D03*
X70523400Y10769600D03*
X65442800Y18465800D03*
X66992800Y18465800D03*
D19*
X67701792Y25897208D03*
X68797808Y24801192D03*
X71105392Y29275408D03*
X72201408Y28179392D03*
X73467592Y31561408D03*
X74563608Y30465392D03*
D20*
X82615408Y33542608D03*
X81519392Y32446592D03*
X86323808Y29656408D03*
X85227792Y28560392D03*
X88533608Y27294208D03*
X87437592Y26198192D03*
D17*
X87441408Y15453992D03*
X86345392Y16550008D03*
D16*
X119250000Y-4775000D03*
X119250000Y-3225000D03*
X113250000Y-4775000D03*
X113250000Y-3225000D03*
X108250000Y-4775000D03*
X108250000Y-3225000D03*
X53949600Y-5042200D03*
X53949600Y-3492200D03*
X102500000Y-4775000D03*
X102500000Y-3225000D03*
X95453200Y-4839000D03*
X95453200Y-3289000D03*
X89789000Y-4889800D03*
X89789000Y-3339800D03*
X61750000Y-5042200D03*
X61750000Y-3492200D03*
X40500000Y11225000D03*
X40500000Y12775000D03*
D21*
X92354400Y-3314400D03*
X92354400Y-4864400D03*
D16*
X59156600Y-5042200D03*
X59156600Y-3492200D03*
D21*
X57124600Y-3492200D03*
X57124600Y-5042200D03*
X81500000Y-3475000D03*
X81500000Y-5025000D03*
X68757800Y-3466800D03*
X68757800Y-5016800D03*
X110794800Y-3263600D03*
X110794800Y-4813600D03*
X104927400Y-3289000D03*
X104927400Y-4839000D03*
X97993200Y-3314400D03*
X97993200Y-4864400D03*
M02*
