M48
; DRILL file {KiCad 9.0.0-9.0.0-2~ubuntu24.04.1} date 2025-02-26T22:28:46+0100
; FORMAT={-:-/ absolute / inch / decimal}
; #@! TF.CreationDate,2025-02-26T22:28:46+01:00
; #@! TF.GenerationSoftware,Kicad,Pcbnew,9.0.0-9.0.0-2~ubuntu24.04.1
; #@! TF.FileFunction,Plated,1,4,PTH
FMAT,2
INCH
; #@! TA.AperFunction,Plated,PTH,ViaDrill
T1C0.0118
; #@! TA.AperFunction,Plated,PTH,ComponentDrill
T2C0.0118
; #@! TA.AperFunction,Plated,PTH,ViaDrill
T3C0.0157
; #@! TA.AperFunction,Plated,PTH,ViaDrill
T4C0.0236
; #@! TA.AperFunction,Plated,PTH,ComponentDrill
T5C0.0295
; #@! TA.AperFunction,Plated,PTH,ComponentDrill
T6C0.0315
; #@! TA.AperFunction,Plated,PTH,ComponentDrill
T7C0.0320
; #@! TA.AperFunction,Plated,PTH,ComponentDrill
T8C0.0354
; #@! TA.AperFunction,Plated,PTH,ComponentDrill
T9C0.0394
; #@! TA.AperFunction,Plated,PTH,ComponentDrill
T10C0.0400
; #@! TA.AperFunction,Plated,PTH,ComponentDrill
T11C0.0402
; #@! TA.AperFunction,Plated,PTH,ComponentDrill
T12C0.0429
; #@! TA.AperFunction,Plated,PTH,ComponentDrill
T13C0.0433
; #@! TA.AperFunction,Plated,PTH,ComponentDrill
T14C0.0472
; #@! TA.AperFunction,Plated,PTH,ComponentDrill
T15C0.0551
; #@! TA.AperFunction,Plated,PTH,ComponentDrill
T16C0.0591
; #@! TA.AperFunction,Plated,PTH,ComponentDrill
T17C0.0906
; #@! TA.AperFunction,Plated,PTH,ComponentDrill
T18C0.0925
; #@! TA.AperFunction,Plated,PTH,ComponentDrill
T19C0.1201
; #@! TA.AperFunction,Plated,PTH,ComponentDrill
T20C0.1260
; #@! TA.AperFunction,Plated,PTH,ComponentDrill
T21C0.1575
%
G90
G05
T1
X-0.002Y5.5236
X0.109Y4.533
X0.1102Y4.6358
X0.113Y4.82
X0.151Y4.347
X0.153Y4.7255
X0.1535Y3.135
X0.156Y4.76
X0.176Y4.819
X0.1811Y3.4409
X0.1823Y4.4993
X0.2087Y4.5827
X0.2165Y5.7244
X0.2244Y4.6772
X0.2402Y4.3583
X0.2402Y0.2402
X0.2421Y4.4783
X0.4331Y5.2953
X0.4724Y2.0079
X0.4882Y2.4114
X0.5217Y2.3425
X0.5413Y2.1358
X0.5472Y1.3189
X0.578Y4.9606
X0.5787Y3.4921
X0.6004Y1.6732
X0.6004Y1.5551
X0.6004Y1.437
X0.6004Y1.3189
X0.6193Y2.1949
X0.6299Y6.1457
X0.6378Y3.5354
X0.6545Y5.463
X0.6878Y5.8495
X0.7087Y4.5315
X0.7185Y2.2933
X0.7283Y0.561
X0.73Y5.9113
X0.7323Y1.748
X0.7441Y4.9449
X0.7441Y4.9134
X0.755Y5.623
X0.7618Y5.2303
X0.7677Y0.9449
X0.7864Y2.2844
X0.7864Y2.2539
X0.7864Y2.2234
X0.7933Y5.2303
X0.7933Y2.1555
X0.8067Y5.6684
X0.8091Y2.3465
X0.8169Y2.2844
X0.8169Y2.2539
X0.8169Y2.2234
X0.8169Y1.8996
X0.8465Y5.3858
X0.8474Y2.2844
X0.8474Y2.2539
X0.8474Y2.2234
X0.8661Y5.4035
X0.8755Y5.63
X0.8858Y5.3858
X0.8957Y2.4232
X0.8986Y5.4547
X0.9055Y5.4035
X0.935Y5.4035
X0.935Y2.4193
X0.95Y4.522
X0.9626Y5.4035
X0.9636Y5.4547
X0.9646Y0.9252
X0.976Y4.502
X0.9843Y4.5906
X0.9882Y2.0965
X0.9902Y2.024
X0.9931Y5.6299
X1.0039Y4.5709
X1.0039Y4.4921
X1.0138Y2.628
X1.0146Y2.3228
X1.0157Y5.6614
X1.029Y5.572
X1.039Y5.389
X1.039Y5.389
X1.043Y5.415
X1.0685Y2.101
X1.101Y5.569
X1.1024Y4.6083
X1.1024Y2.2913
X1.113Y5.485
X1.1181Y5.4055
X1.122Y5.2323
X1.122Y4.7717
X1.122Y2.6575
X1.1634Y2.3917
X1.1693Y2.0236
X1.1715Y5.63
X1.1772Y5.7323
X1.185Y5.0669
X1.185Y5.0276
X1.1929Y5.1417
X1.1929Y4.8248
X1.1969Y5.2323
X1.1969Y2.3917
X1.2008Y5.7087
X1.2303Y0.3543
X1.2324Y5.7876
X1.2561Y5.7639
X1.2598Y5.9646
X1.261Y5.833
X1.332Y0.443
X1.334Y0.504
X1.3372Y0.8878
X1.3425Y5.6614
X1.3504Y4.9606
X1.3543Y4.9154
X1.3583Y5.1142
X1.374Y4.939
X1.378Y4.5079
X1.384Y5.102
X1.3976Y4.9921
X1.421Y0.504
X1.421Y0.439
X1.437Y5.0906
X1.4567Y1.1024
X1.4606Y5.0
X1.4764Y0.6535
X1.4862Y5.1181
X1.4961Y5.5433
X1.507Y0.505
X1.507Y0.439
X1.5118Y5.5669
X1.5157Y4.8878
X1.5236Y0.6535
X1.5354Y4.9055
X1.5423Y5.2756
X1.5445Y5.337
X1.5551Y4.8878
X1.5669Y0.6535
X1.5748Y4.9055
X1.5748Y0.9055
X1.5945Y4.8878
X1.5945Y0.5929
X1.5945Y0.505
X1.5945Y0.4375
X1.6142Y4.9055
X1.6142Y0.6535
X1.6339Y4.8583
X1.6614Y0.6535
X1.664Y5.174
X1.681Y0.505
X1.683Y0.44
X1.7244Y0.6535
X1.7421Y2.648
X1.768Y0.505
X1.769Y0.44
X1.811Y0.6535
X1.815Y2.7756
X1.815Y1.9843
X1.854Y0.44
X1.8543Y0.4925
X1.878Y2.4508
X1.9016Y2.4705
X1.9449Y2.4317
X1.9528Y4.8583
X2.005Y-0.168
X2.007Y-0.1
X2.025Y5.2535
X2.026Y5.377
X2.057Y5.022
X2.0591Y1.5921
X2.0709Y6.0551
X2.0728Y0.1516
X2.1181Y4.9409
X2.123Y-0.198
X2.124Y-0.137
X2.1555Y2.7756
X2.1693Y4.7795
X2.1693Y4.3364
X2.1713Y2.3819
X2.1811Y5.5945
X2.1811Y5.5354
X2.2047Y5.5945
X2.2047Y5.5354
X2.2205Y2.3819
X2.2209Y4.626
X2.2441Y3.8976
X2.2441Y3.6516
X2.246Y-0.135
X2.249Y-0.198
X2.2697Y2.3819
X2.2717Y4.8543
X2.2717Y2.0276
X2.2717Y1.9685
X2.313Y0.9941
X2.3209Y2.3819
X2.3209Y2.0276
X2.3209Y1.9882
X2.3213Y4.626
X2.3213Y4.4094
X2.329Y-0.142
X2.331Y-0.199
X2.3819Y0.8453
X2.3819Y0.7752
X2.3819Y0.7195
X2.3819Y0.6594
X2.42Y-0.145
X2.431Y0.3435
X2.431Y-0.198
X2.4311Y3.3366
X2.4449Y2.0197
X2.469Y-0.2
X2.4709Y1.9685
X2.4961Y2.0472
X2.509Y-0.199
X2.5209Y3.0571
X2.5217Y3.5846
X2.5217Y2.0276
X2.5453Y3.6043
X2.5453Y3.248
X2.558Y0.3435
X2.569Y-0.199
X2.5709Y4.4409
X2.5709Y4.2205
X2.5709Y3.5846
X2.5709Y3.0571
X2.5755Y0.902
X2.577Y0.727
X2.5945Y3.6046
X2.5945Y3.2472
X2.607Y0.809
X2.6142Y1.5276
X2.6201Y2.3819
X2.6378Y0.3425
X2.6457Y0.9537
X2.6559Y2.2043
X2.6638Y1.9803
X2.6638Y1.9409
X2.6693Y0.2835
X2.6818Y2.2043
X2.6818Y1.9606
X2.683Y0.806
X2.6906Y0.9402
X2.695Y0.571
X2.695Y0.493
X2.6969Y3.6516
X2.6969Y3.3366
X2.7006Y0.9636
X2.707Y0.765
X2.707Y-0.199
X2.708Y-0.136
X2.7099Y2.2043
X2.7099Y1.9606
X2.7192Y1.0808
X2.728Y0.361
X2.7283Y1.9803
X2.7283Y1.9409
X2.733Y0.741
X2.734Y0.666
X2.7362Y2.2043
X2.743Y0.383
X2.752Y0.722
X2.7559Y0.2835
X2.7677Y0.8858
X2.7697Y2.3819
X2.777Y0.362
X2.7913Y0.874
X2.7933Y3.5748
X2.7933Y3.248
X2.795Y0.425
X2.804Y1.1
X2.8043Y0.8504
X2.815Y3.6831
X2.8189Y3.5669
X2.8209Y3.0571
X2.8307Y0.8937
X2.837Y-0.134
X2.838Y-0.196
X2.8382Y1.1996
X2.8405Y0.361
X2.8416Y1.1014
X2.8543Y0.8543
X2.8543Y0.7795
X2.8591Y0.952
X2.8622Y0.2854
X2.8638Y0.9791
X2.8701Y4.4409
X2.882Y0.532
X2.8894Y1.9327
X2.8894Y1.8933
X2.8894Y1.6299
X2.8894Y1.5906
X2.8941Y0.9807
X2.9Y-0.135
X2.9Y-0.196
X2.9004Y1.0079
X2.901Y0.514
X2.9079Y1.913
X2.9079Y1.6102
X2.9173Y0.3976
X2.9315Y1.0331
X2.935Y1.3346
X2.9354Y1.913
X2.9354Y1.6102
X2.938Y1.238
X2.9392Y1.2042
X2.95Y1.0059
X2.9539Y1.9327
X2.9539Y1.8933
X2.9539Y1.6299
X2.9539Y1.5906
X2.9551Y0.4752
X2.9693Y1.026
X2.973Y3.621
X2.9866Y1.0996
X2.9882Y1.0583
X2.9972Y2.0311
X3.0039Y1.122
X3.0118Y0.8858
X3.0118Y0.8465
X3.015Y0.4
X3.0197Y4.6654
X3.021Y1.311
X3.0217Y2.3819
X3.0339Y1.8008
X3.0343Y1.7398
X3.0433Y0.3425
X3.0474Y1.1337
X3.048Y3.2457
X3.0551Y1.7835
X3.0551Y1.7575
X3.0587Y1.1693
X3.0591Y1.0984
X3.0638Y2.039
X3.0638Y1.9996
X3.0709Y0.5945
X3.076Y1.8008
X3.076Y1.7398
X3.0787Y1.122
X3.0827Y2.0189
X3.0906Y0.5709
X3.0965Y1.1732
X3.1024Y1.1417
X3.1091Y2.0189
X3.115Y1.309
X3.1154Y1.8748
X3.1154Y1.8181
X3.1201Y3.3366
X3.1283Y2.039
X3.1295Y2.487
X3.1307Y2.4217
X3.1323Y2.0067
X3.135Y1.8594
X3.135Y1.8335
X3.1378Y1.0512
X3.1496Y2.4685
X3.1496Y2.4409
X3.1547Y1.8748
X3.1547Y1.8181
X3.1677Y2.4205
X3.1693Y1.1693
X3.1697Y2.487
X3.185Y1.1024
X3.2Y1.0024
X3.2021Y1.281
X3.2047Y0.4567
X3.2059Y1.0358
X3.207Y-0.2
X3.21Y-0.137
X3.2264Y1.0024
X3.2283Y0.8661
X3.2362Y0.6693
X3.2441Y0.4984
X3.251Y1.319
X3.2614Y1.0339
X3.2677Y3.8976
X3.271Y0.4047
X3.2768Y0.9614
X3.2803Y1.0543
X3.2913Y1.2374
X3.2969Y2.5039
X3.2969Y2.4394
X3.299Y-0.136
X3.3Y-0.197
X3.3004Y0.9906
X3.3165Y2.4858
X3.3165Y2.4575
X3.3205Y0.9685
X3.3264Y1.0098
X3.3307Y0.5768
X3.332Y1.181
X3.3362Y2.5039
X3.3362Y2.4394
X3.337Y1.9512
X3.339Y1.9134
X3.3451Y0.937
X3.3556Y0.9134
X3.3563Y5.0482
X3.3571Y1.9331
X3.3583Y5.4626
X3.3583Y5.4134
X3.367Y1.116
X3.3705Y2.0583
X3.372Y1.227
X3.3824Y0.5161
X3.3846Y1.9331
X3.3858Y0.937
X3.3949Y2.3783
X3.398Y0.654
X3.3996Y0.7953
X3.4016Y0.878
X3.4075Y0.9193
X3.4087Y1.9508
X3.4094Y1.9161
X3.4146Y1.4024
X3.4193Y0.8957
X3.432Y-0.155
X3.435Y1.935
X3.443Y0.607
X3.4465Y1.0354
X3.4567Y0.2677
X3.4626Y1.935
X3.4811Y1.9154
X3.4843Y1.9516
X3.488Y-0.164
X3.491Y0.572
X3.4921Y3.8583
X3.4922Y3.7953
X3.4961Y2.378
X3.5138Y0.8858
X3.5157Y5.187
X3.5197Y2.2126
X3.5209Y2.8949
X3.527Y0.755
X3.5281Y1.0006
X3.534Y-0.191
X3.535Y-0.128
X3.5396Y0.7886
X3.5453Y1.6555
X3.5492Y0.8858
X3.5531Y4.0079
X3.556Y1.042
X3.563Y5.4094
X3.5709Y4.6654
X3.5709Y2.8957
X3.5709Y1.6417
X3.5709Y0.6299
X3.574Y0.711
X3.5945Y0.8622
X3.5961Y4.2606
X3.5965Y1.7657
X3.6106Y0.7394
X3.6142Y3.9803
X3.6209Y3.3583
X3.6209Y2.8957
X3.6209Y1.7409
X3.634Y3.913
X3.636Y-0.191
X3.637Y-0.129
X3.6388Y0.4006
X3.6457Y1.8622
X3.6703Y1.8366
X3.6709Y3.2756
X3.6791Y2.3772
X3.713Y0.739
X3.718Y3.799
X3.7209Y1.8878
X3.7429Y4.8504
X3.746Y0.4146
X3.7461Y5.1457
X3.752Y0.388
X3.755Y-0.129
X3.757Y-0.191
X3.7707Y4.9646
X3.7795Y3.815
X3.7835Y5.0354
X3.7835Y4.4409
X3.7913Y1.0138
X3.8228Y4.4803
X3.8386Y5.0354
X3.8484Y0.4163
X3.858Y-0.191
X3.866Y-0.135
X3.8701Y4.6654
X3.8878Y0.4138
X3.9173Y5.1594
X3.9173Y2.7953
X3.923Y-0.132
X3.925Y-0.19
X3.9567Y2.0531
X3.9803Y2.0728
X4.0236Y4.1811
X4.035Y-0.189
X4.047Y-0.125
X4.0945Y1.3386
X4.131Y-0.125
X4.131Y-0.19
X4.1732Y1.6535
X4.2358Y2.0114
X4.2358Y1.9469
X4.2559Y1.9921
X4.2559Y1.9661
X4.261Y-0.125
X4.264Y-0.189
X4.2752Y2.0114
X4.2752Y1.9469
X4.2913Y5.1063
X4.362Y-0.128
X4.363Y-0.191
X4.3799Y2.1161
X4.3858Y5.0748
X4.458Y-0.189
X4.461Y-0.127
X4.498Y0.8169
X4.6181Y5.3031
X4.696Y-0.125
X4.696Y-0.195
X4.7047Y5.2087
X4.8425Y2.6969
X4.8819Y2.6378
X4.9114Y0.2165
X4.965Y5.2087
X5.3445Y1.0236
X5.4173Y0.0827
X5.689Y0.1378
X5.7362Y1.0551
X5.815Y5.3031
X5.9154Y0.2933
X5.9449Y2.126
X6.0354Y0.5512
X6.0354Y0.2579
X6.0394Y1.9331
X6.0933Y0.5516
T2
X-0.1083Y0.0
X-0.0768Y0.0768
X-0.0768Y-0.0768
X0.0Y0.1083
X0.0Y-0.1083
X0.0768Y0.0768
X0.0768Y-0.0768
X0.1083Y0.0
X0.7917Y6.2
X0.8232Y6.2768
X0.8232Y6.1232
X0.9Y6.3083
X0.9Y6.0917
X0.9768Y6.2768
X0.9768Y6.1232
X1.0083Y6.2
X3.5883Y3.8209
X3.5883Y3.7815
X3.6277Y3.8209
X3.6277Y3.7815
X5.9917Y6.2
X5.9917Y0.0
X6.0232Y6.2768
X6.0232Y6.1232
X6.0232Y0.0768
X6.0232Y-0.0768
X6.1Y6.3083
X6.1Y6.0917
X6.1Y0.1083
X6.1Y-0.1083
X6.1768Y6.2768
X6.1768Y6.1232
X6.1768Y0.0768
X6.1768Y-0.0768
X6.2083Y6.2
X6.2083Y0.0
T3
X0.5866Y4.2639
X2.1929Y0.3898
X3.8091Y0.7638
X4.0551Y0.9843
X5.1063Y4.9724
X5.2872Y5.9803
X6.2205Y1.2402
T4
X1.4921Y3.685
X1.7441Y6.1969
X1.7441Y4.5039
X2.0079Y0.2756
X2.0591Y3.0748
X2.0591Y0.4882
X2.0669Y5.8268
X2.1866Y0.7283
X3.5925Y1.4646
T5
X2.2325Y0.1014
X2.2325Y-0.0561
X2.2719Y0.1801
X2.2719Y0.0226
X2.3112Y0.1014
X2.3112Y-0.0561
X2.3506Y0.1801
X2.3506Y0.0226
X2.39Y0.1014
X2.39Y-0.0561
X2.4293Y0.1801
X2.4293Y0.0226
X2.4687Y0.1014
X2.4687Y-0.0561
X2.5081Y0.1801
X2.5081Y0.0226
X2.5474Y0.1014
X2.5474Y-0.0561
X2.5868Y0.1801
X2.5868Y0.0226
X2.6262Y0.1014
X2.6262Y-0.0561
X2.6656Y0.1801
X2.6656Y0.0226
X2.7049Y0.1014
X2.7049Y-0.0561
X2.7443Y0.1801
X2.7443Y0.0226
X2.7837Y0.1014
X2.7837Y-0.0561
X2.823Y0.1801
X2.823Y0.0226
X2.8624Y0.1014
X2.8624Y-0.0561
X2.9018Y0.1801
X2.9018Y0.0226
X2.9411Y0.1014
X2.9411Y-0.0561
X2.9805Y0.1801
X2.9805Y0.0226
X3.0199Y0.1014
X3.0199Y-0.0561
X3.2167Y0.1801
X3.2167Y0.0226
X3.2561Y0.1014
X3.2561Y-0.0561
X3.2955Y0.1801
X3.2955Y0.0226
X3.3348Y0.1014
X3.3348Y-0.0561
X3.3742Y0.1801
X3.3742Y0.0226
X3.4136Y0.1014
X3.4136Y-0.0561
X3.453Y0.1801
X3.453Y0.0226
X3.4923Y0.1014
X3.4923Y-0.0561
X3.5317Y0.1801
X3.5317Y0.0226
X3.5711Y0.1014
X3.5711Y-0.0561
X3.6104Y0.1801
X3.6104Y0.0226
X3.6498Y0.1014
X3.6498Y-0.0561
X3.6892Y0.1801
X3.6892Y0.0226
X3.7285Y0.1014
X3.7285Y-0.0561
X3.7679Y0.1801
X3.7679Y0.0226
X3.8073Y0.1014
X3.8073Y-0.0561
X3.8467Y0.1801
X3.8467Y0.0226
X3.886Y0.1014
X3.886Y-0.0561
X3.9254Y0.1801
X3.9254Y0.0226
X3.9648Y0.1014
X3.9648Y-0.0561
X4.0041Y0.1801
X4.0041Y0.0226
X4.0435Y0.1014
X4.0435Y-0.0561
X4.0829Y0.1801
X4.0829Y0.0226
X4.1222Y0.1014
X4.1222Y-0.0561
X4.1616Y0.1801
X4.1616Y0.0226
X4.201Y0.1014
X4.201Y-0.0561
X4.2404Y0.1801
X4.2404Y0.0226
X4.2797Y0.1014
X4.2797Y-0.0561
X4.3191Y0.1801
X4.3191Y0.0226
X4.3585Y0.1014
X4.3585Y-0.0561
X4.3978Y0.1801
X4.3978Y0.0226
X4.4372Y0.1014
X4.4372Y-0.0561
X4.4766Y0.1801
X4.4766Y0.0226
X4.5159Y0.1014
X4.5159Y-0.0561
X4.5553Y0.1801
X4.5553Y0.0226
X4.5947Y0.1014
X4.5947Y-0.0561
X4.6341Y0.1801
X4.6341Y0.0226
X4.6734Y0.1014
X4.6734Y-0.0561
X4.7128Y0.1801
X4.7128Y0.0226
X4.7522Y0.1014
X4.7522Y-0.0561
X4.7915Y0.1801
X4.7915Y0.0226
X5.6768Y2.3425
X5.7268Y2.3031
X5.7768Y2.3031
X5.8268Y2.3425
X5.8768Y2.3031
X5.9268Y2.3031
X5.9768Y2.3425
T6
X0.0437Y5.7594
X0.0437Y5.6594
X0.0437Y5.5594
X4.5815Y0.9173
X4.5815Y0.6173
X4.6815Y0.9173
X4.6815Y0.6173
X4.7815Y0.9173
X4.7815Y0.6173
X4.8815Y0.9173
X4.8815Y0.6173
X4.9815Y0.9173
X4.9815Y0.6173
X5.0815Y0.9173
X5.0815Y0.6173
X5.1815Y0.9173
X5.1815Y0.6173
T7
X4.9704Y1.4173
X5.2264Y1.4173
X5.8759Y1.4173
X6.1319Y1.4173
T8
X5.6929Y-0.0787
X5.7429Y-0.0787
X5.7929Y-0.0787
X5.8429Y-0.0787
T9
X-0.0941Y4.9925
X-0.0941Y4.8835
X-0.0941Y4.7744
X-0.0941Y4.6654
X-0.0941Y4.5563
X-0.0941Y4.4472
X-0.0941Y4.3382
X-0.0756Y3.4315
X-0.0756Y3.3224
X-0.0756Y3.2134
X-0.0756Y3.1043
X-0.0709Y6.3386
X-0.0709Y6.2402
X-0.0709Y6.1417
X-0.0709Y6.0433
X-0.0709Y5.9449
X0.0177Y5.047
X0.0177Y4.938
X0.0177Y4.8289
X0.0177Y4.7199
X0.0177Y4.6108
X0.0177Y4.5018
X0.0177Y4.3927
X0.0177Y4.2837
X0.0362Y3.486
X0.0362Y3.377
X0.0362Y3.2679
X0.0362Y3.1589
X0.0362Y3.0498
X0.1213Y2.3346
X0.1213Y2.2362
X0.1213Y2.1575
X0.1213Y2.0591
X0.126Y6.2894
X0.126Y6.1909
X0.126Y6.0925
X0.126Y5.9941
X0.152Y0.848
X0.152Y0.748
X0.152Y0.6693
X0.152Y0.5693
X0.2236Y2.3346
X0.2236Y2.2362
X0.2236Y2.1575
X0.2236Y2.0591
X0.2551Y0.848
X0.2551Y0.748
X0.2551Y0.6693
X0.2551Y0.5693
X0.3228Y6.2894
X0.3228Y6.1909
X0.3228Y6.0925
X0.3228Y5.9941
X0.4252Y0.8837
X0.4252Y0.7837
X0.4252Y0.6837
X0.4252Y0.5837
X0.5252Y0.8337
X0.5252Y0.7337
X0.5252Y0.6337
X0.5252Y0.5335
X0.6366Y0.9921
X0.6366Y0.8921
X0.6366Y0.5252
X0.6366Y0.4252
T10
X0.1953Y2.6083
X0.2362Y3.937
X0.2362Y3.837
X0.2362Y3.737
X0.2362Y3.637
X0.265Y5.1154
X0.265Y5.0154
X0.265Y4.9154
X0.265Y4.8154
X0.265Y4.7154
X0.265Y4.6154
X0.265Y4.5154
X0.265Y4.4154
X0.265Y4.3154
X0.265Y4.2154
X0.2953Y2.6083
X0.365Y5.1154
X0.365Y5.0154
X0.365Y4.9154
X0.365Y4.8154
X0.365Y4.7154
X0.365Y4.6154
X0.365Y4.5154
X0.365Y4.4154
X0.365Y4.3154
X0.365Y4.2154
X0.3953Y2.6083
X0.8252Y1.6339
X0.8252Y1.5157
X0.8252Y1.3976
X0.8252Y1.2795
X0.9252Y1.6339
X0.9252Y1.5157
X0.9252Y1.3976
X0.9252Y1.2795
X1.0252Y1.6339
X1.0252Y1.5157
X1.0252Y1.3976
X1.0252Y1.2795
X1.1803Y2.1949
X1.2803Y2.1949
X1.4354Y5.9449
X1.4354Y5.8268
X1.5354Y5.9449
X1.5354Y5.8268
X1.6354Y5.9449
X1.6354Y5.8268
X2.2319Y5.0787
X2.3319Y5.0787
X2.4319Y5.0787
X2.5319Y5.0787
X2.8465Y5.4724
X2.8465Y5.3543
X2.8465Y5.2362
X2.9465Y5.4724
X2.9465Y5.3543
X2.9465Y5.2362
X3.0465Y5.4724
X3.0465Y5.3543
X3.0465Y5.2362
X4.5654Y1.4567
X4.6441Y2.5394
X4.6654Y1.4567
X4.7441Y2.5394
X4.7654Y1.4567
X4.8441Y2.5394
X5.1165Y2.3819
X5.2012Y4.3083
X5.2012Y3.4083
X5.2165Y2.3819
X5.3012Y4.3083
X5.3012Y3.4083
X5.3165Y2.3819
X5.4012Y4.3083
X5.4012Y3.4083
X5.5012Y4.3083
X5.5012Y3.4083
X5.5299Y6.3386
X5.5299Y5.8465
X5.5307Y0.9374
X5.5307Y0.8374
X5.5307Y0.7374
X5.5307Y0.6374
X5.6012Y4.3083
X5.6012Y3.4083
X5.6299Y6.3386
X5.6299Y5.8465
X5.6299Y1.911
X5.6299Y1.811
X5.6299Y1.711
X5.6299Y1.4295
X5.6299Y1.3295
X5.6299Y1.2295
X5.6299Y1.1295
X5.6307Y0.9374
X5.6307Y0.8374
X5.6307Y0.7374
X5.6307Y0.6374
X5.7012Y4.3083
X5.7012Y3.4083
X5.7299Y6.3386
X5.7299Y5.8465
X5.8012Y4.3083
X5.8012Y3.4083
X5.9012Y4.3083
X5.9012Y3.4083
X6.0827Y5.6799
X6.0827Y5.5799
T11
X4.5977Y2.3031
X4.6977Y2.3031
X4.7977Y2.3031
X4.8977Y2.3031
X5.4835Y6.1099
X5.4835Y5.6178
X5.5835Y6.1099
X5.5835Y5.6178
X5.6835Y6.1099
X5.6835Y5.6178
X5.7835Y6.1099
X5.7835Y5.6178
T12
X2.2319Y5.3346
X2.3319Y5.3346
X2.4319Y5.3346
X2.5319Y5.3346
T13
X-0.063Y1.5906
X-0.063Y1.5079
X-0.063Y1.4055
X-0.063Y1.3228
X-0.0594Y5.7594
X-0.0594Y5.5594
X0.0354Y1.5906
X0.0354Y1.3228
X0.2126Y1.5906
X0.2126Y1.5079
X0.2126Y1.4055
X0.2126Y1.3228
X0.311Y1.5906
X0.311Y1.3228
T14
X0.6142Y3.0709
X1.4154Y3.0709
T15
X2.3976Y6.2106
X2.3976Y5.9941
X2.563Y6.2106
X2.563Y5.9941
X2.7283Y6.2106
X2.7283Y5.9941
X2.8937Y6.2106
X2.8937Y5.9941
X3.0591Y6.2106
X3.0591Y5.9941
X3.2244Y6.2106
X3.2244Y5.9941
X3.3898Y6.2106
X3.3898Y5.9941
X3.5551Y6.2106
X3.5551Y5.9941
X3.7205Y6.2106
X3.7205Y5.9941
X3.8858Y6.2106
X3.8858Y5.9941
X4.0512Y6.2106
X4.0512Y5.9941
X4.2165Y6.2106
X4.2165Y5.9941
T16
X5.5717Y2.3228
X6.0819Y2.3228
T17
X-0.2205Y6.3795
X-0.2205Y5.9039
X-0.2126Y1.4567
X-0.1811Y1.7224
X-0.1811Y1.1909
X0.015Y2.4547
X0.015Y1.939
X0.2126Y1.7224
X0.2126Y1.1909
X0.2244Y6.3795
X0.2244Y5.9039
X0.2394Y2.4547
X0.2394Y1.939
T18
X-0.0709Y1.0758
X-0.0709Y0.3415
X0.0315Y0.9673
X0.0315Y0.45
X0.2551Y0.9673
X0.2551Y0.45
X0.4252Y1.0758
X0.4252Y0.3415
T19
X-0.0197Y3.7598
X-0.0197Y2.776
T20
X-0.0382Y5.3209
X-0.0382Y4.0098
T21
X0.0Y0.0
X0.9Y6.2
X6.1Y6.2
X6.1Y0.0
M30
